<mxfile host="Electron" agent="Mozilla/5.0 (Windows NT 10.0; Win64; x64) AppleWebKit/537.36 (KHTML, like Gecko) draw.io/24.7.17 Chrome/128.0.6613.36 Electron/32.0.1 Safari/537.36" version="24.7.17" pages="4">
  <diagram id="tb0tA2IUomSAeRE4kSi9" name="ER-diagram">
    <mxGraphModel dx="1343" dy="464" grid="1" gridSize="10" guides="1" tooltips="1" connect="1" arrows="1" fold="1" page="1" pageScale="1" pageWidth="1169" pageHeight="827" math="0" shadow="0">
      <root>
        <mxCell id="0" />
        <mxCell id="1" parent="0" />
        <mxCell id="75" style="edgeStyle=orthogonalEdgeStyle;html=1;entryX=1;entryY=0.5;entryDx=0;entryDy=0;endArrow=none;endFill=0;exitX=0.188;exitY=1.01;exitDx=0;exitDy=0;exitPerimeter=0;" parent="1" source="2" target="19" edge="1">
          <mxGeometry relative="1" as="geometry">
            <mxPoint x="867.8" y="400" as="targetPoint" />
            <Array as="points">
              <mxPoint x="819" y="375" />
            </Array>
          </mxGeometry>
        </mxCell>
        <mxCell id="83" style="edgeStyle=orthogonalEdgeStyle;html=1;endArrow=none;endFill=0;entryX=0.5;entryY=0;entryDx=0;entryDy=0;exitX=0.5;exitY=1;exitDx=0;exitDy=0;" parent="1" source="2" target="84" edge="1">
          <mxGeometry relative="1" as="geometry">
            <mxPoint x="790.3" y="595" as="targetPoint" />
            <mxPoint x="830.3" y="280" as="sourcePoint" />
            <Array as="points">
              <mxPoint x="868" y="440" />
              <mxPoint x="730" y="440" />
            </Array>
          </mxGeometry>
        </mxCell>
        <mxCell id="2" value="User" style="rounded=0;whiteSpace=wrap;html=1;" parent="1" vertex="1">
          <mxGeometry x="790.3" y="210" width="155" height="70" as="geometry" />
        </mxCell>
        <mxCell id="71" style="edgeStyle=orthogonalEdgeStyle;html=1;entryX=1;entryY=0.75;entryDx=0;entryDy=0;endArrow=none;endFill=0;" parent="1" source="4" target="2" edge="1">
          <mxGeometry relative="1" as="geometry">
            <Array as="points">
              <mxPoint x="970.3" y="285" />
              <mxPoint x="970.3" y="263" />
              <mxPoint x="945.3" y="263" />
            </Array>
          </mxGeometry>
        </mxCell>
        <mxCell id="4" value="user_coverImg" style="ellipse;whiteSpace=wrap;html=1;" parent="1" vertex="1">
          <mxGeometry x="990.3000000000001" y="255" width="120" height="50" as="geometry" />
        </mxCell>
        <mxCell id="12" style="edgeStyle=none;html=1;endArrow=none;endFill=0;" parent="1" source="5" target="2" edge="1">
          <mxGeometry relative="1" as="geometry" />
        </mxCell>
        <mxCell id="5" value="user_id" style="ellipse;whiteSpace=wrap;html=1;" parent="1" vertex="1">
          <mxGeometry x="808.1100000000001" y="20" width="119.37" height="50" as="geometry" />
        </mxCell>
        <mxCell id="66" style="edgeStyle=orthogonalEdgeStyle;html=1;endArrow=none;endFill=0;exitX=1;exitY=0.5;exitDx=0;exitDy=0;" parent="1" source="7" edge="1">
          <mxGeometry relative="1" as="geometry">
            <mxPoint x="810.3" y="210" as="targetPoint" />
            <Array as="points">
              <mxPoint x="810.3" y="155" />
              <mxPoint x="810.3" y="210" />
            </Array>
          </mxGeometry>
        </mxCell>
        <mxCell id="7" value="user_email" style="ellipse;whiteSpace=wrap;html=1;" parent="1" vertex="1">
          <mxGeometry x="669.37" y="130" width="120.93" height="50" as="geometry" />
        </mxCell>
        <mxCell id="69" style="edgeStyle=orthogonalEdgeStyle;html=1;endArrow=none;endFill=0;" parent="1" source="8" edge="1">
          <mxGeometry relative="1" as="geometry">
            <mxPoint x="930.3" y="210" as="targetPoint" />
          </mxGeometry>
        </mxCell>
        <mxCell id="8" value="user_link" style="ellipse;whiteSpace=wrap;html=1;" parent="1" vertex="1">
          <mxGeometry x="968.4300000000001" y="130" width="120.3" height="50" as="geometry" />
        </mxCell>
        <mxCell id="72" style="edgeStyle=orthogonalEdgeStyle;html=1;endArrow=none;endFill=0;" parent="1" source="9" edge="1">
          <mxGeometry relative="1" as="geometry">
            <mxPoint x="930.3" y="280" as="targetPoint" />
          </mxGeometry>
        </mxCell>
        <mxCell id="9" value="user_breed" style="ellipse;whiteSpace=wrap;html=1;" parent="1" vertex="1">
          <mxGeometry x="968.4300000000001" y="320" width="120" height="50" as="geometry" />
        </mxCell>
        <mxCell id="62" style="edgeStyle=orthogonalEdgeStyle;html=1;endArrow=none;endFill=0;" parent="1" source="10" target="2" edge="1">
          <mxGeometry relative="1" as="geometry">
            <Array as="points">
              <mxPoint x="767.3" y="285" />
              <mxPoint x="767.3" y="265" />
            </Array>
          </mxGeometry>
        </mxCell>
        <mxCell id="10" value="user_gender" style="ellipse;whiteSpace=wrap;html=1;" parent="1" vertex="1">
          <mxGeometry x="624.3000000000001" y="260" width="120" height="50" as="geometry" />
        </mxCell>
        <mxCell id="74" style="edgeStyle=orthogonalEdgeStyle;html=1;endArrow=none;endFill=0;exitX=0;exitY=0.5;exitDx=0;exitDy=0;entryX=0.71;entryY=1;entryDx=0;entryDy=0;entryPerimeter=0;" parent="1" source="11" target="2" edge="1">
          <mxGeometry relative="1" as="geometry">
            <mxPoint x="910.3" y="280" as="targetPoint" />
          </mxGeometry>
        </mxCell>
        <mxCell id="11" value="user_type" style="ellipse;whiteSpace=wrap;html=1;" parent="1" vertex="1">
          <mxGeometry x="920.0000000000001" y="380" width="125.93" height="50" as="geometry" />
        </mxCell>
        <mxCell id="70" style="edgeStyle=orthogonalEdgeStyle;html=1;endArrow=none;endFill=0;entryX=0.999;entryY=0.313;entryDx=0;entryDy=0;exitX=0;exitY=0.5;exitDx=0;exitDy=0;entryPerimeter=0;" parent="1" source="3" target="2" edge="1">
          <mxGeometry relative="1" as="geometry">
            <Array as="points">
              <mxPoint x="970.3" y="215" />
              <mxPoint x="970.3" y="232" />
            </Array>
          </mxGeometry>
        </mxCell>
        <mxCell id="3" value="user_profileImg" style="ellipse;whiteSpace=wrap;html=1;" parent="1" vertex="1">
          <mxGeometry x="990.3" y="190" width="119.37" height="50" as="geometry" />
        </mxCell>
        <mxCell id="65" style="edgeStyle=orthogonalEdgeStyle;html=1;endArrow=none;endFill=0;entryX=0.336;entryY=-0.004;entryDx=0;entryDy=0;entryPerimeter=0;exitX=1;exitY=0.5;exitDx=0;exitDy=0;" parent="1" source="6" target="2" edge="1">
          <mxGeometry relative="1" as="geometry">
            <Array as="points">
              <mxPoint x="842.3" y="95" />
            </Array>
          </mxGeometry>
        </mxCell>
        <mxCell id="6" value="user_name" style="ellipse;whiteSpace=wrap;html=1;" parent="1" vertex="1">
          <mxGeometry x="707.49" y="70" width="120.3" height="50" as="geometry" />
        </mxCell>
        <mxCell id="78" style="edgeStyle=orthogonalEdgeStyle;html=1;entryX=0;entryY=0.5;entryDx=0;entryDy=0;endArrow=none;endFill=0;exitX=0.5;exitY=1;exitDx=0;exitDy=0;" parent="1" source="14" target="19" edge="1">
          <mxGeometry relative="1" as="geometry">
            <Array as="points">
              <mxPoint x="490" y="250" />
              <mxPoint x="600" y="250" />
              <mxPoint x="600" y="375" />
            </Array>
          </mxGeometry>
        </mxCell>
        <mxCell id="14" value="Login" style="rounded=0;whiteSpace=wrap;html=1;" parent="1" vertex="1">
          <mxGeometry x="437.6499999999999" y="125" width="105" height="60" as="geometry" />
        </mxCell>
        <mxCell id="88" style="edgeStyle=orthogonalEdgeStyle;html=1;endArrow=none;endFill=0;" parent="1" source="15" target="20" edge="1">
          <mxGeometry relative="1" as="geometry" />
        </mxCell>
        <mxCell id="92" style="edgeStyle=orthogonalEdgeStyle;html=1;endArrow=none;endFill=0;" parent="1" source="15" target="21" edge="1">
          <mxGeometry relative="1" as="geometry" />
        </mxCell>
        <mxCell id="15" value="Follower" style="rounded=0;whiteSpace=wrap;html=1;" parent="1" vertex="1">
          <mxGeometry x="452.35" y="375" width="105" height="60" as="geometry" />
        </mxCell>
        <mxCell id="126" style="edgeStyle=orthogonalEdgeStyle;html=1;endArrow=none;endFill=0;entryX=0.5;entryY=0;entryDx=0;entryDy=0;" parent="1" source="16" target="127" edge="1">
          <mxGeometry relative="1" as="geometry">
            <mxPoint x="190.1500000000001" y="432.5" as="targetPoint" />
          </mxGeometry>
        </mxCell>
        <mxCell id="130" style="edgeStyle=orthogonalEdgeStyle;html=1;endArrow=none;endFill=0;" parent="1" source="16" target="52" edge="1">
          <mxGeometry relative="1" as="geometry" />
        </mxCell>
        <mxCell id="16" value="Post" style="rounded=0;whiteSpace=wrap;html=1;" parent="1" vertex="1">
          <mxGeometry x="137.65" y="227.5" width="105" height="60" as="geometry" />
        </mxCell>
        <mxCell id="114" style="edgeStyle=orthogonalEdgeStyle;html=1;entryX=0;entryY=0.5;entryDx=0;entryDy=0;endArrow=none;endFill=0;" parent="1" source="17" target="112" edge="1">
          <mxGeometry relative="1" as="geometry" />
        </mxCell>
        <mxCell id="116" style="edgeStyle=orthogonalEdgeStyle;html=1;entryX=0.5;entryY=1;entryDx=0;entryDy=0;endArrow=none;endFill=0;" parent="1" source="17" target="37" edge="1">
          <mxGeometry relative="1" as="geometry" />
        </mxCell>
        <mxCell id="117" style="edgeStyle=orthogonalEdgeStyle;html=1;endArrow=none;endFill=0;" parent="1" source="17" target="42" edge="1">
          <mxGeometry relative="1" as="geometry" />
        </mxCell>
        <mxCell id="17" value="Message" style="rounded=0;whiteSpace=wrap;html=1;" parent="1" vertex="1">
          <mxGeometry x="310" y="675" width="105" height="60" as="geometry" />
        </mxCell>
        <mxCell id="94" style="edgeStyle=orthogonalEdgeStyle;html=1;endArrow=none;endFill=0;" parent="1" source="18" target="84" edge="1">
          <mxGeometry relative="1" as="geometry" />
        </mxCell>
        <mxCell id="18" value="Notification" style="rounded=0;whiteSpace=wrap;html=1;" parent="1" vertex="1">
          <mxGeometry x="885.3" y="520" width="105" height="60" as="geometry" />
        </mxCell>
        <mxCell id="19" value="Has" style="rhombus;whiteSpace=wrap;html=1;" parent="1" vertex="1">
          <mxGeometry x="689.8399999999999" y="335" width="80" height="80" as="geometry" />
        </mxCell>
        <mxCell id="20" value="followerId" style="ellipse;whiteSpace=wrap;html=1;" parent="1" vertex="1">
          <mxGeometry x="444.70000000000005" y="280" width="120.3" height="50" as="geometry" />
        </mxCell>
        <mxCell id="21" value="following" style="ellipse;whiteSpace=wrap;html=1;" parent="1" vertex="1">
          <mxGeometry x="565" y="440" width="120.3" height="50" as="geometry" />
        </mxCell>
        <mxCell id="89" style="edgeStyle=orthogonalEdgeStyle;html=1;endArrow=none;endFill=0;entryX=0.25;entryY=0;entryDx=0;entryDy=0;exitX=1;exitY=0.5;exitDx=0;exitDy=0;" parent="1" source="22" target="15" edge="1">
          <mxGeometry relative="1" as="geometry">
            <Array as="points">
              <mxPoint x="479" y="345" />
              <mxPoint x="479" y="375" />
            </Array>
          </mxGeometry>
        </mxCell>
        <mxCell id="22" value="follower_name" style="ellipse;whiteSpace=wrap;html=1;" parent="1" vertex="1">
          <mxGeometry x="332.05" y="320" width="120.3" height="50" as="geometry" />
        </mxCell>
        <mxCell id="91" style="edgeStyle=orthogonalEdgeStyle;html=1;entryX=0;entryY=0.5;entryDx=0;entryDy=0;endArrow=none;endFill=0;" parent="1" source="23" target="15" edge="1">
          <mxGeometry relative="1" as="geometry" />
        </mxCell>
        <mxCell id="23" value="follower_username" style="ellipse;whiteSpace=wrap;html=1;" parent="1" vertex="1">
          <mxGeometry x="302.35" y="380" width="120.3" height="50" as="geometry" />
        </mxCell>
        <mxCell id="123" style="edgeStyle=orthogonalEdgeStyle;html=1;entryX=0.5;entryY=0;entryDx=0;entryDy=0;endArrow=none;endFill=0;" parent="1" source="24" target="16" edge="1">
          <mxGeometry relative="1" as="geometry" />
        </mxCell>
        <mxCell id="24" value="post_id" style="ellipse;whiteSpace=wrap;html=1;" parent="1" vertex="1">
          <mxGeometry x="130" y="100" width="120.3" height="50" as="geometry" />
        </mxCell>
        <mxCell id="100" style="edgeStyle=orthogonalEdgeStyle;html=1;entryX=0;entryY=0.5;entryDx=0;entryDy=0;endArrow=none;endFill=0;" parent="1" source="25" target="14" edge="1">
          <mxGeometry relative="1" as="geometry" />
        </mxCell>
        <mxCell id="25" value="login_username" style="ellipse;whiteSpace=wrap;html=1;" parent="1" vertex="1">
          <mxGeometry x="287.34999999999997" y="80" width="120.3" height="50" as="geometry" />
        </mxCell>
        <mxCell id="99" style="edgeStyle=orthogonalEdgeStyle;html=1;entryX=1;entryY=0.5;entryDx=0;entryDy=0;endArrow=none;endFill=0;" parent="1" source="26" target="14" edge="1">
          <mxGeometry relative="1" as="geometry" />
        </mxCell>
        <mxCell id="26" value="login_password" style="ellipse;whiteSpace=wrap;html=1;" parent="1" vertex="1">
          <mxGeometry x="565" y="80" width="120.3" height="50" as="geometry" />
        </mxCell>
        <mxCell id="86" style="edgeStyle=orthogonalEdgeStyle;html=1;endArrow=none;endFill=0;" parent="1" source="27" target="14" edge="1">
          <mxGeometry relative="1" as="geometry" />
        </mxCell>
        <mxCell id="27" value="login_id" style="ellipse;whiteSpace=wrap;html=1;" parent="1" vertex="1">
          <mxGeometry x="430" y="40" width="120.3" height="50" as="geometry" />
        </mxCell>
        <mxCell id="109" style="edgeStyle=orthogonalEdgeStyle;html=1;entryX=0.808;entryY=-0.004;entryDx=0;entryDy=0;endArrow=none;endFill=0;entryPerimeter=0;" parent="1" source="32" target="18" edge="1">
          <mxGeometry relative="1" as="geometry" />
        </mxCell>
        <mxCell id="32" value="notification_from" style="ellipse;whiteSpace=wrap;html=1;" parent="1" vertex="1">
          <mxGeometry x="1007.95" y="465" width="120.3" height="50" as="geometry" />
        </mxCell>
        <mxCell id="103" style="edgeStyle=orthogonalEdgeStyle;html=1;endArrow=none;endFill=0;" parent="1" source="33" target="18" edge="1">
          <mxGeometry relative="1" as="geometry" />
        </mxCell>
        <mxCell id="33" value="notification_to" style="ellipse;whiteSpace=wrap;html=1;" parent="1" vertex="1">
          <mxGeometry x="1016.29" y="525" width="120.3" height="50" as="geometry" />
        </mxCell>
        <mxCell id="104" style="edgeStyle=orthogonalEdgeStyle;html=1;endArrow=none;endFill=0;" parent="1" source="34" edge="1">
          <mxGeometry relative="1" as="geometry">
            <mxPoint x="970" y="580" as="targetPoint" />
          </mxGeometry>
        </mxCell>
        <mxCell id="34" value="notification_type" style="ellipse;whiteSpace=wrap;html=1;" parent="1" vertex="1">
          <mxGeometry x="1007.9499999999999" y="590" width="120.3" height="50" as="geometry" />
        </mxCell>
        <mxCell id="105" style="edgeStyle=orthogonalEdgeStyle;html=1;endArrow=none;endFill=0;" parent="1" source="35" target="18" edge="1">
          <mxGeometry relative="1" as="geometry" />
        </mxCell>
        <mxCell id="35" value="notification_read" style="ellipse;whiteSpace=wrap;html=1;" parent="1" vertex="1">
          <mxGeometry x="877.6499999999999" y="620" width="120.3" height="50" as="geometry" />
        </mxCell>
        <mxCell id="37" value="message_id" style="ellipse;whiteSpace=wrap;html=1;" parent="1" vertex="1">
          <mxGeometry x="302.35" y="600" width="120.3" height="50" as="geometry" />
        </mxCell>
        <mxCell id="101" style="edgeStyle=orthogonalEdgeStyle;html=1;endArrow=none;endFill=0;entryX=0.5;entryY=0;entryDx=0;entryDy=0;" parent="1" source="38" target="18" edge="1">
          <mxGeometry relative="1" as="geometry" />
        </mxCell>
        <mxCell id="38" value="notification_id" style="ellipse;whiteSpace=wrap;html=1;" parent="1" vertex="1">
          <mxGeometry x="877.6499999999999" y="435" width="120.3" height="50" as="geometry" />
        </mxCell>
        <mxCell id="119" style="edgeStyle=orthogonalEdgeStyle;html=1;endArrow=none;endFill=0;entryX=-0.004;entryY=0.304;entryDx=0;entryDy=0;entryPerimeter=0;" parent="1" source="39" target="17" edge="1">
          <mxGeometry relative="1" as="geometry">
            <mxPoint x="306" y="690" as="targetPoint" />
          </mxGeometry>
        </mxCell>
        <mxCell id="39" value="message_sender" style="ellipse;whiteSpace=wrap;html=1;" parent="1" vertex="1">
          <mxGeometry x="163.35000000000002" y="650" width="120.3" height="50" as="geometry" />
        </mxCell>
        <mxCell id="118" style="edgeStyle=orthogonalEdgeStyle;html=1;endArrow=none;endFill=0;entryX=0;entryY=0.75;entryDx=0;entryDy=0;" parent="1" source="41" target="17" edge="1">
          <mxGeometry relative="1" as="geometry">
            <mxPoint x="306" y="720" as="targetPoint" />
          </mxGeometry>
        </mxCell>
        <mxCell id="41" value="message_seen" style="ellipse;whiteSpace=wrap;html=1;" parent="1" vertex="1">
          <mxGeometry x="163.35000000000002" y="710" width="120.3" height="50" as="geometry" />
        </mxCell>
        <mxCell id="42" value="message_img" style="ellipse;whiteSpace=wrap;html=1;" parent="1" vertex="1">
          <mxGeometry x="302.35" y="760" width="120.3" height="50" as="geometry" />
        </mxCell>
        <mxCell id="137" style="edgeStyle=orthogonalEdgeStyle;html=1;endArrow=none;endFill=0;" parent="1" source="43" target="45" edge="1">
          <mxGeometry relative="1" as="geometry" />
        </mxCell>
        <mxCell id="43" value="Conversation" style="rounded=0;whiteSpace=wrap;html=1;" parent="1" vertex="1">
          <mxGeometry x="677.3400000000001" y="675" width="105" height="60" as="geometry" />
        </mxCell>
        <mxCell id="138" style="edgeStyle=orthogonalEdgeStyle;html=1;endArrow=none;endFill=0;" parent="1" source="44" target="43" edge="1">
          <mxGeometry relative="1" as="geometry" />
        </mxCell>
        <mxCell id="44" value="conversation_id" style="ellipse;whiteSpace=wrap;html=1;" parent="1" vertex="1">
          <mxGeometry x="669.69" y="605" width="120.3" height="50" as="geometry" />
        </mxCell>
        <mxCell id="45" value="conversation_participant" style="ellipse;whiteSpace=wrap;html=1;" parent="1" vertex="1">
          <mxGeometry x="641.84" y="755" width="176" height="50" as="geometry" />
        </mxCell>
        <mxCell id="124" style="edgeStyle=orthogonalEdgeStyle;html=1;entryX=0.75;entryY=0;entryDx=0;entryDy=0;endArrow=none;endFill=0;exitX=0;exitY=0.5;exitDx=0;exitDy=0;" parent="1" source="49" target="16" edge="1">
          <mxGeometry relative="1" as="geometry">
            <Array as="points">
              <mxPoint x="216" y="185" />
            </Array>
          </mxGeometry>
        </mxCell>
        <mxCell id="49" value="post_text" style="ellipse;whiteSpace=wrap;html=1;" parent="1" vertex="1">
          <mxGeometry x="280" y="160" width="120.3" height="50" as="geometry" />
        </mxCell>
        <mxCell id="133" style="edgeStyle=orthogonalEdgeStyle;html=1;endArrow=none;endFill=0;" parent="1" source="50" target="54" edge="1">
          <mxGeometry relative="1" as="geometry" />
        </mxCell>
        <mxCell id="134" style="edgeStyle=orthogonalEdgeStyle;html=1;endArrow=none;endFill=0;exitX=0.5;exitY=1;exitDx=0;exitDy=0;" parent="1" source="50" target="55" edge="1">
          <mxGeometry relative="1" as="geometry" />
        </mxCell>
        <mxCell id="50" value="Comment" style="rounded=0;whiteSpace=wrap;html=1;" parent="1" vertex="1">
          <mxGeometry x="17.349999999999998" y="485" width="105" height="60" as="geometry" />
        </mxCell>
        <mxCell id="52" value="post_img" style="ellipse;whiteSpace=wrap;html=1;" parent="1" vertex="1">
          <mxGeometry x="279.99999999999994" y="232.5" width="120.3" height="50" as="geometry" />
        </mxCell>
        <mxCell id="125" style="edgeStyle=orthogonalEdgeStyle;html=1;entryX=0;entryY=0.5;entryDx=0;entryDy=0;endArrow=none;endFill=0;" parent="1" source="53" target="16" edge="1">
          <mxGeometry relative="1" as="geometry" />
        </mxCell>
        <mxCell id="53" value="post_likes" style="ellipse;whiteSpace=wrap;html=1;" parent="1" vertex="1">
          <mxGeometry x="29.85" y="160" width="120.3" height="50" as="geometry" />
        </mxCell>
        <mxCell id="54" value="comment_id" style="ellipse;whiteSpace=wrap;html=1;" parent="1" vertex="1">
          <mxGeometry x="9.700000000000056" y="375" width="120.3" height="50" as="geometry" />
        </mxCell>
        <mxCell id="55" value="comment_text" style="ellipse;whiteSpace=wrap;html=1;" parent="1" vertex="1">
          <mxGeometry x="9.700000000000049" y="590" width="120.3" height="50" as="geometry" />
        </mxCell>
        <mxCell id="68" style="edgeStyle=orthogonalEdgeStyle;html=1;endArrow=none;endFill=0;exitX=0;exitY=0.5;exitDx=0;exitDy=0;" parent="1" source="58" target="2" edge="1">
          <mxGeometry relative="1" as="geometry">
            <Array as="points">
              <mxPoint x="900.3" y="95" />
            </Array>
          </mxGeometry>
        </mxCell>
        <mxCell id="58" value="user_username" style="ellipse;whiteSpace=wrap;html=1;" parent="1" vertex="1">
          <mxGeometry x="920" y="70" width="120.3" height="50" as="geometry" />
        </mxCell>
        <mxCell id="85" style="edgeStyle=orthogonalEdgeStyle;html=1;entryX=0.001;entryY=0.325;entryDx=0;entryDy=0;endArrow=none;endFill=0;entryPerimeter=0;" parent="1" source="59" target="2" edge="1">
          <mxGeometry relative="1" as="geometry">
            <Array as="points">
              <mxPoint x="767.3" y="215" />
              <mxPoint x="767.3" y="233" />
            </Array>
          </mxGeometry>
        </mxCell>
        <mxCell id="59" value="user_bio" style="ellipse;whiteSpace=wrap;html=1;" parent="1" vertex="1">
          <mxGeometry x="625.3000000000002" y="190" width="120" height="50" as="geometry" />
        </mxCell>
        <mxCell id="87" style="edgeStyle=orthogonalEdgeStyle;html=1;entryX=0.5;entryY=1;entryDx=0;entryDy=0;endArrow=none;endFill=0;exitX=0;exitY=0;exitDx=0;exitDy=0;" parent="1" source="84" target="15" edge="1">
          <mxGeometry relative="1" as="geometry">
            <mxPoint x="710" y="530" as="sourcePoint" />
            <Array as="points">
              <mxPoint x="505" y="530" />
            </Array>
          </mxGeometry>
        </mxCell>
        <mxCell id="106" style="edgeStyle=orthogonalEdgeStyle;html=1;endArrow=none;endFill=0;exitX=1;exitY=1;exitDx=0;exitDy=0;entryX=1;entryY=0.5;entryDx=0;entryDy=0;" parent="1" source="84" target="43" edge="1">
          <mxGeometry relative="1" as="geometry">
            <Array as="points">
              <mxPoint x="810" y="570" />
              <mxPoint x="810" y="710" />
            </Array>
          </mxGeometry>
        </mxCell>
        <mxCell id="115" style="edgeStyle=orthogonalEdgeStyle;html=1;endArrow=none;endFill=0;entryX=1;entryY=0.75;entryDx=0;entryDy=0;exitX=0;exitY=0.5;exitDx=0;exitDy=0;" parent="1" source="84" target="16" edge="1">
          <mxGeometry relative="1" as="geometry">
            <mxPoint x="760.29" y="607.5" as="sourcePoint" />
            <Array as="points">
              <mxPoint x="270" y="550" />
              <mxPoint x="270" y="273" />
            </Array>
          </mxGeometry>
        </mxCell>
        <mxCell id="84" value="Manage" style="rhombus;whiteSpace=wrap;html=1;" parent="1" vertex="1">
          <mxGeometry x="689.8400000000001" y="510" width="80" height="80" as="geometry" />
        </mxCell>
        <mxCell id="113" style="edgeStyle=orthogonalEdgeStyle;html=1;entryX=0;entryY=0.5;entryDx=0;entryDy=0;endArrow=none;endFill=0;" parent="1" source="112" target="43" edge="1">
          <mxGeometry relative="1" as="geometry" />
        </mxCell>
        <mxCell id="112" value="Has" style="rhombus;whiteSpace=wrap;html=1;" parent="1" vertex="1">
          <mxGeometry x="470.29999999999995" y="665" width="80" height="80" as="geometry" />
        </mxCell>
        <mxCell id="136" style="edgeStyle=orthogonalEdgeStyle;html=1;entryX=1;entryY=0.5;entryDx=0;entryDy=0;endArrow=none;endFill=0;exitX=0.5;exitY=1;exitDx=0;exitDy=0;" parent="1" source="127" target="50" edge="1">
          <mxGeometry relative="1" as="geometry" />
        </mxCell>
        <mxCell id="127" value="Has" style="rhombus;whiteSpace=wrap;html=1;" parent="1" vertex="1">
          <mxGeometry x="150.14999999999998" y="405" width="80" height="80" as="geometry" />
        </mxCell>
        <mxCell id="yE22HknV6orNEmIf07K7-139" style="edgeStyle=orthogonalEdgeStyle;html=1;entryX=0.25;entryY=1;entryDx=0;entryDy=0;endArrow=none;endFill=0;exitX=1;exitY=0.5;exitDx=0;exitDy=0;" parent="1" source="yE22HknV6orNEmIf07K7-138" target="15" edge="1">
          <mxGeometry relative="1" as="geometry" />
        </mxCell>
        <mxCell id="yE22HknV6orNEmIf07K7-138" value="followers" style="ellipse;whiteSpace=wrap;html=1;" parent="1" vertex="1">
          <mxGeometry x="332.05" y="440" width="120.3" height="50" as="geometry" />
        </mxCell>
        <mxCell id="139" style="edgeStyle=none;html=1;entryX=1;entryY=1;entryDx=0;entryDy=0;" edge="1" parent="1" source="19" target="19">
          <mxGeometry relative="1" as="geometry" />
        </mxCell>
      </root>
    </mxGraphModel>
  </diagram>
  <diagram id="S4hV8hbZG1YVz5gKbHSV" name="Usecase Diagram">
    <mxGraphModel dx="722" dy="1129" grid="1" gridSize="10" guides="1" tooltips="1" connect="1" arrows="1" fold="1" page="1" pageScale="1" pageWidth="827" pageHeight="1169" math="0" shadow="0">
      <root>
        <mxCell id="0" />
        <mxCell id="1" parent="0" />
        <mxCell id="gzihQgt3Wp3Sx4pazYkZ-16" value="" style="rounded=0;whiteSpace=wrap;html=1;fillColor=none;" vertex="1" parent="1">
          <mxGeometry x="160" y="120" width="600" height="700" as="geometry" />
        </mxCell>
        <mxCell id="Qm0673e-ZD4dvRLxM-OP-6" style="rounded=0;orthogonalLoop=1;jettySize=auto;html=1;entryX=1;entryY=1;entryDx=0;entryDy=0;endArrow=none;endFill=0;" edge="1" parent="1" source="oQcmcCTGtGjPlpNOGID1-1" target="QLoITk_wr8yLl5wPL2C9-1">
          <mxGeometry relative="1" as="geometry" />
        </mxCell>
        <mxCell id="Qm0673e-ZD4dvRLxM-OP-7" style="rounded=0;orthogonalLoop=1;jettySize=auto;html=1;endArrow=none;endFill=0;entryX=0.5;entryY=1;entryDx=0;entryDy=0;" edge="1" parent="1" source="oQcmcCTGtGjPlpNOGID1-1" target="Qm0673e-ZD4dvRLxM-OP-1">
          <mxGeometry relative="1" as="geometry" />
        </mxCell>
        <mxCell id="gzihQgt3Wp3Sx4pazYkZ-1" style="rounded=0;orthogonalLoop=1;jettySize=auto;html=1;strokeColor=default;align=center;verticalAlign=middle;fontFamily=Helvetica;fontSize=11;fontColor=default;labelBackgroundColor=default;endArrow=none;endFill=0;" edge="1" parent="1" source="oQcmcCTGtGjPlpNOGID1-1" target="Qm0673e-ZD4dvRLxM-OP-11">
          <mxGeometry relative="1" as="geometry" />
        </mxCell>
        <mxCell id="gzihQgt3Wp3Sx4pazYkZ-3" style="rounded=0;orthogonalLoop=1;jettySize=auto;html=1;endArrow=none;endFill=0;entryX=0;entryY=0.5;entryDx=0;entryDy=0;" edge="1" parent="1" source="oQcmcCTGtGjPlpNOGID1-1" target="Qm0673e-ZD4dvRLxM-OP-10">
          <mxGeometry relative="1" as="geometry" />
        </mxCell>
        <mxCell id="gzihQgt3Wp3Sx4pazYkZ-7" style="rounded=0;orthogonalLoop=1;jettySize=auto;html=1;entryX=0;entryY=0.5;entryDx=0;entryDy=0;endArrow=none;endFill=0;" edge="1" parent="1" source="oQcmcCTGtGjPlpNOGID1-1" target="Qm0673e-ZD4dvRLxM-OP-3">
          <mxGeometry relative="1" as="geometry" />
        </mxCell>
        <mxCell id="gzihQgt3Wp3Sx4pazYkZ-8" style="rounded=0;orthogonalLoop=1;jettySize=auto;html=1;endArrow=none;endFill=0;" edge="1" parent="1" source="oQcmcCTGtGjPlpNOGID1-1" target="Qm0673e-ZD4dvRLxM-OP-2">
          <mxGeometry relative="1" as="geometry" />
        </mxCell>
        <mxCell id="gzihQgt3Wp3Sx4pazYkZ-9" style="rounded=0;orthogonalLoop=1;jettySize=auto;html=1;entryX=0;entryY=0.5;entryDx=0;entryDy=0;endArrow=none;endFill=0;" edge="1" parent="1" source="oQcmcCTGtGjPlpNOGID1-1" target="Qm0673e-ZD4dvRLxM-OP-15">
          <mxGeometry relative="1" as="geometry" />
        </mxCell>
        <mxCell id="gzihQgt3Wp3Sx4pazYkZ-10" style="rounded=0;orthogonalLoop=1;jettySize=auto;html=1;entryX=0;entryY=0;entryDx=0;entryDy=0;endArrow=none;endFill=0;" edge="1" parent="1" source="oQcmcCTGtGjPlpNOGID1-1" target="Qm0673e-ZD4dvRLxM-OP-13">
          <mxGeometry relative="1" as="geometry" />
        </mxCell>
        <mxCell id="gzihQgt3Wp3Sx4pazYkZ-11" style="rounded=0;orthogonalLoop=1;jettySize=auto;html=1;endArrow=none;endFill=0;entryX=0;entryY=0.5;entryDx=0;entryDy=0;" edge="1" parent="1" source="oQcmcCTGtGjPlpNOGID1-1" target="Qm0673e-ZD4dvRLxM-OP-8">
          <mxGeometry relative="1" as="geometry" />
        </mxCell>
        <mxCell id="gzihQgt3Wp3Sx4pazYkZ-12" style="rounded=0;orthogonalLoop=1;jettySize=auto;html=1;endArrow=none;endFill=0;" edge="1" parent="1" source="oQcmcCTGtGjPlpNOGID1-1" target="Qm0673e-ZD4dvRLxM-OP-5">
          <mxGeometry relative="1" as="geometry" />
        </mxCell>
        <mxCell id="gzihQgt3Wp3Sx4pazYkZ-13" style="rounded=0;orthogonalLoop=1;jettySize=auto;html=1;endArrow=none;endFill=0;entryX=1;entryY=0;entryDx=0;entryDy=0;" edge="1" parent="1" source="oQcmcCTGtGjPlpNOGID1-1" target="Qm0673e-ZD4dvRLxM-OP-14">
          <mxGeometry relative="1" as="geometry" />
        </mxCell>
        <mxCell id="gzihQgt3Wp3Sx4pazYkZ-14" style="rounded=0;orthogonalLoop=1;jettySize=auto;html=1;entryX=0.5;entryY=0;entryDx=0;entryDy=0;endArrow=none;endFill=0;" edge="1" parent="1" source="oQcmcCTGtGjPlpNOGID1-1" target="Qm0673e-ZD4dvRLxM-OP-12">
          <mxGeometry relative="1" as="geometry" />
        </mxCell>
        <mxCell id="oQcmcCTGtGjPlpNOGID1-1" value="User" style="shape=umlActor;verticalLabelPosition=bottom;verticalAlign=top;html=1;outlineConnect=0;" parent="1" vertex="1">
          <mxGeometry x="85" y="440" width="30" height="60" as="geometry" />
        </mxCell>
        <mxCell id="QLoITk_wr8yLl5wPL2C9-1" value="Create Post" style="ellipse;whiteSpace=wrap;html=1;" parent="1" vertex="1">
          <mxGeometry x="315" y="170" width="160" height="60" as="geometry" />
        </mxCell>
        <mxCell id="Qm0673e-ZD4dvRLxM-OP-1" value="Delete Post" style="ellipse;whiteSpace=wrap;html=1;" vertex="1" parent="1">
          <mxGeometry x="495" y="150" width="160" height="60" as="geometry" />
        </mxCell>
        <mxCell id="Qm0673e-ZD4dvRLxM-OP-2" value="Get Suggested User" style="ellipse;whiteSpace=wrap;html=1;" vertex="1" parent="1">
          <mxGeometry x="495" y="310" width="160" height="60" as="geometry" />
        </mxCell>
        <mxCell id="Qm0673e-ZD4dvRLxM-OP-3" value="Follow / Unfollow User" style="ellipse;whiteSpace=wrap;html=1;" vertex="1" parent="1">
          <mxGeometry x="545" y="390" width="160" height="60" as="geometry" />
        </mxCell>
        <mxCell id="Qm0673e-ZD4dvRLxM-OP-5" value="Send Messages" style="ellipse;whiteSpace=wrap;html=1;" vertex="1" parent="1">
          <mxGeometry x="495" y="720" width="160" height="60" as="geometry" />
        </mxCell>
        <mxCell id="Qm0673e-ZD4dvRLxM-OP-8" value="Read / Delete Notifications" style="ellipse;whiteSpace=wrap;html=1;" vertex="1" parent="1">
          <mxGeometry x="575" y="640" width="160" height="60" as="geometry" />
        </mxCell>
        <mxCell id="Qm0673e-ZD4dvRLxM-OP-10" value="Update Profile" style="ellipse;whiteSpace=wrap;html=1;" vertex="1" parent="1">
          <mxGeometry x="575" y="230" width="160" height="60" as="geometry" />
        </mxCell>
        <mxCell id="Qm0673e-ZD4dvRLxM-OP-11" value="Login / Logout system" style="ellipse;whiteSpace=wrap;html=1;" vertex="1" parent="1">
          <mxGeometry x="195" y="240" width="160" height="60" as="geometry" />
        </mxCell>
        <mxCell id="Qm0673e-ZD4dvRLxM-OP-12" value="Freeze Account" style="ellipse;whiteSpace=wrap;html=1;" vertex="1" parent="1">
          <mxGeometry x="195" y="640" width="160" height="60" as="geometry" />
        </mxCell>
        <mxCell id="Qm0673e-ZD4dvRLxM-OP-13" value="Comment on Post" style="ellipse;whiteSpace=wrap;html=1;" vertex="1" parent="1">
          <mxGeometry x="495" y="554.5" width="160" height="60" as="geometry" />
        </mxCell>
        <mxCell id="Qm0673e-ZD4dvRLxM-OP-14" value="Like / Unlike Post" style="ellipse;whiteSpace=wrap;html=1;" vertex="1" parent="1">
          <mxGeometry x="315" y="710" width="160" height="60" as="geometry" />
        </mxCell>
        <mxCell id="Qm0673e-ZD4dvRLxM-OP-15" value="Get Feed Posts" style="ellipse;whiteSpace=wrap;html=1;" vertex="1" parent="1">
          <mxGeometry x="545" y="470" width="160" height="60" as="geometry" />
        </mxCell>
        <mxCell id="gzihQgt3Wp3Sx4pazYkZ-2" style="edgeStyle=orthogonalEdgeStyle;rounded=0;orthogonalLoop=1;jettySize=auto;html=1;exitX=0.5;exitY=1;exitDx=0;exitDy=0;" edge="1" parent="1" source="Qm0673e-ZD4dvRLxM-OP-1" target="Qm0673e-ZD4dvRLxM-OP-1">
          <mxGeometry relative="1" as="geometry" />
        </mxCell>
      </root>
    </mxGraphModel>
  </diagram>
  <diagram id="FNlU9_nuMU2dplygAXE3" name="Class Diagram">
    <mxGraphModel dx="1036" dy="614" grid="1" gridSize="10" guides="1" tooltips="1" connect="1" arrows="1" fold="1" page="1" pageScale="1" pageWidth="827" pageHeight="1169" math="0" shadow="0">
      <root>
        <mxCell id="0" />
        <mxCell id="1" parent="0" />
        <mxCell id="I0URcZguRfalH3bcytAS-11" value="User Class" style="swimlane;fontStyle=1;align=center;verticalAlign=top;childLayout=stackLayout;horizontal=1;startSize=26;horizontalStack=0;resizeParent=1;resizeParentMax=0;resizeLast=0;collapsible=1;marginBottom=0;" parent="1" vertex="1">
          <mxGeometry x="40" y="320" width="160" height="350" as="geometry" />
        </mxCell>
        <mxCell id="I0URcZguRfalH3bcytAS-12" value="+ user_id: string&#xa;+ user_name: string&#xa;+ user_username: string&#xa;+ user_password: string&#xa;+ user_email: string&#xa;+ user_gender: bolean&#xa;+ user_type: string&#xa;+ user_breed: string&#xa;+ user_profileImg: string&#xa;+ user_coverImg:  string&#xa;+ user_bio: string&#xa;+ user_link: string&#xa;+ user_createdAt: date" style="text;strokeColor=none;fillColor=none;align=left;verticalAlign=top;spacingLeft=4;spacingRight=4;overflow=hidden;rotatable=0;points=[[0,0.5],[1,0.5]];portConstraint=eastwest;" parent="I0URcZguRfalH3bcytAS-11" vertex="1">
          <mxGeometry y="26" width="160" height="204" as="geometry" />
        </mxCell>
        <mxCell id="I0URcZguRfalH3bcytAS-13" value="" style="line;strokeWidth=1;fillColor=none;align=left;verticalAlign=middle;spacingTop=-1;spacingLeft=3;spacingRight=3;rotatable=0;labelPosition=right;points=[];portConstraint=eastwest;strokeColor=inherit;" parent="I0URcZguRfalH3bcytAS-11" vertex="1">
          <mxGeometry y="230" width="160" height="2" as="geometry" />
        </mxCell>
        <mxCell id="I0URcZguRfalH3bcytAS-14" value="+ signupUser()&#xa;+ loginUser()&#xa;+ logoutUser()&#xa;+ updateUser()&#xa;+ getUserProfile()&#xa;+ getSuggestedUsers()&#xa;+ freezeAccount()" style="text;strokeColor=none;fillColor=none;align=left;verticalAlign=top;spacingLeft=4;spacingRight=4;overflow=hidden;rotatable=0;points=[[0,0.5],[1,0.5]];portConstraint=eastwest;" parent="I0URcZguRfalH3bcytAS-11" vertex="1">
          <mxGeometry y="232" width="160" height="118" as="geometry" />
        </mxCell>
        <mxCell id="Ag15bOMirYW6mJv3_hA_-1" value="Follower Class" style="swimlane;fontStyle=1;align=center;verticalAlign=top;childLayout=stackLayout;horizontal=1;startSize=26;horizontalStack=0;resizeParent=1;resizeParentMax=0;resizeLast=0;collapsible=1;marginBottom=0;" parent="1" vertex="1">
          <mxGeometry x="255" y="330" width="170" height="140" as="geometry" />
        </mxCell>
        <mxCell id="Ag15bOMirYW6mJv3_hA_-2" value="+ follower_id: string&#xa;+ follower_name: string&#xa;+ follower_username: string&#xa;+ follower_followers: int&#xa;+ follower_following: int&#xa;" style="text;strokeColor=none;fillColor=none;align=left;verticalAlign=top;spacingLeft=4;spacingRight=4;overflow=hidden;rotatable=0;points=[[0,0.5],[1,0.5]];portConstraint=eastwest;" parent="Ag15bOMirYW6mJv3_hA_-1" vertex="1">
          <mxGeometry y="26" width="170" height="84" as="geometry" />
        </mxCell>
        <mxCell id="Ag15bOMirYW6mJv3_hA_-3" value="" style="line;strokeWidth=1;fillColor=none;align=left;verticalAlign=middle;spacingTop=-1;spacingLeft=3;spacingRight=3;rotatable=0;labelPosition=right;points=[];portConstraint=eastwest;strokeColor=inherit;" parent="Ag15bOMirYW6mJv3_hA_-1" vertex="1">
          <mxGeometry y="110" width="170" height="2" as="geometry" />
        </mxCell>
        <mxCell id="Ag15bOMirYW6mJv3_hA_-4" value="+ followUnfollowUser()" style="text;strokeColor=none;fillColor=none;align=left;verticalAlign=top;spacingLeft=4;spacingRight=4;overflow=hidden;rotatable=0;points=[[0,0.5],[1,0.5]];portConstraint=eastwest;" parent="Ag15bOMirYW6mJv3_hA_-1" vertex="1">
          <mxGeometry y="112" width="170" height="28" as="geometry" />
        </mxCell>
        <mxCell id="tC2JArEiBtPJQGjQJQaI-1" value="Post Class" style="swimlane;fontStyle=1;align=center;verticalAlign=top;childLayout=stackLayout;horizontal=1;startSize=26;horizontalStack=0;resizeParent=1;resizeParentMax=0;resizeLast=0;collapsible=1;marginBottom=0;" parent="1" vertex="1">
          <mxGeometry x="480" y="320" width="160" height="260" as="geometry" />
        </mxCell>
        <mxCell id="tC2JArEiBtPJQGjQJQaI-2" value="+ post_id: string&#xa;+ post_postedBy: string&#xa;+ post_text: string&#xa;+ post_img: string&#xa;+ post_likes: int&#xa;+ post_createdAt: date" style="text;strokeColor=none;fillColor=none;align=left;verticalAlign=top;spacingLeft=4;spacingRight=4;overflow=hidden;rotatable=0;points=[[0,0.5],[1,0.5]];portConstraint=eastwest;" parent="tC2JArEiBtPJQGjQJQaI-1" vertex="1">
          <mxGeometry y="26" width="160" height="104" as="geometry" />
        </mxCell>
        <mxCell id="tC2JArEiBtPJQGjQJQaI-3" value="" style="line;strokeWidth=1;fillColor=none;align=left;verticalAlign=middle;spacingTop=-1;spacingLeft=3;spacingRight=3;rotatable=0;labelPosition=right;points=[];portConstraint=eastwest;strokeColor=inherit;" parent="tC2JArEiBtPJQGjQJQaI-1" vertex="1">
          <mxGeometry y="130" width="160" height="2" as="geometry" />
        </mxCell>
        <mxCell id="tC2JArEiBtPJQGjQJQaI-4" value="+ createPost()&#xa;+ getPost()&#xa;+ deletePost()&#xa;+ likeUnlikePost()&#xa;+ getFeedPosts()&#xa;+ getLikedPosts()&#xa;+ getFollowingPosts()&#xa;+ getUserPosts()" style="text;strokeColor=none;fillColor=none;align=left;verticalAlign=top;spacingLeft=4;spacingRight=4;overflow=hidden;rotatable=0;points=[[0,0.5],[1,0.5]];portConstraint=eastwest;" parent="tC2JArEiBtPJQGjQJQaI-1" vertex="1">
          <mxGeometry y="132" width="160" height="128" as="geometry" />
        </mxCell>
        <mxCell id="tC2JArEiBtPJQGjQJQaI-9" style="edgeStyle=orthogonalEdgeStyle;html=1;endArrow=diamondThin;endFill=0;rounded=0;startArrow=none;startFill=0;" parent="1" source="tC2JArEiBtPJQGjQJQaI-5" target="tC2JArEiBtPJQGjQJQaI-2" edge="1">
          <mxGeometry relative="1" as="geometry">
            <Array as="points">
              <mxPoint x="460" y="590" />
              <mxPoint x="460" y="398" />
            </Array>
          </mxGeometry>
        </mxCell>
        <mxCell id="tC2JArEiBtPJQGjQJQaI-5" value="Comment Class" style="swimlane;fontStyle=1;align=center;verticalAlign=top;childLayout=stackLayout;horizontal=1;startSize=26;horizontalStack=0;resizeParent=1;resizeParentMax=0;resizeLast=0;collapsible=1;marginBottom=0;" parent="1" vertex="1">
          <mxGeometry x="240" y="520" width="200" height="140" as="geometry" />
        </mxCell>
        <mxCell id="tC2JArEiBtPJQGjQJQaI-6" value="+ comment_id: string&#xa;+ comment_commentedBy: string&#xa;+ comment_profileImg: string&#xa;+ comment_username: string&#xa;+ comment_createdAt: date" style="text;strokeColor=none;fillColor=none;align=left;verticalAlign=top;spacingLeft=4;spacingRight=4;overflow=hidden;rotatable=0;points=[[0,0.5],[1,0.5]];portConstraint=eastwest;" parent="tC2JArEiBtPJQGjQJQaI-5" vertex="1">
          <mxGeometry y="26" width="200" height="84" as="geometry" />
        </mxCell>
        <mxCell id="tC2JArEiBtPJQGjQJQaI-7" value="" style="line;strokeWidth=1;fillColor=none;align=left;verticalAlign=middle;spacingTop=-1;spacingLeft=3;spacingRight=3;rotatable=0;labelPosition=right;points=[];portConstraint=eastwest;strokeColor=inherit;" parent="tC2JArEiBtPJQGjQJQaI-5" vertex="1">
          <mxGeometry y="110" width="200" height="2" as="geometry" />
        </mxCell>
        <mxCell id="tC2JArEiBtPJQGjQJQaI-8" value="+ commentOnPost()" style="text;strokeColor=none;fillColor=none;align=left;verticalAlign=top;spacingLeft=4;spacingRight=4;overflow=hidden;rotatable=0;points=[[0,0.5],[1,0.5]];portConstraint=eastwest;" parent="tC2JArEiBtPJQGjQJQaI-5" vertex="1">
          <mxGeometry y="112" width="200" height="28" as="geometry" />
        </mxCell>
        <mxCell id="tC2JArEiBtPJQGjQJQaI-10" value="Conversation Class" style="swimlane;fontStyle=1;align=center;verticalAlign=top;childLayout=stackLayout;horizontal=1;startSize=26;horizontalStack=0;resizeParent=1;resizeParentMax=0;resizeLast=0;collapsible=1;marginBottom=0;" parent="1" vertex="1">
          <mxGeometry x="240" y="170" width="200" height="100" as="geometry" />
        </mxCell>
        <mxCell id="tC2JArEiBtPJQGjQJQaI-11" value="+ conversation_id: string&#xa;+ conversation_participants: string&#xa;" style="text;strokeColor=none;fillColor=none;align=left;verticalAlign=top;spacingLeft=4;spacingRight=4;overflow=hidden;rotatable=0;points=[[0,0.5],[1,0.5]];portConstraint=eastwest;" parent="tC2JArEiBtPJQGjQJQaI-10" vertex="1">
          <mxGeometry y="26" width="200" height="44" as="geometry" />
        </mxCell>
        <mxCell id="tC2JArEiBtPJQGjQJQaI-12" value="" style="line;strokeWidth=1;fillColor=none;align=left;verticalAlign=middle;spacingTop=-1;spacingLeft=3;spacingRight=3;rotatable=0;labelPosition=right;points=[];portConstraint=eastwest;strokeColor=inherit;" parent="tC2JArEiBtPJQGjQJQaI-10" vertex="1">
          <mxGeometry y="70" width="200" height="2" as="geometry" />
        </mxCell>
        <mxCell id="tC2JArEiBtPJQGjQJQaI-13" value="+ getConversations()" style="text;strokeColor=none;fillColor=none;align=left;verticalAlign=top;spacingLeft=4;spacingRight=4;overflow=hidden;rotatable=0;points=[[0,0.5],[1,0.5]];portConstraint=eastwest;" parent="tC2JArEiBtPJQGjQJQaI-10" vertex="1">
          <mxGeometry y="72" width="200" height="28" as="geometry" />
        </mxCell>
        <mxCell id="tC2JArEiBtPJQGjQJQaI-19" value="Message Class" style="swimlane;fontStyle=1;align=center;verticalAlign=top;childLayout=stackLayout;horizontal=1;startSize=26;horizontalStack=0;resizeParent=1;resizeParentMax=0;resizeLast=0;collapsible=1;marginBottom=0;" parent="1" vertex="1">
          <mxGeometry x="480" y="120" width="160" height="160" as="geometry">
            <mxRectangle x="495" y="240" width="150" height="30" as="alternateBounds" />
          </mxGeometry>
        </mxCell>
        <mxCell id="tC2JArEiBtPJQGjQJQaI-20" value="+ message_id: string&#xa;+ message_sender: string&#xa;+ message_text: string&#xa;+ message_seen: boolean&#xa;+ message_img: string" style="text;strokeColor=none;fillColor=none;align=left;verticalAlign=top;spacingLeft=4;spacingRight=4;overflow=hidden;rotatable=0;points=[[0,0.5],[1,0.5]];portConstraint=eastwest;" parent="tC2JArEiBtPJQGjQJQaI-19" vertex="1">
          <mxGeometry y="26" width="160" height="84" as="geometry" />
        </mxCell>
        <mxCell id="tC2JArEiBtPJQGjQJQaI-21" value="" style="line;strokeWidth=1;fillColor=none;align=left;verticalAlign=middle;spacingTop=-1;spacingLeft=3;spacingRight=3;rotatable=0;labelPosition=right;points=[];portConstraint=eastwest;strokeColor=inherit;" parent="tC2JArEiBtPJQGjQJQaI-19" vertex="1">
          <mxGeometry y="110" width="160" height="2" as="geometry" />
        </mxCell>
        <mxCell id="tC2JArEiBtPJQGjQJQaI-22" value="+ getMessages()&#xa;+ sendMessage()" style="text;strokeColor=none;fillColor=none;align=left;verticalAlign=top;spacingLeft=4;spacingRight=4;overflow=hidden;rotatable=0;points=[[0,0.5],[1,0.5]];portConstraint=eastwest;" parent="tC2JArEiBtPJQGjQJQaI-19" vertex="1">
          <mxGeometry y="112" width="160" height="48" as="geometry" />
        </mxCell>
        <mxCell id="RhxC2w3-XVARqVeQvvRJ-1" style="edgeStyle=orthogonalEdgeStyle;rounded=0;orthogonalLoop=1;jettySize=auto;html=1;entryX=0.5;entryY=0;entryDx=0;entryDy=0;endArrow=block;endFill=0;" edge="1" parent="1" source="tC2JArEiBtPJQGjQJQaI-23" target="I0URcZguRfalH3bcytAS-11">
          <mxGeometry relative="1" as="geometry" />
        </mxCell>
        <mxCell id="tC2JArEiBtPJQGjQJQaI-23" value="Notification Class" style="swimlane;fontStyle=1;align=center;verticalAlign=top;childLayout=stackLayout;horizontal=1;startSize=26;horizontalStack=0;resizeParent=1;resizeParentMax=0;resizeLast=0;collapsible=1;marginBottom=0;" parent="1" vertex="1">
          <mxGeometry x="40" y="120" width="160" height="160" as="geometry" />
        </mxCell>
        <mxCell id="tC2JArEiBtPJQGjQJQaI-24" value="+ notification_id: string&#xa;+ notification_from: string&#xa;+ notification_to: string&#xa;+ notification_type: string&#xa;+ notification_read: string" style="text;strokeColor=none;fillColor=none;align=left;verticalAlign=top;spacingLeft=4;spacingRight=4;overflow=hidden;rotatable=0;points=[[0,0.5],[1,0.5]];portConstraint=eastwest;" parent="tC2JArEiBtPJQGjQJQaI-23" vertex="1">
          <mxGeometry y="26" width="160" height="84" as="geometry" />
        </mxCell>
        <mxCell id="tC2JArEiBtPJQGjQJQaI-25" value="" style="line;strokeWidth=1;fillColor=none;align=left;verticalAlign=middle;spacingTop=-1;spacingLeft=3;spacingRight=3;rotatable=0;labelPosition=right;points=[];portConstraint=eastwest;strokeColor=inherit;" parent="tC2JArEiBtPJQGjQJQaI-23" vertex="1">
          <mxGeometry y="110" width="160" height="2" as="geometry" />
        </mxCell>
        <mxCell id="tC2JArEiBtPJQGjQJQaI-26" value="+ getNotifications()&#xa;+ deleteNotifications()" style="text;strokeColor=none;fillColor=none;align=left;verticalAlign=top;spacingLeft=4;spacingRight=4;overflow=hidden;rotatable=0;points=[[0,0.5],[1,0.5]];portConstraint=eastwest;" parent="tC2JArEiBtPJQGjQJQaI-23" vertex="1">
          <mxGeometry y="112" width="160" height="48" as="geometry" />
        </mxCell>
        <mxCell id="tC2JArEiBtPJQGjQJQaI-27" style="edgeStyle=orthogonalEdgeStyle;html=1;endArrow=none;endFill=0;startArrow=none;startFill=0;rounded=0;" parent="1" source="Ag15bOMirYW6mJv3_hA_-2" target="I0URcZguRfalH3bcytAS-12" edge="1">
          <mxGeometry relative="1" as="geometry">
            <Array as="points">
              <mxPoint x="220" y="398" />
              <mxPoint x="220" y="448" />
            </Array>
          </mxGeometry>
        </mxCell>
        <mxCell id="tC2JArEiBtPJQGjQJQaI-32" style="edgeStyle=orthogonalEdgeStyle;rounded=0;html=1;entryX=0;entryY=0.5;entryDx=0;entryDy=0;startArrow=none;startFill=0;endArrow=open;endFill=0;" parent="1" source="I0URcZguRfalH3bcytAS-12" target="tC2JArEiBtPJQGjQJQaI-6" edge="1">
          <mxGeometry relative="1" as="geometry" />
        </mxCell>
        <mxCell id="RhxC2w3-XVARqVeQvvRJ-2" style="edgeStyle=orthogonalEdgeStyle;rounded=0;orthogonalLoop=1;jettySize=auto;html=1;endArrow=open;endFill=0;" edge="1" parent="1" source="I0URcZguRfalH3bcytAS-12" target="tC2JArEiBtPJQGjQJQaI-11">
          <mxGeometry relative="1" as="geometry" />
        </mxCell>
        <mxCell id="RhxC2w3-XVARqVeQvvRJ-3" style="edgeStyle=orthogonalEdgeStyle;rounded=0;orthogonalLoop=1;jettySize=auto;html=1;entryX=1;entryY=0.5;entryDx=0;entryDy=0;endArrow=diamondThin;endFill=0;" edge="1" parent="1" source="tC2JArEiBtPJQGjQJQaI-20" target="tC2JArEiBtPJQGjQJQaI-11">
          <mxGeometry relative="1" as="geometry" />
        </mxCell>
      </root>
    </mxGraphModel>
  </diagram>
  <diagram id="iXOSrXlZ1EsRaoJaWh_r" name="Page-4">
    <mxGraphModel dx="273" dy="621" grid="1" gridSize="10" guides="1" tooltips="1" connect="1" arrows="1" fold="1" page="1" pageScale="1" pageWidth="827" pageHeight="1169" background="none" math="0" shadow="0">
      <root>
        <mxCell id="0" />
        <mxCell id="1" parent="0" />
        <mxCell id="_kBkWf4S2Q3xh-xKyiKY-207" style="edgeStyle=orthogonalEdgeStyle;rounded=0;orthogonalLoop=1;jettySize=auto;html=1;entryX=1;entryY=0.75;entryDx=0;entryDy=0;endArrow=open;endFill=0;" parent="1" source="_kBkWf4S2Q3xh-xKyiKY-186" target="_kBkWf4S2Q3xh-xKyiKY-178" edge="1">
          <mxGeometry relative="1" as="geometry">
            <Array as="points">
              <mxPoint x="1420" y="628" />
              <mxPoint x="1420" y="628" />
            </Array>
          </mxGeometry>
        </mxCell>
        <mxCell id="_kBkWf4S2Q3xh-xKyiKY-186" value="" style="whiteSpace=wrap;html=1;labelPosition=center;verticalLabelPosition=middle;align=center;verticalAlign=middle;fillColor=none;swimlaneLine=1;" parent="1" vertex="1">
          <mxGeometry x="1440" y="470" width="160" height="210" as="geometry" />
        </mxCell>
        <mxCell id="_kBkWf4S2Q3xh-xKyiKY-191" value="" style="shape=cylinder3;whiteSpace=wrap;html=1;boundedLbl=1;backgroundOutline=1;size=15;fillColor=none;" parent="1" vertex="1">
          <mxGeometry x="1467.5" y="489" width="105" height="130" as="geometry" />
        </mxCell>
        <mxCell id="_kBkWf4S2Q3xh-xKyiKY-89" value="" style="rounded=0;whiteSpace=wrap;html=1;fillColor=none;" parent="1" vertex="1">
          <mxGeometry x="480" y="750" width="320" height="166" as="geometry" />
        </mxCell>
        <mxCell id="_kBkWf4S2Q3xh-xKyiKY-9" style="edgeStyle=orthogonalEdgeStyle;rounded=0;orthogonalLoop=1;jettySize=auto;html=1;fontSize=14;" parent="1" source="_kBkWf4S2Q3xh-xKyiKY-6" target="_kBkWf4S2Q3xh-xKyiKY-3" edge="1">
          <mxGeometry relative="1" as="geometry">
            <Array as="points">
              <mxPoint x="352.03999999999996" y="291.52" />
              <mxPoint x="352.03999999999996" y="291.52" />
            </Array>
          </mxGeometry>
        </mxCell>
        <mxCell id="_kBkWf4S2Q3xh-xKyiKY-6" value="" style="rounded=1;whiteSpace=wrap;html=1;labelBackgroundColor=none;fontSize=14;" parent="1" vertex="1">
          <mxGeometry x="198.84" y="311.52" width="287.76" height="60" as="geometry" />
        </mxCell>
        <mxCell id="_kBkWf4S2Q3xh-xKyiKY-15" style="edgeStyle=orthogonalEdgeStyle;rounded=0;orthogonalLoop=1;jettySize=auto;html=1;fontSize=14;" parent="1" source="_kBkWf4S2Q3xh-xKyiKY-3" target="_kBkWf4S2Q3xh-xKyiKY-1" edge="1">
          <mxGeometry relative="1" as="geometry">
            <Array as="points">
              <mxPoint x="332.03999999999996" y="141.51999999999998" />
              <mxPoint x="332.03999999999996" y="141.51999999999998" />
            </Array>
          </mxGeometry>
        </mxCell>
        <mxCell id="_kBkWf4S2Q3xh-xKyiKY-17" style="edgeStyle=orthogonalEdgeStyle;rounded=0;orthogonalLoop=1;jettySize=auto;html=1;" parent="1" source="_kBkWf4S2Q3xh-xKyiKY-3" target="_kBkWf4S2Q3xh-xKyiKY-6" edge="1">
          <mxGeometry relative="1" as="geometry">
            <Array as="points">
              <mxPoint x="332.03999999999996" y="291.52" />
              <mxPoint x="332.03999999999996" y="291.52" />
            </Array>
          </mxGeometry>
        </mxCell>
        <mxCell id="_kBkWf4S2Q3xh-xKyiKY-3" value="" style="rounded=0;whiteSpace=wrap;html=1;fontSize=14;" parent="1" vertex="1">
          <mxGeometry x="199.03" y="158.64" width="287.76" height="101.36" as="geometry" />
        </mxCell>
        <mxCell id="VG2-gAxV-nlJsZ7eeUZu-1" value="" style="dashed=0;outlineConnect=0;html=1;align=center;labelPosition=center;verticalLabelPosition=bottom;verticalAlign=top;shape=mxgraph.weblogos.mongodb;labelBackgroundColor=none;rounded=1;fontSize=14;" parent="1" vertex="1">
          <mxGeometry x="280.79999999999995" y="322.76" width="17.1" height="35.79" as="geometry" />
        </mxCell>
        <mxCell id="VG2-gAxV-nlJsZ7eeUZu-3" value="MongoDB" style="text;html=1;align=center;verticalAlign=middle;resizable=0;points=[];autosize=1;labelBackgroundColor=none;rounded=1;fontSize=14;" parent="1" vertex="1">
          <mxGeometry x="297.90999999999997" y="325.6502939255388" width="90" height="30" as="geometry" />
        </mxCell>
        <mxCell id="VG2-gAxV-nlJsZ7eeUZu-8" value="React JS" style="rounded=1;whiteSpace=wrap;html=1;labelBackgroundColor=none;fontSize=14;" parent="1" vertex="1">
          <mxGeometry x="251.30000000000004" y="171.51999999999998" width="182.84" height="37.46" as="geometry" />
        </mxCell>
        <mxCell id="_kBkWf4S2Q3xh-xKyiKY-14" style="edgeStyle=orthogonalEdgeStyle;rounded=0;orthogonalLoop=1;jettySize=auto;html=1;fontSize=14;" parent="1" source="_kBkWf4S2Q3xh-xKyiKY-1" target="_kBkWf4S2Q3xh-xKyiKY-3" edge="1">
          <mxGeometry relative="1" as="geometry">
            <Array as="points">
              <mxPoint x="352.03999999999996" y="141.51999999999998" />
              <mxPoint x="352.03999999999996" y="141.51999999999998" />
            </Array>
          </mxGeometry>
        </mxCell>
        <mxCell id="_kBkWf4S2Q3xh-xKyiKY-1" value="Express JS" style="rounded=1;whiteSpace=wrap;html=1;labelBackgroundColor=none;fontSize=14;" parent="1" vertex="1">
          <mxGeometry x="199.03" y="71.51999999999998" width="287.76" height="46.95" as="geometry" />
        </mxCell>
        <mxCell id="_kBkWf4S2Q3xh-xKyiKY-2" value="Web" style="text;html=1;align=center;verticalAlign=middle;resizable=0;points=[];autosize=1;strokeColor=none;fillColor=none;rotation=270;fontSize=14;" parent="1" vertex="1">
          <mxGeometry x="145.26000000000002" y="79.9999412148922" width="50" height="30" as="geometry" />
        </mxCell>
        <mxCell id="_kBkWf4S2Q3xh-xKyiKY-4" value="Node.js" style="text;html=1;align=center;verticalAlign=middle;resizable=0;points=[];autosize=1;strokeColor=none;fillColor=none;fontSize=14;" parent="1" vertex="1">
          <mxGeometry x="313.88" y="219.99905943827557" width="70" height="30" as="geometry" />
        </mxCell>
        <mxCell id="_kBkWf4S2Q3xh-xKyiKY-5" value="" style="outlineConnect=0;dashed=0;verticalLabelPosition=bottom;verticalAlign=top;align=center;html=1;shape=mxgraph.aws3.android;fillColor=#8CC64F;gradientColor=none;fontSize=14;" parent="1" vertex="1">
          <mxGeometry x="283.88" y="223.85" width="22.89" height="26.15" as="geometry" />
        </mxCell>
        <mxCell id="_kBkWf4S2Q3xh-xKyiKY-7" value="Server" style="text;html=1;align=center;verticalAlign=middle;resizable=0;points=[];autosize=1;strokeColor=none;fillColor=none;rotation=270;fontSize=14;" parent="1" vertex="1">
          <mxGeometry x="140.265" y="200.07923579359885" width="60" height="30" as="geometry" />
        </mxCell>
        <mxCell id="_kBkWf4S2Q3xh-xKyiKY-8" value="Database" style="text;html=1;align=center;verticalAlign=middle;resizable=0;points=[];autosize=1;strokeColor=none;fillColor=none;rotation=270;fontSize=14;" parent="1" vertex="1">
          <mxGeometry x="130.26" y="326.5202939255389" width="80" height="30" as="geometry" />
        </mxCell>
        <mxCell id="_kBkWf4S2Q3xh-xKyiKY-20" value="Model" style="swimlane;fontStyle=1;childLayout=stackLayout;horizontal=1;startSize=26;horizontalStack=0;resizeParent=1;resizeParentMax=0;resizeLast=0;collapsible=1;marginBottom=0;align=center;fontSize=14;fontFamily=Helvetica;" parent="1" vertex="1">
          <mxGeometry x="160.54" y="550" width="120" height="56" as="geometry" />
        </mxCell>
        <mxCell id="_kBkWf4S2Q3xh-xKyiKY-21" value="Data and Logic" style="text;strokeColor=none;fillColor=none;spacingLeft=4;spacingRight=4;overflow=hidden;rotatable=0;points=[[0,0.5],[1,0.5]];portConstraint=eastwest;fontSize=12;whiteSpace=wrap;html=1;align=center;" parent="_kBkWf4S2Q3xh-xKyiKY-20" vertex="1">
          <mxGeometry y="26" width="120" height="30" as="geometry" />
        </mxCell>
        <mxCell id="_kBkWf4S2Q3xh-xKyiKY-30" style="edgeStyle=orthogonalEdgeStyle;rounded=0;orthogonalLoop=1;jettySize=auto;html=1;entryX=1;entryY=0.5;entryDx=0;entryDy=0;endArrow=block;endFill=0;exitX=0.653;exitY=-0.043;exitDx=0;exitDy=0;exitPerimeter=0;" parent="1" source="_kBkWf4S2Q3xh-xKyiKY-24" target="_kBkWf4S2Q3xh-xKyiKY-21" edge="1">
          <mxGeometry relative="1" as="geometry" />
        </mxCell>
        <mxCell id="_kBkWf4S2Q3xh-xKyiKY-34" style="edgeStyle=orthogonalEdgeStyle;rounded=0;orthogonalLoop=1;jettySize=auto;html=1;entryX=0.667;entryY=0;entryDx=0;entryDy=0;exitX=0.34;exitY=0;exitDx=0;exitDy=0;endArrow=block;endFill=0;exitPerimeter=0;entryPerimeter=0;" parent="1" source="_kBkWf4S2Q3xh-xKyiKY-24" target="_kBkWf4S2Q3xh-xKyiKY-26" edge="1">
          <mxGeometry relative="1" as="geometry">
            <Array as="points">
              <mxPoint x="281" y="631" />
              <mxPoint x="160" y="631" />
            </Array>
          </mxGeometry>
        </mxCell>
        <mxCell id="_kBkWf4S2Q3xh-xKyiKY-24" value="Controller" style="swimlane;fontStyle=1;childLayout=stackLayout;horizontal=1;startSize=26;horizontalStack=0;resizeParent=1;resizeParentMax=0;resizeLast=0;collapsible=1;marginBottom=0;align=center;fontSize=14;" parent="1" vertex="1">
          <mxGeometry x="240" y="661" width="120" height="56" as="geometry" />
        </mxCell>
        <mxCell id="_kBkWf4S2Q3xh-xKyiKY-25" value="User input" style="text;strokeColor=none;fillColor=none;spacingLeft=4;spacingRight=4;overflow=hidden;rotatable=0;points=[[0,0.5],[1,0.5]];portConstraint=eastwest;fontSize=12;whiteSpace=wrap;html=1;align=center;" parent="_kBkWf4S2Q3xh-xKyiKY-24" vertex="1">
          <mxGeometry y="26" width="120" height="30" as="geometry" />
        </mxCell>
        <mxCell id="_kBkWf4S2Q3xh-xKyiKY-26" value="View" style="swimlane;fontStyle=1;childLayout=stackLayout;horizontal=1;startSize=26;horizontalStack=0;resizeParent=1;resizeParentMax=0;resizeLast=0;collapsible=1;marginBottom=0;align=center;fontSize=14;" parent="1" vertex="1">
          <mxGeometry x="80" y="661" width="120" height="56" as="geometry" />
        </mxCell>
        <mxCell id="_kBkWf4S2Q3xh-xKyiKY-27" value="Interface" style="text;strokeColor=none;fillColor=none;spacingLeft=4;spacingRight=4;overflow=hidden;rotatable=0;points=[[0,0.5],[1,0.5]];portConstraint=eastwest;fontSize=12;whiteSpace=wrap;html=1;align=center;" parent="_kBkWf4S2Q3xh-xKyiKY-26" vertex="1">
          <mxGeometry y="26" width="120" height="30" as="geometry" />
        </mxCell>
        <mxCell id="_kBkWf4S2Q3xh-xKyiKY-36" style="edgeStyle=orthogonalEdgeStyle;rounded=0;orthogonalLoop=1;jettySize=auto;html=1;entryX=0.503;entryY=1.028;entryDx=0;entryDy=0;entryPerimeter=0;exitX=0.492;exitY=1.028;exitDx=0;exitDy=0;exitPerimeter=0;endArrow=block;endFill=0;" parent="1" source="_kBkWf4S2Q3xh-xKyiKY-27" target="_kBkWf4S2Q3xh-xKyiKY-25" edge="1">
          <mxGeometry relative="1" as="geometry">
            <Array as="points">
              <mxPoint x="139" y="741" />
              <mxPoint x="300" y="741" />
            </Array>
          </mxGeometry>
        </mxCell>
        <mxCell id="_kBkWf4S2Q3xh-xKyiKY-37" style="edgeStyle=orthogonalEdgeStyle;rounded=0;orthogonalLoop=1;jettySize=auto;html=1;entryX=0.321;entryY=-0.012;entryDx=0;entryDy=0;entryPerimeter=0;endArrow=block;endFill=0;" parent="1" source="_kBkWf4S2Q3xh-xKyiKY-21" target="_kBkWf4S2Q3xh-xKyiKY-26" edge="1">
          <mxGeometry relative="1" as="geometry" />
        </mxCell>
        <mxCell id="_kBkWf4S2Q3xh-xKyiKY-39" value="modifies" style="text;html=1;align=center;verticalAlign=middle;resizable=0;points=[];autosize=1;strokeColor=none;fillColor=none;fontStyle=2" parent="1" vertex="1">
          <mxGeometry x="313.88" y="606" width="70" height="30" as="geometry" />
        </mxCell>
        <mxCell id="_kBkWf4S2Q3xh-xKyiKY-40" value="updates" style="text;html=1;align=center;verticalAlign=middle;resizable=0;points=[];autosize=1;strokeColor=none;fillColor=none;fontStyle=2" parent="1" vertex="1">
          <mxGeometry x="50" y="606" width="70" height="30" as="geometry" />
        </mxCell>
        <mxCell id="_kBkWf4S2Q3xh-xKyiKY-41" value="modifies" style="text;html=1;align=center;verticalAlign=middle;resizable=0;points=[];autosize=1;strokeColor=none;fillColor=none;fontStyle=2" parent="1" vertex="1">
          <mxGeometry x="182.54" y="629" width="70" height="30" as="geometry" />
        </mxCell>
        <mxCell id="_kBkWf4S2Q3xh-xKyiKY-42" value="sends input events" style="text;html=1;align=center;verticalAlign=middle;resizable=0;points=[];autosize=1;strokeColor=none;fillColor=none;fontStyle=2" parent="1" vertex="1">
          <mxGeometry x="157.54000000000002" y="741" width="120" height="30" as="geometry" />
        </mxCell>
        <mxCell id="_kBkWf4S2Q3xh-xKyiKY-44" value="MERN Architecture" style="swimlane;fontStyle=1;childLayout=stackLayout;horizontal=1;startSize=40;horizontalStack=0;resizeParent=1;resizeParentMax=0;resizeLast=0;collapsible=1;marginBottom=0;align=center;fontSize=15;fontFamily=Helvetica;" parent="1" vertex="1">
          <mxGeometry x="67.86" y="10" width="542.14" height="391.52" as="geometry" />
        </mxCell>
        <mxCell id="_kBkWf4S2Q3xh-xKyiKY-58" value="" style="sketch=0;points=[[0,0,0],[0.25,0,0],[0.5,0,0],[0.75,0,0],[1,0,0],[0,1,0],[0.25,1,0],[0.5,1,0],[0.75,1,0],[1,1,0],[0,0.25,0],[0,0.5,0],[0,0.75,0],[1,0.25,0],[1,0.5,0],[1,0.75,0]];outlineConnect=0;fontColor=#232F3E;fillColor=none;strokeColor=#000000;dashed=0;verticalLabelPosition=bottom;verticalAlign=top;align=center;html=1;fontSize=12;fontStyle=0;aspect=fixed;shape=mxgraph.aws4.resourceIcon;resIcon=mxgraph.aws4.documentdb_with_mongodb_compatibility;" parent="1" vertex="1">
          <mxGeometry x="73.40000000000003" y="1021" width="78" height="78" as="geometry" />
        </mxCell>
        <mxCell id="_kBkWf4S2Q3xh-xKyiKY-69" style="edgeStyle=orthogonalEdgeStyle;rounded=0;orthogonalLoop=1;jettySize=auto;html=1;entryX=0;entryY=0.5;entryDx=0;entryDy=0;endArrow=none;endFill=0;" parent="1" source="_kBkWf4S2Q3xh-xKyiKY-59" target="_kBkWf4S2Q3xh-xKyiKY-60" edge="1">
          <mxGeometry relative="1" as="geometry" />
        </mxCell>
        <mxCell id="_kBkWf4S2Q3xh-xKyiKY-59" value="Driver" style="html=1;outlineConnect=0;whiteSpace=wrap;fillColor=none;shape=mxgraph.archimate3.application;appType=driver;archiType=oct;strokeWidth=2.5;fontSize=14;" parent="1" vertex="1">
          <mxGeometry x="232.86" y="1022" width="120" height="75" as="geometry" />
        </mxCell>
        <mxCell id="_kBkWf4S2Q3xh-xKyiKY-60" value="Webservice" style="rounded=0;whiteSpace=wrap;html=1;fillColor=none;fontSize=14;strokeWidth=2.5;" parent="1" vertex="1">
          <mxGeometry x="432.86" y="1021" width="120" height="76" as="geometry" />
        </mxCell>
        <mxCell id="_kBkWf4S2Q3xh-xKyiKY-63" value="" style="sketch=0;points=[[0,0,0],[0.25,0,0],[0.5,0,0],[0.75,0,0],[1,0,0],[0,1,0],[0.25,1,0],[0.5,1,0],[0.75,1,0],[1,1,0],[0,0.25,0],[0,0.5,0],[0,0.75,0],[1,0.25,0],[1,0.5,0],[1,0.75,0]];outlineConnect=0;fontColor=#232F3E;fillColor=none;strokeColor=#000000;dashed=0;verticalLabelPosition=bottom;verticalAlign=top;align=center;html=1;fontSize=12;fontStyle=0;aspect=fixed;shape=mxgraph.aws4.resourceIcon;resIcon=mxgraph.aws4.workspaces_thin_client;" parent="1" vertex="1">
          <mxGeometry x="632.86" y="1020" width="78" height="78" as="geometry" />
        </mxCell>
        <mxCell id="_kBkWf4S2Q3xh-xKyiKY-66" value="MongoDB" style="text;html=1;align=center;verticalAlign=middle;resizable=0;points=[];autosize=1;strokeColor=none;fillColor=none;fontSize=14;" parent="1" vertex="1">
          <mxGeometry x="67.86000000000001" y="1097" width="90" height="30" as="geometry" />
        </mxCell>
        <mxCell id="_kBkWf4S2Q3xh-xKyiKY-67" value="BSON" style="text;html=1;align=center;verticalAlign=middle;resizable=0;points=[];autosize=1;strokeColor=none;fillColor=none;fontSize=14;" parent="1" vertex="1">
          <mxGeometry x="162.86" y="1022" width="60" height="30" as="geometry" />
        </mxCell>
        <mxCell id="_kBkWf4S2Q3xh-xKyiKY-68" style="edgeStyle=orthogonalEdgeStyle;rounded=0;orthogonalLoop=1;jettySize=auto;html=1;entryX=0;entryY=0.5;entryDx=0;entryDy=0;entryPerimeter=0;" parent="1" source="_kBkWf4S2Q3xh-xKyiKY-58" target="_kBkWf4S2Q3xh-xKyiKY-59" edge="1">
          <mxGeometry relative="1" as="geometry" />
        </mxCell>
        <mxCell id="_kBkWf4S2Q3xh-xKyiKY-70" style="edgeStyle=orthogonalEdgeStyle;rounded=0;orthogonalLoop=1;jettySize=auto;html=1;entryX=0;entryY=0.5;entryDx=0;entryDy=0;entryPerimeter=0;" parent="1" source="_kBkWf4S2Q3xh-xKyiKY-60" target="_kBkWf4S2Q3xh-xKyiKY-63" edge="1">
          <mxGeometry relative="1" as="geometry" />
        </mxCell>
        <mxCell id="_kBkWf4S2Q3xh-xKyiKY-71" value="NATIVE" style="text;html=1;align=center;verticalAlign=middle;resizable=0;points=[];autosize=1;strokeColor=none;fillColor=none;fontSize=14;" parent="1" vertex="1">
          <mxGeometry x="357.86" y="1022" width="70" height="30" as="geometry" />
        </mxCell>
        <mxCell id="_kBkWf4S2Q3xh-xKyiKY-72" value="JSON" style="text;html=1;align=center;verticalAlign=middle;resizable=0;points=[];autosize=1;strokeColor=none;fillColor=none;fontSize=14;" parent="1" vertex="1">
          <mxGeometry x="567.86" y="1021" width="60" height="30" as="geometry" />
        </mxCell>
        <mxCell id="_kBkWf4S2Q3xh-xKyiKY-73" value="Client" style="text;html=1;align=center;verticalAlign=middle;resizable=0;points=[];autosize=1;strokeColor=none;fillColor=none;fontSize=14;" parent="1" vertex="1">
          <mxGeometry x="641.86" y="1102" width="60" height="30" as="geometry" />
        </mxCell>
        <mxCell id="_kBkWf4S2Q3xh-xKyiKY-83" value="" style="html=1;shadow=0;dashed=0;align=center;verticalAlign=middle;shape=mxgraph.arrows2.arrow;dy=0.6;dx=40;notch=0;strokeColor=none;fillColor=#000000;" parent="1" vertex="1">
          <mxGeometry x="369" y="813" width="90" height="40" as="geometry" />
        </mxCell>
        <mxCell id="_kBkWf4S2Q3xh-xKyiKY-84" value="HTTP Request" style="text;html=1;align=center;verticalAlign=middle;resizable=0;points=[];autosize=1;strokeColor=none;fillColor=none;" parent="1" vertex="1">
          <mxGeometry x="359" y="783" width="100" height="30" as="geometry" />
        </mxCell>
        <mxCell id="_kBkWf4S2Q3xh-xKyiKY-100" style="edgeStyle=orthogonalEdgeStyle;rounded=0;orthogonalLoop=1;jettySize=auto;html=1;" parent="1" source="_kBkWf4S2Q3xh-xKyiKY-85" target="_kBkWf4S2Q3xh-xKyiKY-86" edge="1">
          <mxGeometry relative="1" as="geometry" />
        </mxCell>
        <mxCell id="_kBkWf4S2Q3xh-xKyiKY-85" value="CORS Middleware" style="rounded=1;html=1;direction=west;aspect=fixed;rotation=270;" parent="1" vertex="1">
          <mxGeometry x="540" y="820" width="120" height="30" as="geometry" />
        </mxCell>
        <mxCell id="_kBkWf4S2Q3xh-xKyiKY-101" style="edgeStyle=orthogonalEdgeStyle;rounded=0;orthogonalLoop=1;jettySize=auto;html=1;entryX=0.5;entryY=0;entryDx=0;entryDy=0;" parent="1" source="_kBkWf4S2Q3xh-xKyiKY-86" target="_kBkWf4S2Q3xh-xKyiKY-87" edge="1">
          <mxGeometry relative="1" as="geometry" />
        </mxCell>
        <mxCell id="_kBkWf4S2Q3xh-xKyiKY-86" value="CSRF Middleware" style="rounded=1;whiteSpace=wrap;html=1;rotation=270;" parent="1" vertex="1">
          <mxGeometry x="590" y="820" width="120" height="30" as="geometry" />
        </mxCell>
        <mxCell id="_kBkWf4S2Q3xh-xKyiKY-102" style="edgeStyle=orthogonalEdgeStyle;rounded=0;orthogonalLoop=1;jettySize=auto;html=1;entryX=0.5;entryY=0;entryDx=0;entryDy=0;" parent="1" source="_kBkWf4S2Q3xh-xKyiKY-87" target="_kBkWf4S2Q3xh-xKyiKY-88" edge="1">
          <mxGeometry relative="1" as="geometry" />
        </mxCell>
        <mxCell id="_kBkWf4S2Q3xh-xKyiKY-87" value="Auth Middleware" style="rounded=1;whiteSpace=wrap;html=1;rotation=270;" parent="1" vertex="1">
          <mxGeometry x="640" y="820" width="120" height="30" as="geometry" />
        </mxCell>
        <mxCell id="_kBkWf4S2Q3xh-xKyiKY-88" value="Main Task" style="rounded=1;whiteSpace=wrap;html=1;rotation=270;" parent="1" vertex="1">
          <mxGeometry x="690" y="820" width="120" height="30" as="geometry" />
        </mxCell>
        <mxCell id="_kBkWf4S2Q3xh-xKyiKY-103" style="edgeStyle=orthogonalEdgeStyle;rounded=0;orthogonalLoop=1;jettySize=auto;html=1;entryX=0.5;entryY=1;entryDx=0;entryDy=0;" parent="1" source="_kBkWf4S2Q3xh-xKyiKY-90" target="_kBkWf4S2Q3xh-xKyiKY-85" edge="1">
          <mxGeometry relative="1" as="geometry" />
        </mxCell>
        <mxCell id="_kBkWf4S2Q3xh-xKyiKY-90" value="Matched Route" style="text;html=1;align=center;verticalAlign=middle;resizable=0;points=[];autosize=1;strokeColor=none;fillColor=none;rotation=270;fontSize=14;fontStyle=1" parent="1" vertex="1">
          <mxGeometry x="470" y="820" width="120" height="30" as="geometry" />
        </mxCell>
        <mxCell id="_kBkWf4S2Q3xh-xKyiKY-93" value="" style="html=1;shadow=0;align=center;verticalAlign=middle;shape=mxgraph.arrows2.arrow;dy=0.6;dx=40;flipH=1;notch=0;strokeColor=default;fillColor=none;fillStyle=auto;" parent="1" vertex="1">
          <mxGeometry x="360" y="940" width="460" height="20" as="geometry" />
        </mxCell>
        <mxCell id="_kBkWf4S2Q3xh-xKyiKY-94" style="edgeStyle=orthogonalEdgeStyle;rounded=0;orthogonalLoop=1;jettySize=auto;html=1;strokeWidth=5;endArrow=none;endFill=0;" parent="1" source="_kBkWf4S2Q3xh-xKyiKY-85" edge="1">
          <mxGeometry relative="1" as="geometry">
            <mxPoint x="600" y="950" as="targetPoint" />
          </mxGeometry>
        </mxCell>
        <mxCell id="_kBkWf4S2Q3xh-xKyiKY-95" style="edgeStyle=orthogonalEdgeStyle;rounded=0;orthogonalLoop=1;jettySize=auto;html=1;strokeWidth=5;endArrow=none;endFill=0;exitX=0;exitY=0.5;exitDx=0;exitDy=0;" parent="1" source="_kBkWf4S2Q3xh-xKyiKY-86" edge="1">
          <mxGeometry relative="1" as="geometry">
            <mxPoint x="610" y="905" as="sourcePoint" />
            <mxPoint x="650" y="950" as="targetPoint" />
            <Array as="points">
              <mxPoint x="650" y="948" />
            </Array>
          </mxGeometry>
        </mxCell>
        <mxCell id="_kBkWf4S2Q3xh-xKyiKY-96" value="HTTP Response" style="text;html=1;align=center;verticalAlign=middle;resizable=0;points=[];autosize=1;strokeColor=none;fillColor=none;" parent="1" vertex="1">
          <mxGeometry x="359" y="900" width="110" height="30" as="geometry" />
        </mxCell>
        <mxCell id="_kBkWf4S2Q3xh-xKyiKY-98" style="edgeStyle=orthogonalEdgeStyle;rounded=0;orthogonalLoop=1;jettySize=auto;html=1;strokeWidth=5;endArrow=none;endFill=0;" parent="1" source="_kBkWf4S2Q3xh-xKyiKY-87" edge="1">
          <mxGeometry relative="1" as="geometry">
            <mxPoint x="700" y="950" as="targetPoint" />
          </mxGeometry>
        </mxCell>
        <mxCell id="_kBkWf4S2Q3xh-xKyiKY-99" style="edgeStyle=orthogonalEdgeStyle;rounded=0;orthogonalLoop=1;jettySize=auto;html=1;endArrow=none;endFill=0;strokeWidth=5;" parent="1" source="_kBkWf4S2Q3xh-xKyiKY-88" edge="1">
          <mxGeometry relative="1" as="geometry">
            <mxPoint x="750" y="950" as="targetPoint" />
          </mxGeometry>
        </mxCell>
        <mxCell id="_kBkWf4S2Q3xh-xKyiKY-108" value="" style="shape=image;aspect=fixed;image=data:image/png,iVBORw0KGgoAAAANSUhEUgAAA1wAAAMxCAMAAADIUUJyAAAACXBIWXMAAAsTAAALEwEAmpwYAAADAFBMVEVHcEzp6u3m5+q1t7vHyMxQwOHp6ut/gYVNv92goqb//vj5+vpNv+HX2Nz////8/P3g4eROv93////8/PxNwt3/+/H///9Rwt1SwuBOv+D//PU1udtSwt7///////3u7vHr7O7///1Mw+FQv+FNwuD///9Swt5RwN3///pOv93///w7t9pRv+FOv+FNv9///vf////m5+j///9Pwd1DvdxNv9////9Ov91Ov9////1Kwt////xJvt7///////////9NwuAyt9pSwt1Fvt1Fvd3///9Aut47udxNwN3///9MwN3///////78/P3//fP//vn///9Cu91Bu9pRwt1CvN1Nv91LwOH///9Mv95Rv91Vw99RwOFMv946uNpNv91SwuBMweE8udxOv90+uttNwuBQv+FSwt43uN5Sw91Ov945t9k7uNpRv91MweBTwuD///5Kwd5Ow95Qv+FIvd/k5eed2+oztthFvNhOv95CvNtBu+BPw+FHvd04uN1Kv97///7///9Qw91zzOZxzegss9hIwOBKwOAytdkyttpKwN5Iwt234Osyttk8udg/utvw8fRFvd1PwN5Nv93///5axOA+u9xAu91nx+H///5Pv90yttxHvd9Uwt8+ut////9KwN05udtMw+FOv+FEvN0wtthIwN5NwuD///54zeWo3epNwOFJweBtyuRhxeKF0eiu3+xFvN9IwN5SwuBcxd+U1+lRwt1Qv95Kv95Pwd49u9xJweFSwuBuyuWM1ug9utp6zeZ1zOVNwt5Ivd6I1Od8z+d9z+a34uxZw+DC5/H///9UwuFBvN5Pw+FKwN5Nv95Qv+FEu91Rwd7D5Ow+vdyx4Op3zOaW2elQvuBBvN44udo7udpCvd5mx+JFvd06udtPwd6e2ug7uNqy4OpNwt9Dv912zOZAu9////9Rw+FOwN59zuWE0OVMwt3////R6vBox+Ewr9iT1+lJvN3///+L0+ggstCl3+yZ3Oim3extyuOv3+tRwuBPwuBRwt5Pwt5RweBEl1bmAAAA+3RSTlMADAoEBeEcAfsCHBPxBy8VCfoyEPYbWPv6+Bim+lYjDw1C4uv5UabtIf0mV/fp5B9TGkrQtM1P9NYszijNRC5M82Huq6dXcWvgOLtIOhQZHTS5YP2w7uI13eSf47lj+fLKgemx6dHyfdf4Wl70wa5A58X44RiMbnHsY3XbonauPkbmnqdXx9trXsffpmZyaBK8tL4rnKZ8mzzlcdqi4VrhetLvtlul6ymRitrKk5KOjoHF9JiL8N3YnKjT+JiMbpaa87GSjJuLpIxf48LK66fciKiFxoammMPNh5PVo52hq4ZOmvfgo9pq35PFhuV7jW44pzuT3CVxYc3dujMPZ9cAACAASURBVHja7N37U1NnGgdwSSJJyA1CIOGSCyRIQAIYQrgFIhJDQBoEkXtMAaEIRKjloqCglAoytlG8gJdxwUEFYREHLKPjrbp1XNd1drrutjvb6kxrd2Zn9j84Odk9J1RXexGIJIJ5Pj/or75nnu95nvN6zpsVKwAAAAAAAAAAAAAAAAAAAAAAAAAAAAAAAAAAAAAAAAAAAAAAAAAAAAAAAAAAAAAAAAAAAAAAAAAAAAAAAAAAAAAAAAAAAAAAAAAAAAAAAAAAXBSVTKZiyGTyCipcDbA4RfVzWJG52AUgkghCM6txzaxGFosmJDBIVMgYeJOyIhFoa9a4u7t7POeOVReLJRQxSESqS1wAN/Ma9yjBkYJ6uTIkms+PDglRqvd2ZKQkST1YNBEDEgbsQHKjNWYLmEFKvu96X9+u1bguX/766Gj13gE2VluNLKEnkfxO31j02YKUeiX/TGr68dHvb3f+iOnsvH195C+D2oM9fHXQxiQPGoEE+QILShaBFsVMVvINLfe///HjgIBj51bhzh0LCHjy7fWRyVastpRBBReiGmlu715xkV/cWFbntjR1BlxtLzV9889Thc8+evascP+p+Mr3TaWH055cb2o18IPYUhaBRIaSAfMrLcJ7UmbymU/vdz5qz/zmX8/yV75EpyucqTzQdzjt2O0bg5+dUXYwpXqz2ztUXUSSiBaF96vUlhtHNdszVTO64CJZqJETIeFhJNsiOHX0UFnDg94ZVd+d75pahpOZUhoB2heYexwi0LBk1Winn+SoTumKtlbtCKS8gifh1J0V/+eBbibRpLja/7ilVlnPFPgLGe9CeVEZQr2AHbRee7/zanumaj92AYw7eJQwrgVBUdRisVixvxEEQZFNFAnHKD5xUVWqadLWJCfoRRAv8PriEukTsGRN7C5NLJRVRfDCENSK/Mx/8T/w2lob2qCbGStNm3rc0iPPSPIxE4jLPllJWfLa1hu7n99YfvUC4CyzF4ISUSXuTSzdfSldnQLxAq+PVoo6/dKq0sTPZUa/TdZfLasXtYVHjMehi1fGj5VqRgYN0R0JHt6e1OWcrAylYXBckxm7v5z+27l6lZXrZ5QVqiomuuUpehgOwW8NhD4p8u5LFapCPFnIfOAZ42IBk+mGTHeuP04PGUjSL8v5kEhgCQrkqYPjeaZrOnFVhJdt+JuvTX70ksS8kW51gr8nxAv8EsmcJE//e0VMCd2WLMt8K8sWMEndzsiZsYqjZanqDAFrmY2HZIYwOyW5Z/BWmik+eGedhGtFFgS7AmggHq+Jg0ECIRFKCfyibRXU3suLiaQHogtI1ksonHUnqr9OGx/sSU7JFjKWzfYh1Y0VnhHSPKrpG8rfGcdD7GJB0R/owQ81k6vZMBuCn1WYd7i8pfiTfCxaqAWxF4UTGnytTzPaHJIRzloeNYbv4OxNPT6liO09X4cly2L36lF0y7q2vqmbGwQiaF7gpZGQxq6ZVsSHbnuTaNnw6s73xiqmsPaVoBeRln7X0qfI0y89NVUX0f24b5CsWVxOeWXeV/wEb+hd4P8jYYah/3L+Wi/kTWHlyfWjn4g3aUa75exs76W8uUEmiXyY8u67FSrdTg4FWRQUeu+fbtUyzZAuMNu2hOEbtLtjZduQxUKJE/eO5U2cDMmQmpdqvIieLOlGdffv8R0cCbJ4OA0H+nexaTAZArxvmZl/bFJUh/Ksi1hiXL/Q4BjF1J6aDgFtKcaL6vleeH1N678VMQ/wx8xFXDkikcUeNRSwSFBZgEpj5375V3wktCCLSmLcF59ZfHx4CcaLzKCF1+d+VZw5FEkPtKKLu3CUJ078Lj3LnwG1Bdli77qtEm9DHIBSJ4vvW4LxYpgFHbWTpy/vl30RiC5ytPD/xqBsjtl9cwDSBTMhe9eXqp2BVsQhwuJk8aaf4rVU/uOLJIzKGj5ebGoTc7yQRY/W7F0ldOjRyQ5Il2sjmpm5t8f+zLNYEAfx4ogv4vEaEJiXRK0RRR5s/mCx6eJ5DhdxmLB18Y9ODrBgV8OV+5bbhdrxMVmg47L1Il6Tw1lRQtLbX7APU3lyKqca71qOFHZl6Fx6AQ125F0XQRDddLlcglocWmh4vLBnr0E+2+PtfpRBJeiZ6uYRxVBDnGOjZetdMcUGtjf0LlfF8NhbdijSD3E8L46sOmfqpJqpd3t78SKZkzY031XERBopTlgyZXNsf88FEVSZiw6FrIHWOzoO4hRedQ1DionuDRdYb2njkOrmUVB7rwKLFs85K+bJPhwJkcKmhmtmy5tpOF1tRJyFYoxMzBs11Au838KjF9FNn6LWFn+Sb+RZrBZnLNdi9YvMKQvyh8HQFXkKVo/HbvZCnOeHs7oDq453Ffg4/YV5Eu2IvPkW/may1WJx2nrj2tJusuElXhdE9E+e7GvgOTFbCIr6hbb19WvlR5w7G1JF2VmG+xUxJ9Y681aCOVvZPxxOgFpzvaGQ3Zz2OWd+7zxZUcQrDMe1vOGNnxtXjj16HayXOvGbJwYrQd16+kA+PdDefzW+/ldOwPJC5vU64hbZ5ekNehgMXW8o7Doac3Z+u8q8iKqt+x48iCzaJxOvM8b58bDislrtfvTKf6j5YD3bWbMhUSStPzihqN68w743ndDZ9RcFr1yZ/5HN71YG4wdDUZA53+9AI3R52o0wGLpa4/JPLusrp8z17TrC9TNuLdKdUmVuf/q0ffvhw30fxl67qAveJ7Ydu4bYdSCAJLTt0FTz3nBnbGxQGSwm/4NV75csfCK0rYyyo+qn9WuOBXz7sc3fAmxHGpZsnfPNRBSlV/Z3CWDH0LUImd34UDjHI1LgF+LCxMz2q503tLk1tbmphvQ9Zf8Y7zymaT+UaDsvc2FH2bzywe5oT4HjT5ugiqRB3eOH2jZL7EjWJuzGUnJRha+/qSW3i+/7HN83teVeZ1pmZeScpyJQyvsm61nQulwJKSpkPPbKXJt79MjKnHPT2lS+MogpiJIKBOFH2BlBcmV0167Wpk7N9szZ4w3t+mBX93WxVp5kdmzzwttWmSZxXxzXnmTJsBtL3tGmltn1Z3u4v2A7Rr629W4Ffp7PHN9OtmkMR9yg4lwH2Zy1J+cE77X33C1VJYkVd/f4JmN11UgjEIlEEonhKRLSWI0+UeFs/DcKPv0DfjBv+VnOloU/yUScj1dM1zp0V54qnG1bV3gL7a2zycp5Mt2SastVI/5TJi/DfwBFwFZ3X8Li9fov4bjrHk7I9dC6XGk3Y7i4uu618xxHNqRoalazo2x19UoyyVT8twr02O07uUbb9D/2rv2pqfyKTx4duCQkkBAJDGIgQViWECYvAhgegeWhQMgKgRLelBV5FOwUJBBcnVkg7ABxIWuAMg7viICLs2h3dBUsq651d9ixndJOd2e20z+DBJsrdmpbvsn3QpIfLvf8rObGnHPPOZ/zOZ9j0Cz3T6iC3sMME6Rr+xzJy0rzVEdCLUhNcKSt9iAsujP7bSYaWQsdwzcdL5bC//v+/w5dKipuM7Albex66OQDXgu0xQOpPMLnjotRCtrWWoXOwiGQXjZqyU5jcEjAug19faPHUE5k/9ksHVS0o+pJ2OxitEJ6JyPfzyPJCyGpx4duXd++h2WSZ3vbZr6NLJGL21tv1L+zy5O7nK3s2GdlROo6Rka2fjjVE+RslTZacWXt/SIOydWIhkpmilLbTubUfjUnK1ts8d3FpEYRmK4bLO/2SOdFNVnFvYaaa0HBWAZze2GONrPC0DH5NrIgQtgvT/902Vl02QWR9QOpxCT5mBhSEPHqbomTPMPlSwyTV+E4gD5Uskk9Nn4SVaxVTNAxrq8IShql6/NFhW5WWEfInHzjN9LGaMFrTKI6dJ2keHV4HjKy9qOYxqi0/NVpdNGTt4jUdVzMP7b5dJkTGN6XLysfyoOHGhCKI75SlfO9X0qTtffigrElL+3gV4+V4W5d9KLsywfrMIGEVS2LZcv1W51pjJgCMoZUiphYL/7iLLrsYbp6ous6LsbOv9DKB/tdoEpm1hdhlAajkJkxpfLOjuLlMn5iFRZpit90zThK0NQC95WG/qGlTUtSRVcIbEXo+HO+Le2K0aylHDGjkITxSRA244VlueshmB5PlxCp65gYVZ1gbkwET47TGxdGDiFqiVBP+THEI89Otza2p4dh4CBWzd4fvVWZr3bTGiVCEkXkbO5on8BSMhyPyq2+9qDCfMN4uPuQCJtV+TS5C/h59rB4InUdE+OxJjXtVeABlFbanX84TgGFVDimNNaaNQ3x1VjkAIPaZYZecYpbVGopJmvUdJZEGAcPrTysnmiY+7L3E/T20aG+N2Ji6Msb08EYJF3yRRqRuo4DnMERb0nAK5K+wtYlsd9hazRHdRg7njC5KpXosKhtCqJRXKM0NMANJSHLuK7puecLraJblT7RIF1FlbcPL2yP0PK6pdqQXSddV04SARji3wKSBoojwZyFWclms/UIfuDjzxYVySdXi5N1GM4RvcU1jrqIgvAcJaGlLx4eyQgOqlPMrU7KWWo29QiphVoo/rYPWBg6uq7lbyOYPoTz4T1xmdp+Xr4HdPqg7aMvz1J5foy0gdVi18S7d3GNxYbM2qgk01Gii8K2ym9kSRZhJXfs9pCSnlFzr5zld1TVN5I140dFOnheXvb8pohQj8c9nCE6YeiPswG3+0bXlEeXfaCQOKniTkd4Ydj9rZrd1twxso5wwMCfyWrqQEtC6CkbfV92QH30zU0ftDDUAaP6vFAzzCLqQrwbiTGpqTsPomZUP7C8Hx7gho9BmUHinNXPsNzTC5oYNI+MHxY1RPlOI5t34YdbvtU6mfsEc/z90h7VqIKBkIZsSVlAeB/OrUDZkVwNoOzucSekw+5anEXD6x/dP/VFwteGgkXJQq849lAPgPBixd2nJdBHxvb1BgauWgvcJOdBHhvK2gaO5kPKDE0xRF2I86owpslQFgLqu6slt+R+bnMBhOdXakSXMp7ArqT4qhTS9SbWIQbKiCn1xJJUoYI8Mma/iG5DT6alhpLdpXCBMCPWdhZBVXBgXUU2g1jrwreRGdkVfEBVuMeNl3YyeO4MZZNV3LklnRHCKo8Gp2t3NkbyOFi5htQCVvPGS206JE3Xl66tOV17ksVxp/6vf6wRTIe207/7QUkj8EJcY4XMqx0SQFVos1VLVtM4btUqenP4oNs8un3vn3BqAPa4OtlUtjKGhOkxAgrzKi3L7XCD49eoykD9euXHblagQmhta5e6gN+rh6gL8V4Vhs9nfQqgitvD4os73V66UHnq0vm1TNlEC5QcgH2PW6K4UpuQhKHxQkgxyuwpmVAANzgWqNCKUJzkdu1E/5SMrNwQO1EXHtuq8HIFkLP7pGHVEyQdKjtcOXRLoyiBGj/ZdgPp96/faYZvvBC2NepC5kwJFyq0AtN1NVm1HxR5QByHwry6dGYWIJZtp8seRRAnhfBcFdIiOs58BOj5g/kVwx55tyIBoalR01OD2o+qYDH5u0/1eZBkKAqN0dShuT8Lc9PZthvCb5zzmCYpKSmnXhcGCK64fsMHakIfFL9GUSf8dDsOjBbPe6groPBE4xnr9dDARohQVv44QgTDUKcyS/Ubd+MT4YRnWuJrpnrTkjykpo0Upq3MtICkVa9JB8aIOTJ+LcCaUzxRBRogJ3d4bs7pT7OKsy2j92erYBojO7dkJvOGPOWUyxgI4IyPlNcI4QhPISUKzTcZ+WqPneDjFXWfXQRV3apLteNswgdxa6fya3eiwQydSYbn3qwUEqe0aS2zAWoXxLZbRe/RrN9kmJyHAcITKYefS/gCO2S3NTUdNUbzHGZHDZ9f+BQ0RUxUrIhDCTAety0XU7zyIBFYFS54lluKAhuXLTtaOLphcKLu5YrR+dImwouV115RREORCVG5jjuVH4tInux7mGD+i42bm2kMJ8B4vBo15ubnuQInVSHNs7EdUFja/KoeFjaMq6uxOJUbQNiME480PXTXwWqz7QZNfOfotsYKPKvbjs7ohQfPHGzB/IrLLAKMx6uRk7I1gJ/eURVWXGZ4ut9GlWOGf+yDuopgtwuEsvKRcQ4INERMjOatl1ooKOOhquf6Skae2tMHz52xy3bpyz+30QgvxKmZxl/9iQ5ArL3DLEXInLzmZ+iFR5iBMpcvWZhUxhzMUUJoLP3GIBwrI0goyboQlUrzfFG2z4sGPMXvN+XEsj9ejXlu6+8gMNyjWOG773aTVTxc3heZ7noutS9OWhuVchBbg+KILUsNBCvDthtYndtqyYmI4XnBscmMy2eFIDlILdF04RfP8DtpKAPd0vnV2WyGV6YwjuRVanwkbYyGYVQE0rc16zcP4EKh4y2z7Pswl/+GfY/bpfjDD02sUK9cyaKEf5gZeTDAYjs/UUEoaeAWz3D88H8EIGtV8ZnN3nqrUk0p4mGDTAh1MytR93KjmfW/kHxAYV5OuWyRa3Od/eKEsqnhc7Fs75AjfArlX/8OUKraVJdq804RfohTPONxhTAYBMSXJ3itH0A7L/1mX3wLDGUppG55U//fAy+ELIrINkj4LmPLZgtuidzZ0OdzArz13Whtz87QAfm0ZWblKnEID592Ku/CJRXAHVsatpRe/N2pNEbzFxpFF3fPdW0oEC5b9Kx3OK8+pHDxdCY63nIVmntc1e25jiZWgfcOp5IcTdci4Etd7DdEEYgGPlsu2rmVByDmW1frdCnPmw/Dtsp7n8uEca5zlz3se5m58j8seYRnTfjbXM+sy4tgtt2LQsnzaXmKyYsOTQU3Xbu+kZnzMQR3F5fBVRhl7r94sC8HXiseSvHqXWyErB7Xb+xEtgS7ngBzF2vMQ6Wh1LdhmXRi/Xqu67+36ygJ71pGPhaREa/+LydY+gHc6MD2z0ZiievjeDSK6JOsXwBOwXFzP/f6PsQbJbS52ypfiOjiSwyP98fJiInxouNlfJCrjGdDBTnm1o0spne9GaEpHyU/AdSF/NFeFo/wRByaf6z+1798DzTf/Fr+W2+TShFTinz6tMw1pR0deM38i71zj2kqy+P4QEG4FGi5QClKh1aqPKSWCi3IQ0bejSCPWUQRWSDrs/gYFyMVxJEBR5mxlQEElTiKgmQxus46CqLCrkuyiKi7jAzG3TGZh5Ns2D8mm+wf217c3jqJZodzW1B7Drfn97cm3N7zueec3+/7+/46jyaEOLpwuGTezTErSsdUQJCy80xinLetj2GBBWe2BwPQdy95fABrNFiZLFyRViQDl5Altn/rhFh+QEe7T1thGZoUU7NZFcflkdrBHmsa+v1lJYXpbdkONs8f8C/ooiYBGjOfLa2JOF3IxvDOPF6fBNgZKrcft2k+4+XRMEdzK/eBFW3EXu7Xcq8OH5DohuKtKB0bopdeGdDm8CBccDjy4T5QRkN67RuRL4aLhfkMHjhZ+P5klO4CH8pFUP+zAYY15eSx8X+V/hBfaam8ZTR4dTzIvXWY5MLIzBGKRc0g7a7rwpQ6OYaLfeGiULX+zn/6Zel6t+80JN8vjths3TRq+aQ3FS6b+O8/b1T2WyodU8JKWpLY5A1lGbvwlt15Ajjohq5/mofVhWzcuXwjWjIAG4R0bbtIAeuLyl+t1g6WlFnMUVBUsfvoaLSlEyRFSYNiC9Nso9Od/vj9t/ovAcWByUZdHM7FsxAueV0K4C7w3OfJTYgd6E5Z5EraLtfyxWvqueW+SCp8V0mzTr2aD+txHJennwOpzCo/20eK8VpkXXi8q605CGhSTKr/CqZ3CqH3FOyJ2hLcb/0gZXCUO2/vziOz4B2+OCGa5PXTlzyoP8Z2S3h4LbIuxOS+Y0GA04qs6HYTH+LfRniHrUqrjrWsxLWiR6Wq6OG2FXqIWQPCLRWULqTCD9WqKnBGg3XBlfxlAuAHarpna+Bq3ugmL22vsvL16DKrMuhyWCDM9UsoRO0ZgLFJARkLUudhuFh35VKovn0WPgXMELtBfuVOXFI7FF8ZMPUabBlf+ALYVkw43S9de2o36JfuO52N4WIfXKJH3wO+p67OLSLYcJkuXuSG1omgra/FlrIwPdOXD/lJuJLL8ZsowBkh+TCedcI+uOYJPvotqBXCeYEA/mHFRNfw+Jg1SUNwa0qvtoAHfe3SPhq/AXla12zAungWwpX66HNX0E1gMbwy16tpDc/hy7NPGkpl8UNaOKqM/zvhvpu3Y50XMHWEbTTYCNcC5+nhmtp9qlaFAFzvOAWGLds726Sh2Q6ARGFID5G95D5IXVgGScSJ4+3CJQLBRW2K/7MEiU4Is7lG8yyShkaDz+TYeJ6nHoVkAeFW1wn4qQ0dJQ/xNAb2wZUtaAF9Tm1mq2bF5sX1nA1dfuVrRq6eXoEEW7SFXQsIrvIbd7BHDfvgkp8HeTt4rduBjpyU0JPa1pnSFdpRde6qaHkgGquWUEQsAKk4fU7dTOThUScsC06I5undUEDx5f4SdIovdEp+KH5GdLkmbUw+kxgmRmTRmuCqbhACXMMP1S5SYLhYFuYUFgAu58VL3NA5qtB716D1dNEeABs70yRyB1QewUWxqHYtYGSYtOEHDBfrwiNO1wjoPkcMLvPeNT5hNV39+ZHVH2euRqd65FKhqj0E6KARZixAoeqB442G44q9RbLpy7OowfWinDxR2W8VXMWVkYU6NQ8l2QMv8eZ1wMALVxNcWFzIthAX/Gd7pWFO7Fx0OZmmK9/PGrg6Ytp1BUixRfA+vLSxHCiGwXCxLgIzS68EG+cIXCa6cn786Zk1EyiLJxv3Z/LQkuvpJQ+V7igrzXC8cbg+AMLVWYcYXO9w5qn+vdGaoZHfPUgZbkJsGGpg2++PJAE10gI3DJc9wYXeC3fKjhh/Em3tzpWFlgE7w8QLFD9kON4qXMgdVQi9+ui5yWJr7lxJMYU6JCSFr/7Wm79OmjNHcBxv4oXPHbgIPflp9Zb3DNZlC2N7tWjRJS7YPHeSRzjsCy660PWP2GAv6/QZwiDlUB6pR+gBHMiToIYuDBeGCy5bXBNbJUH9Vjcgj5YMaJZ7o/ME/Kb0xjI/DBeGCzm4aLaaldY3dRkNUtmRAUEcOilDj7ANNQdDMVwYLtTgMrE106YTSrpr5OqiED4qjzB3dJw47AoujrfnzFtOqPD1uaUJvk7IwHV4x1IMF4YLMbgI8QrNQMnoDJslqanoBzVHM3kcDBcODBcoHMJSu+tl0pkbQLnHdKYXIFJMpo+FGC4MF2Jw8eWJj0cO+lOGGYdXUmShtgCNche+c2G4XoELEY9lJ9+EzUXOPrOyLXTNV/ZqPZGgC2cLMVwvX3ifCIkXzuGpT9ZUlc/ScVfYRZe7xAg8iGNTepEM17nsCC4GMenCzjoUPDQIbo6uOsZ9loa7RmOArP5iahgC5S5xwb5jWP5kX3B9HQya1Pt0GwKTeukCV2FkktcsNy6DkfI/OPI4Uc6H/iTeB77qccdw2U+IC/aDxKShd2FPEDLft/SktlcZ5Po607l8nM+dkayGXe4ieAmXJ8oxXPYTjuTJoi4AXEtrNNB9C4lAcuWQMkjIuDdNWUojllclp6mhl7t4q7594oPhsp/gXwCKSUPX7dgAHS7HsOHxHkvCjC+++M6P6V8Y/TpiqqF3d7nMT2SACzdLsi88wjbsAKSH39/1p0/jIMPl5Ltqz1hQADNb0WWHMjqYZ6CEBkcWakk91KdxqaDnDFK4zd9ugkE14CdrTIc814bIUu+LWrN1imlXmvKfHHn6UayF3c01SDm4koRqbO2iiPjkmZTCBjX2A1eI5ikALmPQZ/tJMVS2uKTOQucxnWkfG/9x/2CJBbqEoz0Dw2EwvxWEQvTT90Ls/mQ/wZGfTwZ4xVNJH5SqA2GuRj2pbb7H2HlsNAorJ8aH1W3aPzBL5s0Q7lnmBvFgSMwTMQ3xxL6FrAsiW9AHGiHkrnwo0UP808Seh1uVjJ3HNFvxQ8OkPsuEIXOTspHauiZqH8yUIdOEXGxnzUq4GIbfRd/ohjk0yjFOcJG5y4Ru5Y8f1JLeHI63FfYa722BmjJkgkva0I4HMbAPLkUqaGgUFX79pgre0Ci+XHV1pIy5y0TYpRzSmk1oCL2n1pIxlFdwZK8W3pRJE1x/XwOAC48QYidcES0NwqlpZyL7r61VQXvjTvN3njm3JpyxPOwapGzW/mzwRHDVaRYSi4b+rnsDmiYxPLhAhwSDz3U8/I59YR4aBTBfFza0R8C6CBDcgtspVeUGinknKnxpTWi5JEYnNa7cgmaqwQRX+caLeGwr++BCc66N6Q6lLTzr7me00GWsy3l5h6LFHPGjjHRR/ktzSxMgqQwJNwFwJnLHkdI2PV6NbDsW8j68eCMaJIvvE8DpOSECm7YNKPOLLfljnGx7JftHBJLawR4LPhum/5SmzoLzUG51nSC4oJcUcbyN0O98DJprE3o3+TwcWTz/3YhLV2TCGTo7Oek984aUXUJLc7vo9CIUuJYsBsDld6Lx4yY+XoxsC/N0AAqo3A2DcYTycFtVeuyEP8V0wJOW/dKTkK4698YybngGr3xlq2Y5jEHJRPaS+4CSYuhBSL80jrcaDp5HQQbmtLiwCcJMYQ6vbf+vGnwsiJ6ODJyOE/8iDULq2s92MI6eFMrqL0XASGqY/Wm8QN09eSEYLtaFeeI4YDVWQrkJcPQ5usVbfj0rYwwOT52WXBVtpJiEvieOQXEKdfTcC5zDcPevGjlOFrIuGPy+DB33HrZ52/z05NCkabXQ1l+cTxe4ppux4LQ64XjueubymM81KEkNruRy/CaAKH5hChJ2JTje8FqW16UsREn/xA+J6K7vYmzr9/vybCFo9pbHC2EHZWTM4UNIahAKVe2p3VOgdi4RbudiIVxugpYMV5D+aVBVYWPdgJNvAp3MYBYJxnTeBm494jjBQA9zptErv8T2Sg1CIXr0eQDW7doVXArRNw1SwJQQ20s0iCx1Ws01Zv9PN7GZyQAAIABJREFUn4yo/Tvngy5NhHi5ZrCE2dFGKLtyRxVi21wNMU+QApAWPpeubY2owOon1oVLxaLaQyD9U0ZLqm1PK7Qyoz3G3YJT2rHHy7LBZNAJ+cKzSX6WlBqS+TZNajAJNLC0kKVwzV81gI5tirhJM6jMZ0xmBMjqu0WMLcUEt+B/7F1rVFNXGh1IsIQQHhLeBBJAAQmGKAQ0CZoAkoACYgVReVYUhCBSGBArKGVYYhUE5OGSAUQtSlnLOg8RW0TwUR+VdnxXsTNrljrjjH9mzfyZFYJzb4gUlHMS0HvbuZz9G01yc3bO2fvb33ci9OUSg3aGXlCS2n4CC2jkZJxE0UIqgrntlCQFlH8a8iXVxGJ5iy7pSWaYemj1EvRd0Z14ehP1HUfXy0LIHHINqSGrO1LTylC0kIJwS2hXAabFWyfmxpE5XA0jRdrqhbBkBp6EP6Tf6dP2guVBLcPktanddmTO1IDUkFG0kKpg1UfUAq4HUG+KLLIgb/0xmMoLoTuD9Ny3ZVA3sfECvZahQ/rNu1EkztSA1JDt02sjULSQiqC5ykoBVWTNZkkfj0kat7ghsvVHO9R66r8G3RSptQyhsfqRUX4bPlODtIMhk1cIqiH74CcEGlqK1ANkRM1o/pFyEWlePLbbdKdC+aBxNDi5xKiJ3dECZapGnZLZ8rqPmYTHDKshu4dVoPQTJckl5DQApmioXRQNHFuSvnW6WdTdm+kOespTBmdu8YJZ6FnoGdO6OLV/q5hL2mOer3ABubJklzwQSPrWnUTlPcBYDmlePMNSWRLQxh+FehCBVwzvFqFHS7focUcc/B4UigTk1JIZZuHAMpfDvmEU0KAmmNsKJSkaoBdPDrnwym9LZgqsNmVvjicKDY8EWnnPK4T6+pjscj/WXkbOKENGDDDDSe7pG4FMGIUAbSzr+NxscpQ2V7y1P7UYWj3W1n2nE2Y36szuD0xPhsmunK4/VZMjuyBOvCZFcnUbEy1EKgL2tfttvEDKXQwsgajwAXSX0WRtWN04vcTSWA7K3B52t5B88cWtpFS7IE68tuJhhBYiJUUX+MCi6Uj9JxnRAZplWfsxd6jgcvE7g+kjq+l9MmZCBLxwNoLJrlOkTJCHdHORXatHIJFcEKnN7nkhIr4UxLCZGzG/CxoGxFNPWzu5092UnXhbVm/IApsamOzCJ8gT3zmpz4lHrZIUJRfuxQMbjRpImK7G7cy+uBgWY1dbyxcf2mFhM+13YiUQ9UFNDY1meWbLDgvCL+5i2HJOICd+NpIL/KPqkzgoW0C0V80SLMNtPVjvcErmpPmf0+Ht3n54zN56beAVX8JlFyPGF3T2Vrso5iMnnqqAyAG138YVRKcLDRBcbMXgruYZWeb4BQ3wBjG8NP2XRUQPrIG4RsiJpzJgRpa8Km0lsTNqMMFVrUdweebVpe2eoeugt7UZl10fFSmZtJ/rGWs2S07zkBNPUcCaIYLOd0cR2yNrJNYnuJK9vj3p62o1008XjQ/l8ITJrpTg9bIlXEKfMex0QG7vAQK5oguiBxzPPvEnNF3Iill0SgUXXObn1yfNwMwYNzW8/S9XQcdJWa/9Tfc8QkdqMAowXcsfRU787CMXzMlyD8sWEHhiYlg2HwiACq5X2jGD79CRzzCq33soA1ZLVnsePpjGcyLyY5pxhtrAj9gXOfGUJRfELlzzsrZabEXcS3PnVn8TvFwDE1x7Dr7jrT+0mlh9TZjs70IvJNgQt8Jp3tmge93VLooTpLUeIJAOsCAYUXupGpXEyRFjV7v+QDlsUzH9PPXku452pznxtkBll1rdkXHuuJi4CBKrs7o23R6ZhbMQMLswJ+MScYOJ6La7b99Mhwkue3nGob31E+Q+A4oPpvZe6ALRpTMesNtPkj8/U0hgDEo7qASZhbMRdHCnv9px3XrCHA1GjbLoozY25E7xVwPBf76gXMXScYduzBQK5wAhFAqdmG5crpubDZNpybThGluxWCw6nUGzCUkqXwy9jjw/PqBkJVGz1hhMaaFkAJmFs1J0xXB6Qc3IyQtLs4nysozF2cPB8OtMNm1/cXyuwNbWDEeMqwVPxLELt5sanHCOKGqbMjZWqVxZxpPymucu6ewUi129BXPmWFR8r3qZBZ2RndkiW0JQDApTtU2VfBTbnZXkKhA1gYxiAn9YabaLCqv0TABNTz2363o4p8JXi7iia3/97DX+9embuPes/Ou7jY3t7Wlffn/q9NXbJRER1RH7k463hnNaV7xQLfwdfID8t93+BPnxdEGrs4nLCCBZGFaBkoWUdjSAk4kwSXDtfUsC3RlvlbIkID4funGp1/73wYe9zg0n5uMYyo18+Pzpb3X4+G08PfJYckalerC96oulDx/eOViLIze019m5N7TuP7fg95d7Hj64RWprRcOE2/te61b1Ecderpn61T3XfTMvGo2ynpWOxns0sybpJjMz1+bqlszlcG6pk4PS9/zdRAf3xE2b811MwXBwZKfIi4u95HLzAfMUuYdfenpeXuIGd3cTdxM/L7ae12J/V7qLJ44RCi0ta7hWdBrQH5m+n6FsBPkZr9g9/YucELko7mhYE1WGmcQpnW6y41RklzwLhDf2j/mFPj+Rx1qtGdXz5yMj2gqCRqN+NaK2X4PBR/sfJNuPjIzo+bcd54cb99v5+y/bXZZQ7yrAacZ0Y9Hwt/+ufsYfgH6GvOrLlTZoCVJYdJnZNQCut3mHVr4JpJrAKVw3Pfs0rCEsty64+Cs1sRiZ1l9by7tUg70/Dn99Mm1XRNxxjr9oEQ9jWcwcoRPTiD5zjuF+RhcfdPH0xhUhyCykMD4QzhuuBHhpM3Cz3iaVllP37w07Y5zCddPH8dgZzyPIepqrn2jYD3jtcVes68lIravNDWtoKO8+3R4haw3niLZZuMaYCYVMYy3Hpkkyuvd10NxVtemN0L3ILKT0zmUpLczIAY5POWCwXTjOqomkunIP36ciJc+fxk/UTdbqXyKsTR082TkdxYcTb5jsq3wsUdWW9jo/K79WFFeBcYyHc2ycZAZL2iUrVoPG8WdVfuKPwk+UBjRBENhtiF2oo9UYq8LtZNjp7978MVLti5/EKb266WfGq9dSD/dHvPwS3U32PZZEaneywqI4X1+7MZIZTrGa5tt35MAETPduJiIXlcES7w/IA2wl+TufiKIZeg+BBbrNaoxVzqX46W8CqX75nAJNX8NZlp+yCeOY4gjGsaETQ/fuXyuS6ShmawDFLKMuPQbkhkfk2xtXuqEFSGXQBHbAgfGYKpABVIFut9IpK4xWV4Z1rPq/J9UbBQkNdl40dcnfjHMsvu25JLLUuQU/K/pO2sVAdhGnZZ0j0M+IqEd+BrUdjYJlv+9hQ0SX0ZS80u1W4Ziy6mvqLcVOgG2vWUUNUk3JMR3JtPtY2Iny0+O7WAHOsLcr0HRXWegNoBeL/AzKA89opABF1+VJomsir7S7lVZZVSrGaEVJVk1Fsp8oNraLybQMMxNaurFok4rCxiErNnoA/Ax+1znomRuBAuDGltR5gALjO398vQAm8+p0+ZB2t9IqK76DzyygFYxivdpNbJ40QSwosHSzGmeYW/MPVQA/QzOw+LIU+RlUdzQWJA0uBJdi8GD8G7zCT4FHFFQ+BE6XYlqGNQwXtu+3E0kTOrFTohF2SvwVw2lZdzAbUNArrmuP5aLlR/FKlxnnSSUfLLoSCmqidby62jTOq9m3W0Eo5uPAxxgWX5mhGuxt6muvbhWV4VZHDVOcFGri8Grq6OSe2moxCy0/ipOLKe1bunkUNH7pfitPKoqbuF8hXgE2sawcrzxFz1JVQO/Fu0VJrSJp2bK0gx6AQL6DImyrAN2GTHUYgUWX5quXkY/S+g59iHhlYMrDgb8cZ9gXkaVDV66l/fuzHtB0HHZPkygakYvqoC+QlR72AQTNgxSpKknXBsQrQ6HB9jAHtjl2SjwiuXPn+S1Q1CtlaR/PEi0+yp8LY8IbzjqC1gq/Qz7AN0W8mn5SMSvHw2MAGKO8pSpJQH4G9WEZ1X00CPhDrIGNFkTQs4uB4JM4uH8B8jNmQaVLuWW7HFGBVDiu+8QfDdudDY5GyK+BfREIxCDnfN/uVajFn/J+hlGB8m/HFiJykYqOqh94BShZSG1mGTMFIbzrj/7hhdY7qfhj6qNwC1sbYzo6GlLTJaQbr/K2kLYeuPo/9s4sqok0i+OTAC2QjbCH1hAggYBJwABJWBIEQggiYZAIUcIiEWw2xekRZxRkaWQ7IAoiohylg8oqrSOLg7jQcvC0bXc7jstoj8uLx3M8zts89BwCTlVYpU0BUqGCp74XHuqlUtSv7v/+v/vd++8fpcOr0zCYtFtWoecyrHh0v5yxR8Qk0QgoX5+dGMTJqERhpqT355jA07kGydbUMQ9dzdToGRksYGUAi5VBt5932d3dPdZuTDOm3UIwPPbs1Iq98qtPb5yLjPeQ0SxQvj4rMUh04m2R9OQr/avYeBbZEFGaOqCoY52tUpSVnR4YGCgDV2e/9IOrzs53Odty2S5uIep0vjWFMsOeu7YaCflIp7EbDuEI7inFt1uCgzYHmOOwxqi9serXGi1ZoBgskW/y72cnU2INQFSR56MU9/XXVdqj9a4z63zDl3PWo9clJSVDjc9v3QL+3HrxYs6lhvP/cH358tDuY8q6J3srfQcHyk4rpJPwOSc0uSXzrYFIl4T0T34/ZmqtTq1Kywkd2lXtVSjyJGFRg2N151nTZN2JCSxL2AmQNTaGeJMzMp+9Le7sDEpaiFy/+eZ1yXWwKczMKv1w9IIXg8HjBQXxJpfXunWzF0vXr8/MykqsDi9o2XHpafvQrZLXrlroXH9+2frjv34dGOisMknlG0C8jqVnp5oInnx//KHEVkj0xGHQasPVm2jJ/Jy0ZPkr2Ol/0h7iQr59IDnkqzq5+FHJiGTLHIjCbKfbmc2ueUODNvxZu8C/G+bOFwKnongyqdQAP8v4zSedingMBmMdCB8A3ZYjD0ZHh4aeN//9aKfaDukfr+0RbM93ayrrimkerTkjJJrTCKg8XI2JVhTTMih8kiwgZBlMseBGQWjLDx+gNI3PdCNOXePu5q75V42MjQlYmqOjIw5HAtnTNqk3N2fWRzhFcoN4Xj/senkw2xB+PthrGxSIisCYO6M3ePFUB0eUr1WWaIGue2bNRVWglqwV8ycWll4Zzj4FTh4fRQkmKWw2hz1jC0cciQSEOg9hS2sCfeGw6r5Cu+uxlGR2VaBP94EsbjyVREPtjVWVaGVKRvKVaXfx+k6zPuhF5tz00/AEpF9CdjvcwzUnrDFbOTdaC5tFdNBCI8LGJ4ZTzya826m2puu9TbBGyxeeM1gnbj+QVQSkX1jUnl8FQUubaJ3al6/073cZXjuuP7LmtG0xkZZpu2iKd7/9L38cWhRurwiwQODBYNuytgsg5xhN8P/31if02KaUXxVSsBMP3tp+BjGNXvgav5Z9QZpWJ+44Zbun3sYR3V429KAFJFrl+85PJlp2Y+MaPWMlLfMFqWpoHJFsySw9U3P1t5/GoUWhJL4WiZfIrDZ+v08c1DzXia2/Pf9PdWLN/cevtS3vuwTSu8U71XyKqXusfrbKgPTLjp59oco3ZvvDcF4ElYS6hwZLljHNRgTIwXY9JlrzmoztFjdsB12/0kl/ItqPd79SPQ4pCq9zbZDZ3zG24fYedoNSe+quZ2GWAcTCIEZYWGmW5PqthtBDmyoF/SZ337kMs+yBdOy9Xqo3KPjUzi5V+4ksoZ85Wh1loO4gNZ5X/h2QaCXoI9H6PVbgsIIpqsxtNuAwRmaYgHON3vyFRCFSPZ2xARXQwnBY0FhRb4WxcgD7djOJe4LWVSTW7Oh+0RB6rM7/FymHHWJNnzI8YBYEZFZfwmCdawfoHpKwaPgyrKBFcLTxE54ruOITqIA/0dJ2E5sSgfOxmh5PAH5vzUhOl+rYELUQlASfGmRE4YwwdIYYzUxm5+xwIgGvNmg2GmNwDuZMD+LJSC/biiMFI8/Fu5WVA1UJLn2AToRfFUzYZ19QdPl0t2QJ62WoOjQgtCxw1AheeEfzpsEmPMyJ1jRX0k5fEKvG67/DavY+aJblof0Q84jJWyt7kBKFU8IQ2jG07g+tFmHmmPpGBIwjaUM008NSyFu/5carmy8OKfd+2+/8zi07w5Q8NgFv+kVRcwR1zaPlXGK0FaoODQMtjKzN6UzBTVWKgp1tCusRjzHTWa6ujtToxkq7CEyvbn+og2Ibv2oObsMg+KiwbQsIwz7fdl70PPrXmBkBjOFk5sz6k9ywYMmO7nzxsZy0MpNil3SWqTYPg+tjBrqHihR5zylGBKoODQEtmswvMvHBnaODnBAWrGoliZW+8+7BGa4WnFFlFHWyJabYXgMlCgs245B8Zcxwmw/4OFN0/2Y6p/VABO6jG7rghrQVKZoq2lzEyDrS0t4ceqjOt9PZBcjDYuE6YAaGL1ZfnLfPFVAdOtDQ6IUwWiJueMehfwJBy35CA2OmNZzKAfIr+SxXsoVGv2HrE+908jU6b8Fua0pPUDSyleAEc25v5dZYDURw3V4BEVzB8RRWJBkzIELIKP3rgZGrocpKgbRJzYLPqNeM05OLBTmuo0e4IhkGxQtZtB6rAs8CQUujgTHT0vCll1XHR/cHz+FqoYQGeG9Tttrp/ijzD7om+tEQfmTYtuBmAUSNIdnlcu9CaSGgEy1oJJmnh6UTD1CJFxtau6R8WB0kU76Lokv1XR6PaINGL+TQKr+t8k5Q02GvIEh9++wNAwBrUVzNWnG6FZfGvvjorkIS0q+KUVThiZgmiBpDSpxKYmm18G2arTEjAIRRRSe5Z049e8u5BvPeF6AOfVU9eUD0QvFCCK2LKm8Ofi381QNJ7x69ifiidgn9VLAeWccFyZBeQbcXE/m2mAQmox0iwI6NJX/buJ5qsdj/gjG2luQZ8SZ/YBjm/WVAHeITvFUXUbyQQks+iRb8JU7kYvnSGsQay4oePLngrruOzvqguJxIM4BHR/OrdoVKDU1T6044kZaSGhK+8Ho8OAx78cb4+Fo8x1t+sRzF63NCC1g7lTUii6W8ssQ8eRVL9xbptdyjk/uziC9j0h5oUxP4DFQvKTc08rTNV9Dh/x9oULxWKVqTfVt0Cspk/xFh1BI+3p6Mm95qCHmK976yjmkYvdKBe+327dP93OxCUnqCzJcQurCivNZUvZxQQfFaYbSwMKA1eZpoY8hf/qYzr+/Pz2Qu+gUzwmm3uCagSh/yLA3l7XAkVot/gSgkoYNFWlaLvlmz2sKn99QQEpu8jGJEFK8VRAsDoJW3PLQ0U+dg+9P23tumq4FhLFspIS66wnbS4NadxySxcy4JHQyl4kBbApkKUcuSPng8c9Gexh+Mo8OudupklZ/6rnhZjYFQvFYKLQc/bnm7apm5FkiWwl+Z3/70+WUdAxk0gC7sWbQuNLKJ7IDcmk1figOn/2VBXd+YhtetYcFvweI9DQygCnN1WTnDJk92y5XLa2mH4rUCaFmQ2iLDe+T+CctBi6wlK+ZFr6S0qOiNuIoCgy50tMxTxUEUFWXEqSRL0Fn6f5JWlhI51LlJ635xuWixRZA44atAXaTauVx+9ia4ZmSqGav78nIv1e1wrsgG7QegB5fLironsUPu64xfO/EpaM3pOnR+H9jVyzPKM7IjMFmHWlmCLiQwvYa8IQIB2eVwL5LF8B8JtTJux2GoULsET8OYaZuv0FX+RKkSV/+RCp5g7f0yJrAsN8Q66dPi1zRej8O5AbVoM1GY0aJFx2decu2S4umfGLUmrvHdOAPT/fI8wX7KGNF+JTtWpy7ctzhdaBRV2HI099r4p9brIbEw0FVQ75MW72nQLAtiIB7idaEDYWoAxqv81nuCYiB+fRJf0+JwNCveHC05hPNLi5EReTWNdQfdKJ8o3MmsPo4g5/vGhzdsnbRkTX50M/MV/2fv2p+azM7wJGAhJiQQEi4pQkIiICaBzQUIEEIIhkQkkTVcGi7hMigqKehUdFEW3FnlMqwgsBQoY+Uid5GOsmVcaquibqdOdVynjNPZjjv+2P4HySfNF3FKgXP4viTTTWe+7w9gwjnnPed5n/d5nxeIC4sx4kLyVNnILFhbty4QjzcDlOY/3YKi9OaQYN0DnAa1dSY1E/j8H9bS0b/iS6Y64utQ25t+2dxsw5hr+NAZXoVXzFpVBtFO6blni9qnevBYdl/Ecs1UL9SRZ12dq145UZbUotjsUZ6nPJfqLi6kcFpnOmB6oqwdeqR+8i8gYf+0PCvUfU7DN+HGrU5QBdmBCic+XlCO+DIqWhIfvDaPO+Iri3XAhVksjvA6GZsim26U9FEJbOiRW5Zs1Jd9Vy0VHy93YTeckdWZmm9+fS1Jn8bu/q/pGmS61m1cSFK0mXQQNoP1IrtLQfa6VeVmdGVfZEGbktuw6DTI9K/y+aAgzZROt/5Hq0zxIQcbFfUhw29/GH8++y9LuM2VToagzCFp9R31ESMxx8EDd2xen6pppKOQFuFCQQuJeMgvTs1/9vSrkHqFcZsxngdwoa9BtSCH0tq9i/ikev8jNMDgVfbAil2xFQsq9u7gi+p8/AGIYfJw81HulpsSHe15qO2luTRVx092SUvvwIYdI81JCgYx5svNZ4sbV1+2KqstOOsCj3EsnFZSUxpz5yODsf3P50GOBiZcSOku0spK3iH/LyWuzRznobuQYte6INrUuLvSGEWFwOtJoMtWR27VfPn5kqjGjPqD2nsaa4oYhYf4seHZgtrx6S5eZDCReblzAhj0/TefVZRk4pSuOd0mLaLi9OrH509tcIM7g5rzpXxwHXlVuRsRQU47ba6BuFKER3tXiWvTtcBlDsOKXQhNevvHXXNFMn0YxBXabHX35yWGHf53Cvp+MXPVN+8+OjNbZQlHcLeQB9WJ5ZrFg0wDUfRyff/jeF3z+bMF4bi7Fb6tm+yU5j/7LkfFjMsDo3PfyPZsnQBcR/4yAX66KIbcpzCjzdDYCi8rcW0CBYbce7/jA387EvaL61r9bj5wEErIbrtgPaGPAiycL4kTr09qqzSXSqOXhMdwO3YJsl70/lqbSxS9XCYJM/ZXauSXk3FzhOFjqMO/Aw7yFAYSbPX9OJLp0ToYLoTXp0j0xmqo1OFiTFkf2UvXFzUJrc0EZ6yZKT/s5mAKS1rtYdGaMkhTnE9AMLuv5aD2sWmuWPQw4j0+8nDdxqoaNc2c1hOKDVeeLfLeI+r5notLYXZ8eLCcVaCTy243TygxzM6I0g9YC0A3r0U+LeHAYtN3r2oBps3wr+qprGd46+ZTqPqmcfE7iLLkzB8kBh84KgTSrTZ78v0VlYEC32MHPJS0vRpxuiTjdtqg6TqWtbnxROaFG7QEp6maRp4PsULx0LUIEmFpqF3T3GtMKopjYBhqHZBWZtoDCl9Boeka7N1B0xaZOAIBpy01XtPFtePdYEyali/B/DRMw8woF1GhzcYHo8JN8JBr6OOdapqunussYJXbcHHziHAypfrVaSYnkIgXPJdqIOfoxD9ltQU4G1zLaeKa8eUT6tYMNheT/wXFoJq/Xwfa0awrr1uoFCjhNmoBJ+OOw+k9XVw7gWJuBtwi2LLL5QAtZQh0GjUWqwSfQOdkmpnstdoGCy4/FMR2wPLbtbsPeHFc4vHCfqVGRSrPL3dE4yMJQ8OzolNlt4cTB+M5mCuMKC7kA1Omq/37jMB988lrgZaKQgs6ZiRsb952CkdZaeWDa/P+DT0nBiG3C4mpLQVXkGumJQZMN4uf4/lStKoH+selJTQBgiv7EopqNJWJCkKwgYPJOPTaNHrhLK5HK9nphNyoYiYEB2A/0QHxajBfWH5Z1gbGhaioECxysNuSZ0fUU96NWMjxE8swf+vklBEIp+F49qdrHgIryL3NRVjlyn4UEiN+MHF4ulpemCXEwRwiSPnYi57Vdr2BqChj+gINR8rmezppeNROQcmiWmv2TJuEzibhusR8OJLH4ELVUseb+m4wDQ8TFSLfNvTcbMnzbrziF6xvlkE4jWP8M5AWarIip7oElHKiqDASR77pExBsZKoaFz5/rssS4uKHk4cqzFplHKHlxbDI3Die1lzRwMITWixR7eH+gXalAr9cmlvU3DsJ2kxWynIiCBeSMmCiQgShSVe8mc3AwmnYbUKdpksBeH/8qLyn6TTQM1M3Oi/B6WzgS2Jn5Ha9zO4oLmDhSQgEsfc/r0zs6ybert3SgOCp/ZWa0VgBntDip/SaB04diWS4UPNw4EINFBdmkEE0/GOIqBAR6kyNzCivX284p4HYluQLKkAV3DfhxjMgnWHjWwf0XNyxzuX0KbvexqzNTuIJr3LaNz3z7UcZAUT8wNMt5unV/Bdj5bhCy2qunBiM7HZpphMUFyJjz9/wdpRAOWn4EgEwuA7w12ZaDR5EKuhAuo+fJ4ECR7lo5R+AWUENAxhPVBAPlD4JdNnt8S4cdgqZM6VUL5p7Z0V4wot1uWP52qCRKCjD0i1O0WdPOsTJOENr0RFa1AAX+xG5RU1AXIgIL176ckdp/AYND6xlHx9dbo/3iDYDnd0TRTX86pOfbXyffJhj5OeZ/suAD5wGkEOwjILo+DzlHbD0ySK918pw6RdSyIy0lvYBs9XxemHOvdYFk9JbzUlTUQRrCFpWUgIvxywXYazVI7bQTaFFcf10nY4BopsgUWkzk4ubhkcixDJPCHYplEAugx3XV8RTJe7bty/E8R0KcU7g28s2cPB42UM5jfGhMIi9NYCOhxa5jolKm5iuWhv4BVIjWybQ8IrFLtvwz5odP3eDTiRegJMUFa+6mT1aEIa1ziHkz7odWqiNn3JmjmYD9/tJOJSdaPgYSK8hKilXuSvY9fMldRvT9K37268N3Fn5YuTnG9/XX6xqPz14MFGCtlVHBbgLPVFOQ2pBcNPx0CJXePGLpDAxAAAgAElEQVSliTjX/39KgCO82hdjOnRZAqxl5dA68fcraiYRXTtTGYqQe/kXaeWY+g8QRLCkOzMy4G5oOXOH4fHLgCQPEezRqNMCt/1WtLc/NhRipmbC7k0GREcJdN6+awML/Zrr1tTfF+t0ez58ut+kH/7lX2/944+vtDda9fEcrq97ABFVH0efxEvHQ4tcNpp8RpnnzrY4wiueVzZjSi8ce4e1N1YgSn/yGZNKRNf21eym//lvfymswwiz39GiKzQv2+vdDi0HxDMmLqcAX6HYtcojwdvyNEUOrLc/KPbKOQnbrbPFNSh4N4bf9j+y1lyNroq1sARh/htfBDqoOVr3zd/n8r9ebWrPZcZR3Urk0Tnk4L4ZJx3flrENGkOLXEFV+cN0NzNO1KeytetOdarYgnHSNRJxQd5fxqQSBa/tsfXpyvcNQizPFoKUHy9JNS20KdOonpj63t1SeSYLJBll1d7dVuryYUsgvf2YmjXgeJDLzlDlnLuUnz47FFt30j/Ublvf5NT0HrEF+YcJWLSqzppezULTKd4Uxx23sY055HYgHV+xsO2qgBe5hFcvhSS4zS1QyByFpHFBNlqFjdmw28PQ6CoiKPmtscX87E9zIiwA244gQv6o7HajRMHxDPUaONX1qASU0vsPyRq3GsxwHUAKTMMjEeLr54tcxv4+5Lw45o85t6vTi0U0YTncxyCTr5OWjsy0SRRuuI1Ruouarg+B1f3Ojv8tIBfW329/v3Tldb0n3OQcDzhdNXy3B6OnniO6+KmXHgzuJSj5LbH15N/sXftPU2kanpZu5EC59IJAg6VQsIgUSC+03OTmABUo1inUFJVSwi4IBp0ElDsmIuAgEGEAWWIQL4CIYoCJEdRR10yUZWejk1F/0+yvs5vNJvvDpqdlzykzjDp+X/sd25JJPf8Ah9PvfZ/vfd/ned6U1RC7atclZu6L29lpJPHdQX9dnTCvVIASN5Mcdb17sLwSpiAyLjMzafaNF9V3YxQkhx0+PvtQ+pRpy16ddOAxRZC2cdq6TjLVUA0vhteb61KmBYf8Q+9zcGlssOsTvhRbnuMgxyuGwIv9edn27lzmP+yquzyLLv6tJY//yTb0vdg6EWSPmidQcVSqne7SBTjw+3FU40BqPDnqerfxhXF0MBmXmUj0ObsoHi0GvTB/37PvDlTEMkMsdi4GYZH7g7U3ctonKd+HBLvIAsoChOKn2nvv9mcwnqROChq94wrlcqSXoyZODEFUG+ljbqeRyqFFpfZ1ZHTolk9htRFbg3L7Yiu4qKl/ub49muPIaSGUAsV6f2TjExcPk3GZmfIbdmotfvsivMS0Fv2t0+IHSLsmzBHMcLl2+uBIHEX1GKaWPJJPAItIC2lW8060+E82QHZPCI+MqziOOx4+BZN5nVNapajKrpZ8+hnNq/jJT+tQ1j+et92xxUovMWz/U7yjXX8wXt4NKZBu8aCCuBQx3gKu/BbNUXADKzhXS3H7MSaIqu2ZulQp/BLVsMVMhFdux9h4JFVhE8lCBpuB/KaKxLzbnnVkAtywzVV2yiQRylD1rrRsfUexXeC1VhPev7AtWfApstZj67F9sfVlUaXsLz1tUaGObrYK2I0HxCzQyQpv7Zn89Zrnwz91u7IGYvjUPZ1HCbgY3r7xZVmGWOIEoTvRms3BRUrNjQwVtWKeSC/TBhHMrEZf/Vb/kxG3Tf9n4PSCmbTQ7uBVfxhNratekNkHXmvc2P67CVH+n2IL6/O1s95ipYd3jzWmDTih08qIOjwG2oODr4m652o3RpNbvEeG9oh3QA2fqOw0weheKtKQJ5Py6u4vamINY42S5FAq0UUbOJi1nwub3N18K2XQfEc1P4G+wY6jl0Z9Hb7VhdGXLDlOgpc9JvPccE1ZaoDb8wwxQWL1tzOrdsRWRJFSVtelcgrzGStInZ4B1hzca/qdG1MbenJ1sxLMLD5kPDdExfAJE0TnrRvyrFENLpz4RJWyhcOU+HWYX9gPK1dZEM5J+a/teALn7gKdikkR3DYnbJ7A6AG66mmZ8mqMHT1lxfetZ0f83H2aLEjeer9bHGIjtnA8UBFr0B+XTHo7Z0BI862XnQfVUSzjgbO/tDQ8eO3THUD9MW4qvTO8k4/+jgR+b32NbsjzW3AvfnG/gRJHgR79RE/cdkG/g6VU+mjDO94nOSNrP/BVRcfKRvqc8SOR4JWtv1X8wI7Ki1l5pVNV4N5NDf+ohLsrRyNsle+WoMxrmkcZOqc5QHoUxg9WKsAtjam0nykKNvTHIbGys3vR2fBEbFVfXylGde3+EMKIDbcpcRSwdXY8qB2PB8XKNrzjOfllR04Abxh/0H6Ajekg8FLruojKS2g7B7EyK5p73JtnyFCnlmlKbON8lVh6ZTxh0onexZz8oRcngCFTou0c8N/oWcPmx9KpBPQJj3XONyOOMX90bBHvKkpqvtfmhT5n8ymMnJKC2/F46ca/xiAzEReSiT6kI3BQEuREE5WX4bxtxZ9nUdJgA9uN3a6xAlV2VpPClpdWoKKke7i3LU7gxMEgbNSFWxYN02HWLCjY1QmbtkaEl9ejt+HXZxGrqI7OYI7Clcb2KPToEvjWQ0DZQkDXqM7aLKFBZASmQOEe6kouuyqv/Ay7tOqeQvlgBjvUXbEL47Abxi5O2Doth5hNmrtdbOfSMT14eXXAURcec3rM2tIggQvKE5LXoTsVErF10N4Zun0chcqHryWFyDczBmlnJYKUkz9rkj3UEvCn+lgllz0Ti8T4IdJlxVbnJ+iEYflJNN1Ng0sw2TUsL4LXGWZLkOgieSV0tiM4jT2qMbLAwtpsMh2TwAXxrw7O1ebYs47xA7jluNgiwKP0dPlQmBr5hNPgClBPY//4iPeWz+gDvdpiYNUzkfKRSi7beVAQlZqjN5zk2mLxhgif1+W5aUPeJyrhbrc4yJbc2GjQ54TFOZ3Nwojb2nw6BpS1yZaGGiOAa1YK1FlYLXbbUcsND46jY8uErz1oyspWIXeiMb8wqFmNonLsMt8H8w77YWYRlGBIEYEvzdknh6frut7/DROel3FLVbEsW+WWTQ3Mr3ZcU1IFaxTiJlZp7sr1DB3P+QodrK+WODOAG585pKS8M5FG21WvhQCXdX6MeA0h53z3DVcdGVtkmDOVzTk65GPlz7+sh5BPWMIjQ7UF9KgLzftjcKApwHxkodPnSx7E1bCsVSnytEFtTq9sbmBz3C+6sFDf3t1NCjiwL4kqHr7+3Ncl2lL6ZI8WpOrCzcyUm2G8AChwHTKem6tFtdilR2+73mFzzof87BBJ9b1s1Kv0lj5Vi+akJ4R98t2+/3r9u7Ff+AWwnXFkXOUCt0aMxk8dbZYKbSQllkg+fDjZ/couf/7O4aTFQJvSt+x2vms6PuTCk4sgVZe1Th/YmwMGLtyUTmF+7FMoedV/Mtjs4Niy9srmL0+i1n+MuPj5CjDhP1B47O9v/rPz8R3gsDn4DDW7QvRfyz8gv1cvX7WRloLEt6Ylancru0gzynNG2GK7X0TbLtt7K9jbuEcMTskHWtJOQYDLEnT+EvL8GPMbaZHlck1OeILEHVORyHbaNjaOxeS2DjXMXQKBG26ekE+n8lwjpWL4keJ1OHFuvezSudnFEAtl55A2yriN2HKlmQ+MvUt6rA3+8xVYDE8OWWcTECl1mIB9cHtlujNiC7cEn9eUhaGS0z0CrLsyQaps80TKV/Nf3QGqJJdiydLUVfnZm53x+OUJ4NRx/SlV6qvdrB/vwz+1LGXaNBtpcKUNnZW9CzpY5qXzK60HIDYuIbGyUdThKT1667I8k2VyzqNoyspBHqKSJEswdFmWjEkvUlaBA9yaO7MJAS77xayGYS+FcBXKjqu3Xue51cUQ86ud23N0yQKNLdKEzqUWj/TEzvLYJRzUjf/pf7kTLIhxxo00xPkxg5f6bMUYhDspuEyZUqII9EeEb3XazSSwsRXOFD4VApMiuZNrr8CFx4hDRNdzG5TMmFxttlt1DGkDPbubIJdCHA9ZdXlsfcYIiFy+A+5E1zC5IWChPQUbUBq7XnuGa3JWcOFLxnNzYTxk6LpXXgIhxlYdAiNFxJndl/muBAkPDvtCnUwJA3+zqfTi8Cm++7itkb5/f4UY1hK4tTrzbYPLjb9DdS17xEB3TBj1z8yUL6AaZzAKIx9Br8YfTTPkfp/Vg+rChKkl/0pZpCIqw4mPcDPVz7X5MDRa0nhFCS1bPckRiZ/bQJeAXV8eDpMNBF2VP97nelN9H/5lfROl3h1pnIFYyWN9Vo2H2eTER0TaeSJCCS2xt/UMlY+wPml3ce8Ao3u1nb1UXGWB4D+3aXePy9osm/0w4iLnK/5ohskFDLcbNsNS37u27JiIwj0tUDSDTHzyj64eVNY47VJIPmtUWPoYUQnCSFAQPoR0iqrt1cecJi/J9HMhbN4VKDIs5KndA7qwUJIHsAT5GIsV+s0x1KdP9rSGh6CDCfebrw+iApdf2LNb4h0mpz7WbSuFyKSR6mElhfkAy7jObnb5jxZ94ceXUENZci8GNUOu3yFwbYOn7HTl7k7dpqzq9lBLpirQz1Vg0bE51GKDXAt2jWtycnBZBwSo0NWnaoSRoIBtudP6nXEem5Gs2U9+fCmOAJ8o8wR1K8nf2UMClxGsdVtT5MpaanmbM5kIZRPvhggnuIm7f3sGIoMN8x4pOwKk6Dmsp0GOtlEnBCQJahbiego6wZndz2o3hYLO4Pg+WZ5ZBesrSBFrp1tUXR5eCfOQhrcp4mT/q7zCTWqdMqK26pWoePJ/9q78q6kzDUMCwiWBIHsCgUAQUNmFECBhCSApKggiUPZdKFKWEbSMCDIKyomAoFawxwWrbFLhuBfHjstM0dPTsRyXMzpUTzvTn+bMP5CEM7ngD+10vpt7vxPu/Xqd7w/Icu/3bs/7vM+7Qzq74E1xR+m7L9KttnV5/Ez6goKLGaEMteDNiL4xZqgQmKNd4p8j9xUTgbkPV097AKHDiSMQWtJqiy8fHRd7MsVXwfo7yoBaGkAqxKRfFlWGjSS3PXO1K64VeDzmC8rXCl82Gclfomb5/JgWxiiyGM9B85mcT2j5mjH2k6C4os7rkQTdndELnyZGMyf0bR+bmKwWUnLaxeUDuzqoBi6cgn9fu/pH72uZrVkR16EUulojCqgBO9YHI47ZMZZ54WosBwi4qvobU8+8eaxfzrCsBCPUE/Q9Iab8TPiWRJ0TkaMURkDwUZNrKVTp5/aQsCRMr6uprIMq+4eYv8vglCTYWzkrywYawVSywO7PPgpgPcPQcWvZy53Am+rWOFCmFDGplIpnrcFzFIxrbvjiyHaq/FjeabiGGsRxmrwtpnzrifm7DE5Jgt2Vp/hKJJj1s7yrhu1oPOaML5oDc01jroQyq6DPtZHdle+mgsdVUR41MeNmiBflTlpazvrGi62U9xOv8HcpVF3CvO/qNjBJ4MMkDhoieZ2STeOshzTsx3oeBFuDm7FJPXYMb1aS5J4fuOxK9lItuQ1THzUxhMd7EQeL6TEu/ejU2/9ajUkqdN0jEGj89blROqEUMFrTYALvXQPg1U6+pt5rhODpN+RDKmDsvvzSkBQy7F5sPR8TCLCYpJFkxut4NsXX0mRcgZOL66iLKaaHX1WMks0LcTQudYhhNM42QHy3CqyGzHTeSkPSlS67VgMUqoiqyT/CuHfBeN4LUyqS10oP1UfClzDfoikr1Gqtgw8UUX+q5tGpFeeE5PnwLeHpDC8VMSSGrREFP+qBg5xXwkWsxgttYxMPFIDgguJGXHWS8bzYfkxTkeOrJ3mrNk1TJ9ZYeNYl+8zRZVxa6WA79VqeK+qcL/XXknsMHsEV9+IYhwu4zuH4oKcOlBcmH/FkNV7o9cH5wZ0glCxBfi00gPm02EIUfpUkGm8IXNmt1G+VuV1bWqVeR1demLDpEcSYFWeoL6k3kNxXlFRB5MamP+ZxrRXA9pyrtHCvHZspUJhA+QVwCfz68sL2XBSyYkkcXszrVi1wmfG8WxTVetoil7D7e7EN9bVGIuXC7E5SyE5xY+aIAwJvDi8Uwe05vuJtA4/NxuW8brEblMg7yfMPhaAQt7H0+PGqEh25wNVDPXBhe2Sfnglc0tJYdMEAZZyxLJK8faea22Ik3pzEELqA7TmnWydkziwuugzFRpKPNQB329c009GPRCfCnBw3HjZwYRniO2o32mxLqw8q3GxHHcrjbmuYqb9MRptq58tdp5EA4gxusaUKxCpzUyd/HsLiTa6c6NTCIFcAOaPggGbMHg0fEOKS3+20WoHL4GISD3y4nkbjGj1adtoRAtnZUJdPJnQJe5NRaSGZ27VnSgGp7NqDxz+JZTGi4bW1bFYF0C6Lkt+VITLQhvE6Fl4aLTdgA5cZx25vWqWWxhMlv7IFZgk6r+NUvdR46PIvpU1m17hbPPttL0idpTKtzYG9zHgcz6jaDShmVE27kGny2W/I8rtprJEMG7jMeN7zdOIZODfp+9AwiNuPC/YYZWnpi32yNdGoXFpBZwsQMRv95m8djqw1Lqs9sq5b/7uS1+0of9AzhAo9hStSPj2qWqXAhYXJXvzUvESjcbmpT7rYQCQFZELXysQYMjP0Eoe2QSkQMWNzGxkLE5/sdQOUXDnuZ9EpNzlDmmw1cSNZB9fjWn4K//yHB51pobVP0uchMNcfD11Gqq6VWWdk+ke2G4qSggGsTeHN/aF7WGxcKe5qALWytrtLFoYMaxkTbbkeSTjQtMwqhPLY2BqXP/zOmk7jWv/kTV0AjOPCQ9cgIWCIP4av4tHZjYo5h3blCUEB3F0cxlpiPGYjPmkJuFZRr69uEaDjViRxRgaa9HOwC0qxNSnJOfQaV/DHWXDMH1vPI8QyqXq0ApehrA//CkTbtLa8k2LDYuM6dAlkXKNTCx396PxUro1s/AKhyFoCTvnBoIzLxd2SXuM6CEPdfRe6Zog1RfDHgJJqmUA5oeCDjCv5EJuNa6Mf4FrppYNoTYp65bZnDhMkRGv/dXEE7gfTb1w7yo+nUtbReBe6YhPf5P1IMIFcyYwSKPA4bp2ZVYGM67uN76VxuQYZ3j9Ks2y2AS5fTxLwVgMnT0BSfug3LldpYasdHFiOieLnXxNsrl47/CYRKa65V+75ev//G9cv3//w8b4xlIwL2xP/Kgasz6S//+WreDjoiRHjugdpXFbblK8UBKoH1sPPHyO1n0eS2wY2Lr/307i0lVD8t9U7FhmhP0wSuOz7t16sg5uywNaIGUgLIZllXGfZD/L7BLr+QZkjqKWFh1Xvp3GBAQ3V7CmkprCXJ3EJBhrnYPQAV54CQUNitQCNj4s2wOVuHMNjIBTDKom8ipTwi8CbANC4xGpAwwUExet2K1qUPHT+uZVA+ZdSFVj+SLekanqqFEA1j8JC3ekkxeNQ/Js6uMIIE3ROTBEOjvrmJGmGEEo5ROEvwFD8STZD8WtSQAnRUuCZP8kQap/jS0jymomayIE3kxNjYUKXVZgM2OdErIlsxoktSiIWINarvnmqRCd0GTxXV54vyLjcXdaw2Lhc3EHtUzf1tykZ6Pxzx6276qWEvHjXffjeIIgrayWQ3aVPnmb5Vj2BpD9hAu+ZJn/Cz14KVCcVoSPDbuH52N0SQH/yYDdDI0z8/JwHaNrmgQadaRuLjHUnaqKIr2zgzUuJMDABJlCOV+2m1bh87qRASU1zxj7x+yuxH9Dr/Y8+UyLDrZE4HBsAjPMsNSPFsDO9ccm6gHzwffXt2yXIALoOIxeNqXa6+jfBJURep2eMUe5NbFyW7ikw+ZDBDSwcNjrXFsi02O7PD897PqYa4AaqFY+8WSyiQTTJtLtqvFOAihdIj3+4qcTYnQ1UJ/cNQcDQHIe2NCmdxuVx7jlUPmQ/9gkJAShXaT0yk3hYemgXUKSlMg2tbo+JD9EMrq/6Ehr6NGbL2xiM6z/ptarSiS0Qocs2tu9441r6bGup+acXMPkQ1t+wMEtCurC25jaTC05+kc4HHAFOnKz/EJa+/Ns4Fp5Z2U+sgTSCdkTo1dx0csqFQnW2BmIbKDegLtmHxkaXIR+ah8mHLAI25p8hgbwUH4SlWa5COt8OnJV0M3jvDBavYsDSZYu/bwZxHpDhV3OGUrNJae6qFFdh1J+cQ7+mFYuvTNsLkQ/hi8cLh8lEWCi9/FXxijayadAsw1Lz5KKM1VvHed6PIgFFF7QkhcmPlaE0nOKTEbnAt4FSD11WgvCHr6NoxDMKsmHyIU5sXX4NGVRzeRgZCQ6Ul8NIxPAc4H5VR7Iaz8ClrzaDii5oTYpVSNw/8surJXVvVVMTndSrLsfT/z58gz7jwiFo6s+Vm945MUtKthB/cw9ReHMWGbLpqhKd7r3EM1ZUQUFF10roQsABmjtsBqkr/rrqgiH/cKLvRdCHaCxVK1ogXLZ5dF+FmpxWvN7XJ7snmvE3h3ltH7k4DFrdav0kKYvdixiw9HWLk80EoSvexoL53xg/XUV2GbgKptfFDXHZT1/RtSMIZgMBvhx66ga5LSdaPR8qgpv42AaIr31ZAlrzwfqSy1B0NbQoqoF6DMMRx3IZV7SWxPVUkN0HjJN/NNR7XTzlH4230Ux1hHn7IXZtc4Y0SWqyDkBviOBwREtTOkVBw6mB8mLTxu/fWNE1klkOyIh02gR5fl0sw3mxIXC9IL3J/l2viypSJsltG5S60mJaOm1JTItyG/XApXzaRIFGsu8l40L/nKEigqXIO4Iyj7F6g5DZsgz7/m5gJr/W//BEOMM6XfgEUwH5RfZCNUS5YetZl9wrpC0rhCjkzQ2Bq5fCJhYnef7GAEZfnIVN+PVSf6DHqs27dDbEgt3GhfU3vCWYk6rNYToxtOIp5xV88pvp9HzFBOVpQXxMKpKPcFaIibZMlKq05DW38eVqDhImLxbvg7YIHyFw/I4/ZcgKrdhtXO8CA/DuJsj/XsfoAMMyDk8hqCzv2qYcujh2x8gsKTJBVoivK1ZSvlXm0anZObVUvijhwrSMyUayJDoxXw7UwtN7FFSkRnNYbltmmI1s+j/sXftPU2ka7m1Cj6WUtiCUoC1QhGEokJZSKAIWUGDlVoeLC3IPYxUIzCa4oINAMixgpGWEcAthuajl4qIEcBkdwMVxjIOiwc04JjvJTnZ/2MvMJpvMT9sW9xxAZ375vvode9odu+cfOO35vvf2vM/7vJUfAM+In9tZn5DlwPCNgMPvntu4uh65ycMKP1wwbY+ZLovvl3jainqrsEz5rNLVgvQex4qDugdHfF4KlLXHA5diUu6Jve3GRRMLuk7Ugac5pGHapgGewz4DEg6/A0PhThF52zZmaN5sC3phtkPgUpAglTHi23P8pRa0FzlyHwMr06+se1AKNP3bv4wcetvhjB2n/fGSDuK0q6Pv6wUGRyUYkviU18bhf/SKs8hekWHUV+T5WqgPXGFrKcicMsxTflftakF8E5F4Oej+YhlpR5Ieq2BJ69+j9jDffuPCOAN9zyA4NL9B3V/VI3aMD8QD13UFApxBOiPCfOTX1YgvIhG4cMP/3bfI8UTidgYFMH0Zug5eP+qY0IVxBPrhsXEIb7/uxNlsMc0JHm6IJvk4hFfjLWubjNjv/nPA4XeulblEcReZFU5HDpHkKi4SgYu5hxgV3UI0fIs0r0LvkL27TKFbY7+6AcInU+mWPg5mOYNxufDi/gwZHjdviQa7y1r2OGJwnODDH0SOJ1veYZHIyphY5nboojpwqckELoJb7o0eVBPbNh3RSMYkPadXSx9BxOr4skt9A0LMGYwLrzc0B6B7aTwurDUN+DjA07DCR0hMWm2v6opChTgl8Suf5EkpDlyFJAIXnFsOO7bpgr0O6NPSYw/PzsmkJjMkcBVc/p/S3KYyjPP8btTIYF2eEt3GShrP/gUoXXBGK0OnJZm9ByeGshHLRCzz6L+e5lLKjbe4qq99iwq1YML8ronB2ySqQX65tksgsfORuUhCAp+vt8K0Fdl13ScHMlycw7ho7iGXC3QqiKvhL459lJJtdwFeLDOhHg2Hf8XfG5vfF4zoGxnGY3/SHaLSuE69k7Pihnrbufvf6791yEQGailRzNpb2tpFYtz3pPtLaMuwpBL9cH7GgKEhvUnbCsvq3w1SfFMksLd1kYEzdp1jeffoAOLP3Sbs5P2KuorLK7f0c2SmJrGp9RdAbjlexkE+DzGYTXIPGNmbJO7Zu9ztDx3rPpVXMeQcUOGudwyPuKYOgjlHdq66t1HAsWtm6MLx+wIMZ0CvFZ7WDyOn9dw98oXOhmLKjKs6+kARMjnDPaSjIBpyWT1cPcC/OOjDG7X29IiYMGbk7nqYxwtYshrQ9k+5M/S4Xj1it/bkm9BYzg5Q9hYJMuxZH7PCR64A4QzLFn6tfCFHWNNXi5rXM2I7esco4++KCrWjzRnIlOLaG8+Aw/1m0x/qfvgbuFD0mC6wJ+SNCeMffPX0u1BornFIV6Ax0p3ItohxoRuXZFB5Me8GZW97uj0xQ7qgSwvqbpu3Qut++OsiGH/wOHdfgzqKhhnSVs7fhPpd8g9b1rkcFY5aatBjij4FC1ibb4c9Pf+f3wMrMj7BjbdbBoYZ3HDbKhdZYMYlLZxoSue4OJNx0dzxsrnSFfJZzGbvAMVHKQOe7vYzePms4hDwWsmerv1jehH4i70CiIF/RFfAyowr626VUkDUMHslKpY6jKhoBpZ5dGoGPBS19cGte98/14KbYKS3sJMBnTkCzWdfy6RW6s6Hkw4lgjskdAmzV3J+CwvoZhM7aGyjKS6YbqfDYhj1OcCBIFOJ+t/fP895B8wsCU1Nvohe4QRHXOuUUbGsq3r6ij4buXEqiW+HjJpY/lJY0ZTwYLWyBNhY819rt9O2Li4vv/HejAxOLzZXTw9fjKHTnOxhZrZsrsMTQ1Pxou58WWCsfXrrmKH5j22JoBSN3ToxmrDvyYdArwqvfiwAACAASURBVG4xLZbOIvPPMXpMx7wywNbyu2aLKGyCxHAB01M+qxy3QKZrrkcZ04a0oKkGs2Xx4XO7rDzBGHua9QVKuG2Zt04VTow28zBnMy4aI+T0HeUivGPLd32sXRiJsQunhhix+o0HmKs/HxjrptmAMEsIfTF0Hp9QUNRLWJdNM0OLr+xpfRR6NrTN2AXf11N5+D/khEeAtyuZQx9vdNhh5QmTvr/l7AFFgDc8bnmTqjvfhsTQIEhJPmdNeFZVuL5aZRfQkJDO+Q5EG/G6emk0n8OrLauR8SF8iEn0iSaMk130jTLA22xD67JIZV9/9QBd6YeVFTWpAPIdLYQEqjyTJU6D7AX0ulpzMt1AuW0ZeiLK1nSJcJ9E1J396HXn25EY+vj1aQtPwav5rdDymTuNaZnu1P+almU1UO5MdDz58n4ul2CWVEMqkpwz6KKmTE6+ra1LJJu598ANOZsmiE+REKZ+6IXzeryqJDbagtV1VLreCKpXnnB9BFXL3RdK+NYafXjdKRBizmhcNG541MKczBfuhHEvrCw4EhcsofrAQjSQ7b/jB6fieJiLIR3GXsBDFxlRU4wjKFpSNtjOujxa51ar0G1rh/gEFNU0eeXObRLKny68uKlS4C5XdmvkkBulwQKThNfq+9sGPazVnXjB5cihdgc/dOPp1VJr1bzFO3csqSzQSPFwsphYggy8MYOR2zGJG/zxUnQ1bGqSjHYVniBvxy7bYBkmlf/6ZJUb+udiZtT2XQK7DpNqevjYtnYQI+YiBFZ1VS60+FB4VkyDMWH0gEImsjaqsFN3cp3UtnCf7dbYq0jkW7ktxeOPtctVAh8qvxMTugRZFT2/vd4NE6afPVHHBv5SkqKmO9bVILXYYLzLqyT1xPPDMSSSIYYRJqppKi6/1FebQVgNlikH7920SFOTNBRCGlyf/Kr6ielFqwCr96PSz0ZiGTSa81pXtv5KtHUCkCqsrV/vF06nziHSY1IiB9nABnHN6M5iUjx0EZRxILoZ1EZq1J3IDHsfloe+eWbITtStlQWGkFBJIPrHncBOA+44bvW/t8uelAhgwnANNWUDQqogXXGwX0r/XGG11bkgdkBpv8ZNjDmvcdGYvIGu8zeta4yJriqSTgb2cChDDTPipmaADR7RhU93nTFe8zdNtLJhDGxSAmO4l2lcfVao8nojKpTZLJIprjS1kOq70+Pbc8Di8HjKO9H1sinNytoL6Vp4UAdpcHnxEWVJlTKRVS/0bpCioEjAYdGc+WF5xpVpw6wP/7IXz2lnNWmeFIV5VvDp4eNAvoircqpltzPKygqcHwMX/VsliruktDHxDPn0wsR04huNJr9fXdjZn9KcxSBhW0zPBJhUISHR9qpxhnGaN+cagPlja+QZSjZBYZLg5ouT3Y/Hi63WnfzFsWF9PgejOffjvj9wYb3cOr3OSxVWWvDroyFCSnyiRHD2BLCDtQ1nvLRqsYDYAWUBti0JOQ0y1FWWsAev05WtKvL7GUS50RPLHdk8UgUPsZQR0j+W+uMh+RUI6B5blJwKgTSm4jJsf69ZnJgo4gtZzXPMpvddozdW0nlMmrM/dOPI6ozM13q5IQ2Irtisys5k2P7cthVmS6zBGS9DF6TRSk5O4yXC3Nx+TTudKyKHa7BL/EuHT0YZyc3AcYMj5oGUQYLbpZyV/xiRMZ+WJw8ToU1BWydkGD0rTTOpxWP7i9ewLd3GULMP1+lti4aJY6ruzDx6jTYPvyR1rv+IPNZg80yaG6tJTgVmZK/gjB1n4Hamwl8KZtwMTjSlkWtcEhXFyfudeeMkYEO+qq6yYlYzEC4h9Womp3m0GwiDmiyhqUkpMZKfIIt4gRbGBtNZmrIltr0kDM/4qKbh0rDXCey4bSU1+Xn+37Z2gOhj9w6+VhM1tCE68ouqfE9bBy/hQNkzUA1hEaUm/5Qux/SU1ysTTRA4fukySdVFlji8WbOQoy50RTEv/LsVq2S67vkheUwGyRvFMB4bnlaBO/lBnf9l71qfmrrT8OTi4MkVknBJNoQEEEIIYEMSEiQJl0gAc8FyXe6XxSLg4LYLVhChMyCXkUsBsTqM5VYuIogDuNRWbEtHu9W1dpcZPuy23Z39tF/8B5Lg5qTWEczv5Jwk7bAzOd9h4Jzf83uf93nf93mf7dkcSfCXr4LnlRvurco9OnhCJc+d6F6ers1Dk5JGpcLYMvl6kfUSXedRoctqjkrO7/rnOU8HL4Lp6CjYYbs88X7H643efOVlBFnNXBZzZkVAd/HvoxrgU1SdGEpBafBmMVt3ueVna4eL3gnOdvnSsdG8hwhWkmZxX1rp3kkSZuYEuMHQlqRuqj0nPUF4Umbp89zE2GQ/VNhS/NQmIHmxhRVdsNhtC15r9QUkT0554ZXNUqC+7ld1cm8/D7wtuBfhJLLuaruVrrIiAs6oljQvV8sy8hIO24KSBRlZNg4kphTXlIyOzeiFIS4n8MgyPNz4tK3a20dEFaV8Cm4wpCR5bhkW5EsfkbSMdr1H4aJKPSMnP7ne6O/F1j50/RWV8ZKfLXgVpWvUnuOGPmTBv8BFLvEbVpdOWhnMqRXLbqzHhHD+NIluLW1H8W0kC3Gk4oU5h11edamieqk/Ws8bdD3HIJIQZXgz62ZE6b5eBx/E9X1sz61xJDJ5gtL7UsX7p63OB7Yt5sN58Rc29UZvvrUfXfBYKRp4nY5USLd0nuOG8CpZUJHLsrvetd24t1+QYGhcQWjCe1FWLL3O4LsOfSLOqOy4XLn61R8Vh2bLWUFRNuq3r5xmiyZR4azUqkJZyY/bOjlDOEh1PVBATmT4w1VD77Qb9oVFvLoZ3NKSE2OL9p7ghUQ+qaBuLKIiHxUjtFtD/DCg5xC9iNrzgcmMt7/oPYtuC69fcmx87kOPcUM+0hL0oOLcgf2rLp20j8MWocfdcqEk4DkivdyGr7Rh2Z8z8v9w6l3u4dcerrhhPSa27x9d0z+upUcLlEacW6eJKjwOF8aB0cDhv0MwHQFKGi4uOXdQnTDS5P1Xh1vz0GWgVu6sbHSggO7F1hvootVvPS5moVsIx6X8zA2NfPfhBdFVTcAil6VhcuuN4X2Imd2PtKrAdtWPNbo360CgMklzenl9y/2NCz9lJV3KOPTLExp6KKP1XlfJxStL25sBAlqcwU1+TDC0Vw5VAWX4XW6s1JFXt31mEswLL8y467EG4ThKiW5Lei+Gha6w/iI8pmLjPMPgrR07YIbKAHgCDs2LtFitMDd80C3xALyIwhkt0K4wJyyr5c2ajX1ktxwhSWl1wY7zzUyeaeQxGjXR9elfX/3dlU8i7M/3T79/emXjVmV6SrDkoxETGUd0VzjAIaeQ1qnEZUdTaogDcDkxJenu8UKISp87oWuqTow9hc421WJmfdB79Xw22YsthyRgTl75lWIdpZ8EzA2rt2B44d17nfzsliyQqmwVF473OLiCYbOJUPBC7sDIxTU3NI3XThifzCHxaAJ5cEBn9M9PXV1n8JEOvZpnMjLxBPcDN9EoQXJTg40zHBrOE+jg0W2YFy65wwshKlkkKF3IlYWi0wjhd95w6Mz82wwvtgCqHZ93ok1bkxeEsoDKpdjgdXtTouS4Q4wgjmQeaFdonVp02CdH9Jc0dUX6IZ3Ibg/t4IUgIp781lukXx6TieT/JzoTT4Q8o5byaUhuarZ7omJNYiQ6/MF+YKpqZt91gxdCVAOvvWclojcDrqZbUIWtMkrr9LNO9SDkxRGICJnam+1+WVZ03NAGr8QPnw90zNFdh5ed3oQjdHg7BAl+rucHBXgXiJUSPy/3oBcltPfx8dwRghlu4hQSw9UCjP+IpuNFl8TAEbiSfoZrt4uPL1nUPjNWtNMaibrN0j6uPqERMb3YQjjpnMzzXyxWidG9Uzu8ipPSnp8XiAapLr5Xpi0xz8M8mwQNFpz7EGzmYoVbDAuYB99FGR5Qk8Zyd8H9JsMrAG0GIjduL66DAsuXNf/VuLIhGcLTj7X3jI0P35xloR8QOB0jK9oUxOG82EK8SMmMlAeP30v2Q5d42eAVnvrxYtr2Xz4SMl2CF5F05HNwl1zkTqWeCfi5fy+B167CLYajM6KDP2Tuy6sbBUdgi/nLydVO0PYW3xFdbijgfrFyv83txq7pQHjOnKp+xQ4t9HsBAxOK7zz4LSzC/v9FQ1rAQ2ltXtAu6tZV9vuFj4smAvQ8JtEF5wilrhrY3x1+KC3lGOCT4dSbuQiV17KwM5UqzkG/SYn2JZ9liPPHBSCuBRk186BdgRYrJem2CmMLlA1aIx2lf4vYacUALasVHqS930MzeMtbzr83U3Sif1wWI8YwdsGaVQxtTHRmCgepWMUiO7cB3ts188BViZBRMi9DSlbupmE34P2tH5zysvY7BBkeTh3BZnH87DagzmpmF0bUYZI0iHwbtAYWLv69MAxD1DJbxTHx2gn5nFfKQHd/+Weef3AHXcfLq3GmmNqsjbHOdhEdG+8mmIJHb7IwFbleHS3EpQVm87rMo5rGr3KRmTTL4PGZl6In+IKAK4TA7l2MpS4izl8tufxM29WXKsYyjO2XnH/nqq5R6E23UCde6ugFqSIvHINdS1RClSKraCxFpTRiMYnCj+ik18qARS4kPdkWutaepIIPwn9ipW2ZB1rTgMj6lulY8Fu2y/AI5TqI3tEUX+6BFiiIGmJiaJqXLz7JSGVjss0Pz6uVrs1ke6eOMXz1EJGkZfyJc7uEPVlOwzXFzqcLOgnNFIJa2yDrK7tSgWmDbA3peOBGSrVI3fHw2OSB1jTgEUmkleewDI+4ECiE0XYyJgfcAoWOFxJwdF7m0etLUll+KhvDB7dYzAnXnoy3SI4xvZVjTNSQpE+5hcLoZ2/0YuX1VeQuX5dn8lAWvuxeoEBWWFWyqUZQoCC7GhBlRtY0Du53t4Xeb3rBO1iRZPhXvPDGo0KxxR1e6ENlktSqnomN6ZpYCkbvq6D11qFbKXqSlxJipobKo5Vpk7NsbO+bHRkaL12dqFeNoGoVxys3pR+UAa/e8bo4AqKOPTOqaADTGFZGWjeDf2C/PE7dXJ3/Lrjp4dQ9sAz/8jEIthdTdy0gXvi1M14I4eiizKPNC9phxQflXCzWIRaLhXU2UVt5RE32qoTY71W+ULW5cSe/PMqMya4lnPJ7xfDTh90ShtBp+PKBtUKA4gcfjtsqROs7n0F928lrQeAxman41WDhQU0HiP6a5XgEp0K7872Tlge4kFEMGg9g33XCC4l8o1JVP7EqTeqbtc9dYwpbqd8Nfz4gEPK9YcsVdPlyCmbWpIpZMSZwWc2HE2YLF3Ob2m7A4gZi0zgxLqDokhjY2X2y30l/IDFOPh8/Bbxwdz87O1TZeED3bEDMgnSkhUFWSvyW3NnOFsiouTXZ4JJeCOENPIZGtxBxRnFtio3RrfFFIBy2VqJpXiXD1YfAnJOcK+rNP1WG7dWbA8Xr+bKhR9/oNIw4MkL4wiP2nqKYVQ+hNedmiMENDqzWiMsjB1PTwIt6NiZPgTmt3Zmb7+y38AtahmcDzZh5ITxtrZppma9e7AtLwL61NjzVlm11q3gh3rDlhq7hX1C/Vj0ZwzLvYuIMFis7Oawvqbqp+QbSoC5Z9TARUUomO6NWRtg2KQfB2sUtP41f8+IydizshIFvLXinBIq/nMqrBzs+gnghEW8QMjTdt7VZk8UUNnaLYb/k4gptZTCN4+vFlluJweAxSfrombuUzzB/gkA2pbjmpD18CQ14okNWd+MRQhHUxgqdBh1YzVYkgLOF8FBpevYB7NWG+Aw45loR6ghF9XPOY64PR/KgBhMvhJFFU9X1L1XbMi0KdxfjV7VYrOF5tdPL/2PvWoOaSs9wSYJJyE0uIcCSEO7REgIJEMFwkTuIIIISJQKCQQEVuiOXchGhCLoLggGBoKMIqKBc3AUEsV0n6orarZ3arq5dd2d2bbszu+2v/uqchO05CbjeziEJJyTOnPc3kHDO93zv896et7UUi7ZQcV7F12JEZQ6G33AaVxVfKim4U1kcTgfp4Vv4sgJZIUKZRh8FIyKltz+94Sb8IS2c6yo2UiPUlEbjsUdFVNhoUfPC/7Z+e/zcsuoUnoC+vJCAowhAZMXfrZXJH0JOS2Pw0iSn3B0nztZFhjJoGLZQcF72nPCKyY4a3yJDRZ7VGp37kvlMtJ17B74o7vckhQuwB+PesqwQOqWCgFGEnJtWI9TyGnjJjPp9HWXwd4JmQN8NtIjjcK/zQh2yzvWV18rCrnuqXI2RxM/JVYoKJnanpGFuC7W0IZ29zyfPg0oy4nWA7stTGpZ+8d5b+CIzA+Cn/fRjhVBID/IrpBZDqIHXtEuCjclmdO72qREjZTNut+i3BgjvIhyXRy3PCxeR1VZ+MT1Mys81ymkBLIf8ucHhisjLWG0LxejbjVe/e6pAnm8EN9S6r1w+iK/5l/giLl66u4/ATps4S+f107XEMzePHNueAX9SosNGLa3YRWAKp/IQdDO0GiB6jjq6LZMvhKR330RWBmDMLakp8q1RdLWF0JlWWLsTms6LxggV9oHc0NgFOxmv40ubP+Ru7VdUAStjhdqcxqaz8FvIAbWTtthlSVct2X5rfNAOhN4XMaRepeeQPo1T4gMrnuV8PXZovT2F9yay1IZfkRqvgR15sdeatqZxMbeFemIjdSt737z+miVvgOU1fLlHgPjCMRELoHqyQmj9Tm9/uvIF/EeDR7XVoia71nKGei4Uwj8tUn7Hnnp9a99kRji8sDXrUnK3MCm8OH7q2xUgC1CrF1ypHsGZU62lHHsMWqbghlyQG+rUthaM4Ouv4SueHW7XWd8S4+G8UlaozWl4DwdPI0QK0cG3QgSWQwzJLuHXFPDjx4CGKjekawtnBy9YDIg3fLyne7xWtgJk6VKE2WGZ4y2bsRyh6bjhls6jCePQ/ipX9YIRb+klviTpteVtLf/5Ji965awQ4pcRrTEI87w/eynT++stRwiWS0ccP4ZGJCsM6DdGktoHbKtmPjkYfH1FyAJIUUpR0FiLkJ6K9b+b0HnhXEKFLcMFIv9cJ+Pe0yK+8qUSRdDvfvRHrCDrrQyGd0FUogDv7yvzmy5bWchDpPECRsN84c+5reexKaEBS9OJlPByCRWOS9iqfH2jVoIsICeq4cLgWIUQFe1yzJDOsXZ/1ViQSBlFAozHl61frqfSf0AMlxwpktY6GrADB9JQmkMIYljb86YspQsKv6W0P70BXugeiNqvV2/GK7yQ3gdfi3/loRtltuL8DbLJNm86E4dBazUyGyC8Jk9daIjKAYy3BTWLBd+gQJWUGyJdpN3MkI0w6ue8w2K6oKAS1xWEhq0X/oN1KRRDviqB53hR6gyYwtZB2ihd1d/ZYUXj1YIXl0n/rnJStiFfbGuSVwqw9M8VLp4vpnD8C4TCkeV0QdFsIu9+gbAX0xhdnfbNU3PTaL8DEP6kA/wNil3dTUkCLEW4monDtKym6q7k/XxxjjGV/uWmhbykted4BiUgcBGtiHoaui4o8+c0yJSkakQfa7AiHJFMW3P02dUBlKGl0bjmNkDQGurFsu+rbAR7QVZT9y7F/rKom2o12vBSzT0JEKz9lQFMhMwo3Yew5Ep7aBPszD9+hLt8fBeSJo1BWqa6HRGCjSkPvgme1qD5ArRrAOSDk3XF9RwKln03A7w4vUPds7ILylyj6l5Inks1U/sgicekuNEIZD0jL2g9o5yK0D4yIOppMjsxhLazIGnSACo9Fau0uDqcxqG7e59rrftekeiMqtvyGsgWBY31BaSA0CJiZ90MDIdG4fQ21Y0FibKpKMPrpv+Pf2877n00qZPHZNiv1Wdbz+KAFHwC5Wa+4lp4qnmJ4XJ9Tz97ZQe1Lau1+BJXIextlfcbP7itkPxDjGbEC82RF4xXhNiluWHQMh+87AV2IX1jBRC8UKQlakCcmCeL6Rrec/K4t7A3lMc8TIH2YSFCDGrgPXHJFv5vgsSwMsu8GUPc+uIexJJBdN44km4GWeuwUpdw9fn8kWRJs/W/qw7cRO/hQwooxzLLP4uk27hhsZZZ4UXg2tAjW+4UhGUbN3oHmzsf4Hs0y5+eip2/8zihxDHEnc5JCwxEhBhuY8nsBoRwBhiQ95SYVSQUn3r08VOkYrdDTSzMpIkOVoFMrcPatIirM+eVewv9SBkAgErUq4b4IJTF8BnR7uPFWt8tIHPIjBBWTBRIpHwVeu5Lo2GRisTRyofSr48NxjxqvF+5yZG9BDEu7V2RGLl9mURcDv+Tx5tTzXcba5nrR35Ig52QCijhTVS9Ait207a2u7OZS7hy0sneqdEJtIAMkA8uqU5ire8W4r64qRGRCfd9jJ4ch3/hLJKXeJrvf/6MJPnIB88/X4SYHQgxBoX7ZixGsIm8m4dQQtL4nc+MtzMfMVw256Ka6xl6qQJKJC4tjF2CVeUfek7HHkoOrnm4iKsFNJMYC5AmQ17mnT7vFA4Dh3ktS4JXaHhx/BjovjxVrqgmhaFIZJ2TX+HenR7n/wVB7Msn96u3xXkLS7Mu82xcdERxEWRWna1na8QI3pAqB0+vuTKGZIZ7N1K1QPPCugBqIyES8YS1XArjMFOgRVUcCKvyRghWkuZEj517Cz8koYsriFSy/KKz5clnR1oi6Wn2WO7dwuCFo2jVumrRd1/aXJ8GsCW5fqiD2FcdR04///1I9cnj7JD6CI6NjQ0UjdHwZIKL+54Ovi3SoJT5SslkLr0Fsc6tGQh+wt7Ybs8ITON0bnWPDAho2lZ9v/G5FlZndLByJdkCaN9d4NN1OnAJdFrD1cXunanYlLEFGlGrM1ncNpYZDLmvBZRCgbch5lfouTNROiPpOBVz+tZP8SW/btJRRZ4gjZfyw5fNKmCZUrJ5iCGk9xTmi/DdirKTn3knJdULQ9glJ7snbv3z29hDHWBwZf0LrBbQfqK6Jurp7DmFzwgkgUfB+KCFu69ynfvKAExjCwuArZOzQ25V/sPEmauyQ48u3vBpnIj/bXETO+BcXe3cdqRfpoomzVNKxjPc93WUITTDA59md/y3v6//2WjPjZhTByUz0iVnZRJYLXrLDK8ofvPVgtH+kvDQVCz1/n64Lyh5mOsFmNRYJCcHKn+nh/WOxDOSjiN/iT092/hI8T8kz6UrJbus/iHCt9u1QAOd8OBSu1Z9/cdB2cHgmeZEf2VVroOzkwlRpXuAzlT+R6L0XX9L0H/pE2bmd18JI7UykXW0A8m0+AIgokiCojHPhoceidIrM9KqHEQaBBHDrC00ss6IRNOcKPIrhicQcG6Bdg965NHI/8unl/L5fF8IVetYgOnNS+V5PVhWO9HmWNrJdMOSGO+V+4ofvnFsRml6fC1RxXUkJy8/lXPRMj86IO/anbIeDNDWrAkMDGQw2t3cuFyrtTQCAY8nv25E0F7CRZcc18e0CfQ1S5bG42yMSIr84fu//ilnuUITi8VSA6tiJIcqa3ly7E+fFYfbCSiY5vt75r4EdOHJx12ZJ/Yrpx3WaTSrcmQ0enxODv83s3WtJU2Ocey4gICQo/VJSUlZ9M71HI4WcL8YCL3Awy4Uey6X69bOAO3wK5B5t9lApitLOcY5ghbHdnQ8vq01/trEx1+VeQEWYNAIA8nB13//05jh6qHwCMEWLgHrH3zf4EWwcrlcH5CwZzboxJ/LBvz+z961BjV1puGFkJUEQiCEO+EeIEAQgiagIOaCBHAMgkJBoMCA5W5BKSjlFikCFShgCK4WEUFcZdZlqiJYuTjMrrKVUWfVFgp13KqzDn/6m0v3nBMu4nIOCBwKx+/5x0zghOR7vvd9nvf73pczsVGQzPWoLfhFojAzs38l77vyqL6pqanSPzq6LLXFkIVQAgFEPTbfN8i6IZgRHFBoXRTE47NZLENslDhDCMm5//Lrr387CUFiZtYlzrgX1TFy9OB/pv5wYsH7j7EAYlbmve/ihDyGxeIDMgA2PjTUq2VtDW6n4m5fulb6OZwfrv3Nr5WkkHduwgLNhkyWVpzr7I7NfJ6eHlhTk5Hxi7jLDIE9zIuTT1/J5X3t2X+vz2+qf/TX6/94CTFmIU7O4anqFxWt9vb2QxmBP77+9tujEC6QyWSbQddirijNzmgD7CuhJrsTyJ4ws07z9+40VdMA6eAm51ddIeuLF19eyvSMEDGNpzZAYgS9B0igwYBEmkBb5OCQe/lscYSr6yBEOBhhRxFUfFJ6bsS7I702PTP2x5GRkdcQZRbg16OzuECex6yBPgsOJ3Qj7ClIU/EKj1oxzKyGNqo+EFqbHyRdLZmOtd+puNF7mZ7khN1rf3xjtSINfjdGoRwImgtgbJfswtztkGub66AtSBMwXeyMNZcDnA30FaLftmJHlGQgX+i7t82gGjCLKPKLpKYl8zrCPhX3nbjWo8J2953Jic2BOYNkSvXTxKbFpEDaIcnek1LEsDAFMYto/NKtptbt5QvzByRR3eOCzbxONycevh0W+ug40tVBQYuQBNPV32fBKEqpfFaLNa8UAA/EjP/2hkEH3iCR+UVTp28NfjAc2wzItb7gkB83ysChXMIbHMes49JFgFzrC72IAqEFIBfhoeVzY3s/INc6IyEwR0cNLD6ip4b7+KNXXcBqx6GQxdFDrVRPHfbOttYCq4/g0LAQHhhEP8yrx8Hjri2xMT09wTERiLgR4w/7zVFe4nKuj78PGIUEh5pOTmAC2jIRxBcP4tElgri8mprgGGd9anvo1sXMGnHG2wq022zGUomzDJCL6JLLOtv7MEps6idnZrzT38gIkGcpXsGde6Sd3rUFY+2f+Qvf/PQNWltETkRGiAVw4gkuuQzYZ0qzUNZLfObwm5aQyvZRMdySxZWrzbTjABYtRquZdj1SpOec8sWJaFZQQJ0F44HyKhPV0fiwqUwAm1FypYoPoUiuGPKBU+FIP7GQnGyloiCqvFMawRUJuifyOwAAIABJREFUTDRnOjpNAl4haSDcBQvhVZcyO6eMxT/CcKLSLXVpWg1xP4jQHI3tA8DRIDjUvfyjuCj5nkveGJtKIqmpuqEbpva8UI7diyrvvmVTnNDMtEP6NoNwFSG9uj0wQ6KAeCVEmhAb0Gd7EOt69aB+uFl5o8DRIDis9tZnYm2u1UjuCM/xMHCsa/D1E+6Ja/9SXBP4g+ctm3GHtHe6tkx+fLRCwlWG5PZAZUiJqrk3PKFivg8InBbYoKQFmoNiILoILrnovN5uAYYsmCt0UigautWmMqddDUHslugTP7WPSWrSE1U9Z13MNTmhHwmrFtAKDlchzgitDFRjKd6rIbLPoNYQ4TIyEF1EBklmOFZht2xDi0KhqevT9znu1CnkuaVUNWXLzVT9Z8mHxhOaBVAc26C3p9aAVDOsIs/QSn43ZzZc7UOb9kLR8rnrgXL6BZSRCQ/dtqptxXofVorZQiFpqFWbGji2hfuw3UpCcu73ne9CMsVSKXmweObeLwFItpBUs6yyl1+fo9Vi4WpB0h3cVJuLWkZW8o8B0UVgWIY3paP0dJ7OOncGS3JTSDRLujs8neAIn9VYVnUirj1SIXmsCmTzl+s3IcneJ1UpRKqhVoVCDuWAJX4LaLUEOWg7T2PsXV0sUEYmsuSC8pYdq8hbKPBcHTUtd3cZlClCYsyvJCVkz125QtE6BJPsQtg8yTicUKPlNVv7446qq9oCLCSVfatCObAnRNUBH2IV1X1ZtJrJurc2KqTGaFl3gRA4GkQmlztfWYp2U3L5ihvuvElTq6a7U2WqMTuGJc7wnJ2fuxCSvf71AtJ0ydZBWwA3vtDbiKdsTT5FGEUmh8HTx+BIZSaHSeU8kwFS51j1AdGGQvft8xQAR+Pj9DO2NnaRzRc30TmuBakftrPCcYykGhA324oTJtn9Z69Owu0Ca6LSY7tLP5GSI7iC9eHX5HILBHqChxU74DAFxSnJU1hUzUcq6mwGSFlBDldd+ORaMzgY/3H6GXVV28ZDF1+AJrfG3AxWpAnmm0jPkYzV2BIS3dP0qF3+s5mioDZJpLesLA151e8TH9yMBnn5lFEoBCMj5A9gP0mUV/sUCVPOJX6G/xepViGM1HVyvklA1bRyvjsQXcT1MwLq0fyMCUHilSL6qr77dzu1Q/nizl0BhUF8NzeWsF6MOYkcJsZEf3zE4GBxgraAyWQKmC7Jy+yjNteDLa3ZlhsfH8/lJohumi9Bruakx/WNKkZRqX9eC1LNQsNCeC8CZSMxlypYBoBcBPYzbqDVYSZyn38WbrU2j4Fni5A0aMjwU3d3A6cj+ZiTyGFyaUvLC4YeFwReG+n0TEry7ITSSSl5OQhDuoeWdiaW19YgCMy8dRA7d2RKCyqtHWcZtSakmvvXqYZDYSjc1rSRlAC7kLDY4s5G9TOM4mv863TXnM7waBIalfe38oPYieHDt7crW1KOn3jR3vf98PDw93K52fJgr+p73dcel+/v73/qi7/EjT4vxrosM2kMzwgzoOGzfR3jy8+5LF6L0AO3TojtZxh2oTnFmjbiFkecvnrdNmEklBhi6Kgp2/JHbrscnRiFQb6+vjyeL5/t5rfU2IX5iQ1sPq+ogeHV1ta2q+HBf587YJHL6OaO3hILGk4fsZb1fdTrcgmBe4BdSFjQnE4fQKtxJpeOsvE6tU3RCqjcJnWZxrDy+pPOC+ssaWr6dNOZcUFLDgxaOGuIXm2lrktTrw4+/U9UM1ylLfMk/gxLvNIzdfSL3uDWCaFhFVyfjnI6ZyItsb1IC68lp2HAe5LOxZpIrBffMcAzIMGCDb68sWW5k+5mp+T9SfXWaTLfGx3xWBmo3dn9cdamuHU507AQFkRwUOzC0khgFxLXzyi67p2GokREmfV7LXF7tLpTSp+HA9bcxmSbbfkN9FUuehK9If/SIRMsF/7gV1fcHGn4fcYyFmrmDexCYvsZ8lKUlWfEjfKvw08QUPQZ/vZ5aVgl3t1JrVXBq4ud0FOqWq8u8ZTzQi8rHDcwDEcD2IVEjlwy1lAY+l2+MjytLJJpYf3+Q8kYsktPtP3McYb+amKXlVeq0kOEFR+zwradCNDCc4FjNAACdiGBgegBFD1iV9HKouK56GiO/LvlWLJr8s7l2N7UulVEFdrWJR4xEZPbcYNHxXV9YzgawC4kMDC+99+ZI708Or5uSluZcgdGWJmcNOd23OWvXA+RTK2bsIPjhPZFZZmTOs47WEgGyg42ddgb2IVEBVYNRlT+7wZ9fJNSWBB5pmFUd6dMXGEnb4WBhVQdXiXJw3ThmRXiHoY+vqqHInOWoPTRmM4qVQK7kKCSy53/7HXWNJqf0bP25zPeez5s5dmYYNegxD3hK5REVnVlysSbWOVju8//9cTHFOdZIxSqH6qwBXYhgcnFenoB5dwbfN/EEW+trSHzHci8HIN5pPZi5PGVVXhpjuwr5Zc1Mf52jENsL8tCdx0+5QpwuvCjIxfGnmosVRjiv6eqtZXdTmzGIlfMwdhe55WoIg1Tn/r9ZzHDonZ3ZLSOFQV3cvFfouUHwC4kLrmw1MDVyHXonkL5H3vXwtTklYa5m49AAgGTsICJEAi3CIjcpRSQSyoQoBU0iARmVe7qrnSIBQQrVp1KRERddBBaEXdhaplRileortNZAdFxrWvrjk5Hd2d2/AdJdP2Qzmr1nC+AfN/h7Hl/AMOB83znfZ/3eZ/XkHM1ZRJaFklLBx83Zc/4AlJ8NcNPfuE+1Jim5s//1X5Z2f5j05yHvUksrIDyWOzI3myZ3hfT85CMT9LUWTMsjChZbJK2B/omKpo/KknIZuHZgKoLV54ldCGWgUIHxiXA75sWWGVkNhbH1LeKZkhq2ASlDowrN0BlT7ozwfNecL36hgG7ic9DyDAypgFh4tkrBpg5PVfl+LBeYJjJFXTWLH8wtlUBswH4sOyE/gMZG/ea0og9QZ7WXicfehNw4VhyhUftOv4HrlVvFnSjpDNVatgKdzZcy3CHDTqH5K/Ykcmn2Pk7ez88CaQLPcUasnccR3BB/un2HamO7HxRp3QUyzzMDEoNvwCLUziKn5O+Cm7SwVMN/nmeZU8WfcQCb6acCiXgwhBcjuILsO4mW+nKtAIQrtQ4aDn5QJMZh+GZpuR8xNG9fWzRdPylZ0Hpd+C6mkrCxWMJrt299jwEXL/kfaeOxtVBLTWiJxvT1FmW/UI2S1IHxn15TMPHOW5snQ9CHEmetbXGO5O7iB+4NMG3AIU2u36VtMjwB5jIkG74xmhbRRaRGnaLmx6PlcIewuflhbndS3/HWjYGaXkYfT9qEJFGF34B+5+z29ycEhkWKszQ2ZC4w3mWsHtUljrtkwx3iNOuSUqXcKHOLH7FdoOa9cavxkuOGchdxC4g2Qrbshw7TWLtXZWXyQSlDM8Ex1sz/iS+qLU+phjmpCZJjhitaLdm73RUtnfHEABc0RcH5ui8SgLFgNTZrAtKrdu7LkfWXYI5dyq2Vt9ODHVhzDD1h+OUrrCmdNVf/NNFbiyejgoP8wTZaHjs2eW3fRG5jLiVXLA2F3tM/PQvIxMkDUNBYTS623/dvZSBMrTuqxjRnYYWXCE+ud07hWzS34vCox6u9QAKpMNIFxlDcIHbXF4ZniwLB+wMIn39xmIoqVH1WUqaGgoLl4Coc/dLFbDVJlLV/dqoUFYJukXCxMvfuYMbimToBD9wOYg984ETsqxL3ih+QVojnIiQOPWcgKoM7RYnlOQWhpihksLIkYp4ObtHEyZ8E1EF9jUOJeDCDlyO3h32PHS8HajspseDMArdaAxUxg1D/KBshccONE5GP4eBy6lHqxfwWb7Nbpnf7ksGHKmwkUx0YQguCEHMiSuRTVDwiG7NBkaVYSyAkKf4otYTMU7QzHJqhiuL7ZdCLtpxyBcArubGoiDSRcYtIG0ubgZkaaZP2+MEkS3RKsOWM2FLbN7NiXyQdDQCzoko/nSQnRmuN8O5r7Wt9N3n8lKtvxpLusi4BaTNxfO5FcxBlU1lqa+mQAXyJrPHS3g0vVNxK4/vGtBBPTOMvNP7zoRZLgB+b2G7pLIG4BdvrKs+8p62oJFAJyDT5zx7/2BHDqpsu+yltAsvTKlhdN9/7Z0W8jRROFaqYOgeH94ba83+wWxDT626CZJo6G7Ps4UdCfafCYhvCs++dzcX4KIF8rWDcKWGsbjs1hdvG1DbZTMShaaqmN7Wudljz7q8FYO4I2PVxetEooEfuLzvPQFPc4k5AZeVfKoJfAm6HPz8xvqi3xLytlnqtBQoUWgylxfmvnzzKE7+1qlAiYb78cuJQiLRwAxcDuLP/whawmDvmerACbgoN4F+mIGV4K2JO6x/E100UfgDA1HopRo8m6ix4+hDdmK/Aqx/Cifgwg1cqfdOgsCV7y/mBlyvhLdl0CliI8838ugbphqUQaTXxsGXLPN8dSMV8dacHGpReNSuteVmwMKLpwRcGILLE1QHeO2/x5ltCsVX71iRD92eYJRO9I9Wxsp+vZKUTFB5I9IXnkwmR2j1rMp1XwfX9qjR44B6UMrizDcJ1sDl7YnEHPJb1Jrj8tq7vjBSg2537Rvp6vvVLNe6r2ugn5EGmfMmvTmEcDlYXJjhmUrAhRu4NOIO8Bwyl1aVNkFdN1bWSWHoMitKx66ETbsOTpPwMAL/hXtG49x3wM7+by1MOLexCljfejsQcGEGrtBTKWD1E5cmy5RMlMeU5ZlDlh0sWa2h0WW3OGEzAwlvVDQfArSe2QnDltstTqgxsyTmL/sKqHx0MxDJ9QD0+AnDcJfZ7J6xomFLtp2VnTDzQOMQXK1LKzPYcdcFhFtmybZkI1o9RRLzeIOXJNUsC0RJ/fTa22UQ6JkowxcfxtzqzBS6ZBWk9zKQ8K7Kccv8N+YtZAXd95UgcN0JJuDCLJyDitqaA5FSP72GLr46bUU+XAclcYqpT88MUhdpNya7MjhH1VvoHDVfYS06ANZx+geTaUnMwqX9aptKgii4XhZSq88xONYYA5UR2k+7PtXGreExjZl0ZmZR3P6xvwDJ4nk+jyrItCRmYS1qOAT6mHIPLiub+K4f+yfg6OLVxdX8sybSV2pkdOtdzO084ss0oRGQJgTefFQZQAyt8Qq5urtaiS64aMeaUajVDG1mmDzZM5l8CYpAL9W+K1yMmfymwK0EFbiBy8goMnYhU2/epjShS2C9ogzhg8lGicf3HhKG1003srdPzvFp7AIqG0HgWleTRMCFG7hodtiEcOtlamq/x0liMs4+TJLkjVo9J2Mmb4RtQAWo7xHY3JZE5vxxA9exb/d9BRrn8hQjIBqwnRpMrjKaZw+uF8VlvekFfO4/FKEVIFt+SWlbersLuY9YhWHLA90mE8rgmhpM/jo/ZA7gcs+41rBTyD1dQGmC74DlMJ0Ca3IfcQpK2HT9IljuhgS4rFxCo86NbS2fNbpoorDJEYGci3IMvgMaQairbiAmGphF9vJRsAssIuCysgkS17aooJpcqLp3sBZgFcU+uPxB4FLe36yWkfuIU9AjRntCzIiDi5LFVl7WqaSzerekKt1IRbucQhtcpuRtmzMJuPACF72GoRx1cNFj/3mjkfA1kZB55TyRGxJDvrC0kLxcGIIrbNdaBepp4fQEf8SawBljy1UZoS0SGdDoIFGaYH8fUnP93xAa4d5Pn0iRf7nodlcO7T0z43YXrdbN4aPyiQiteAQC1+n1nWRxK27g8nv6RLEAwGVlK8xM640pnhGyzOboz1LSMoWoaPYgw3N0n6vPhVxIvNJCvwWRFlpNtbsarg1Fm2fAyJtD8nOPcGAKDzzCErD8qbmNbGLAkNDYU74QXi4rKxdN05HcmTSTzYqtY1eimFa8sgquPJBZPNEWYgiuBUHFT4dNgN+VsWflFra7TEaFqqVWHIQQS+Ac9OW15o9BqvjKAAIuvMAFXSWKGLis5EHi63dVXpY2uCZ0o5UCOUInsIlNXw+YTCXzXBgSGsLVAxejFwq4KHns32701/EsbXCN5gncUDqAvGBHdR14XROZRMYs+EsfxG1CzSoejC43Qd6ulUqJBdiSJEcO60V8pH5//s6/rwRZq/ncIR4auIXhWMk4eOQEOZ9KyiBKv/ddtCVq3cmaTjUfqUSLEjad/Rmokl5FrNVwC3pYUrlQ0kIr2rJm+e3/nLcAXNERP6Vy6VH4rhAm/vIzsMDtSCXgwg1ckDF/nwti5DIVF03UTzonC+j472M6/s2tkdrb7NH2qF/+tVCoWRLvocYGG9QE3kw5FYoYgeW8eMuBxiFLel0bft9yfa8AKXTRHfvjYDlMKgEXZgGxVkOv9UJZByQ03Cpzskil4fRscCQPKXTRWzz3S0G70MjLhV3YtINbL+tqipASDdjK4v2ONJYxGOv+b+2CSjeahxJfSDl4fw5aNOh18h7Zz4VbQHwqP97a9mU8QnI3StYuvpI7VOxqqfrJa6J/tEiEDmNIOYjR3IVGYn6ClrsBtKQS3/WdH7iggy03Qdf1scJoi6WFJpPXRORRfU4WKq8v5ejdYQ/chfZXDnehkZifVAs8BWEsre5Wy5HBlkGQ9+PdZyHPZ2CfYZJORA7rC4SIoIvS7F4FNn9KE5BxLswCtvzOafz2TlS+phRfkDfaX+oxk4kTGl2nI7Xpx7LReH+nRPGuSO5CIzE/X1PvC6BUJfrimSYhGnWALV+kv9GvUvyXvWv/aTLNwmmpCx8tBUorl2lpoVSwSwuUtpRyrSC0ilxGCqbIfcEiuhBGLuWqiTdmsVTBwVtYwBUUUccoLhPAcZ1BHXUmRie6k+juJpPZH3Ym8w+0X9l+OMnO7vrSV+iFfHznZ9Km4Zz3nPOc5zznfaWfLEHa+EtZDXl+a+FnkOmt4AtC3xDsJ/wFVxznA3UQYNXw/L20A2tC2cUnRGMYrBCx31u60GL22qL4putgFG8N/A5q2KO/1qJr9ugFYY42zzjBhV3vHmyiEbtex64FBAshe5/J1snG2daVCBdupim6KwUTXPeLWcfJ//DPJisRXOsnuJbZlgxSr4kj2J680INdl2q0QZaVHWMILFebbg+7f5y8JAbEJk4ir6OykIotdAFqlfDMNcB/QrgTgsr7+mkv8woPnVgWmeIXU/V0dw+8kN9sfV3kBSJofLaRCC7cWX9P5dMxgObfod8bhO6GsJB++vC8SV0eaF6FBVddXTAw3DzwQvI2fgACZtnqTQRBA3/Gy+86BdiONYt230118/CFsoNRP/VEzFxczX2uJSrUjFGT61a+CSVU1Q1A4gmCBj7NbyD75NlAgH75zU/dLLHsF1JsXLhatZr7Qb9QocaVuqyUGHcqaiyDxKO1yc0EQQN/tozcl2VfzXyKOwddCC8m7K5OJopAVxtc2MBrNGOPPMmNoCE17FEyAIk3/25bK0HQwCGiEQPk5Fijj96Tu3HQhXCT5J9kjGqDIELLnt6axVw21lHgTtAQiZMvgJB4gqCB0+Dy3vqZGthmn451H4aFQRm3CzpoZXZhQv+Eselou4hHYELJk6njboM1kDjO6z+CkPjwzMMEQQOHwRUX+wNwg+9xxl63ielRdjBUU09KEuwFDYpGfK34l+zO2GYI0LBiyKhhkd3ixsuDhac5LCK48BdcB+QL5wGAwc6fThrdJGCOkFka4+DTqmC7EWONbqz44dmzv49G2p+ERYzLHrZLhFx3JK9lwcKjOgIsxKP5pjxK/gugq+Gfas93yxVsJEAoyepUjkMck2Q+3n+5dLuk5U083z6HI6hNL70x7BbhGjI9CwwWyohtLlwar7jdBBh0WWuT58N83fHKUxl7r0j1kRCMJ+YG07PD9FyWpu+NrM3e31vM/ulFLxY+dMd6MjVsfhmwkNjmwqX5CPsKDwHKlejJQUGuy195rCQ03LtZlO5vtosBMjds+04wEYDYOrTSQfvRZbM6fvKQoTjX1UsoSK58cLLJDFIrIcBCXJpH3tbTgKUTCzs887jLBaAQrlDS+lAmqoPg5O5TF3wnF5I8MZIkwwAVXVZ2GzZPDnVx42VruQpLAHhGkJoAC/Fpngfkt/78bkTDEijaneVqApQtBw0/kOq1QfYX+jePdVz8USB82xUi/Vju+truzpfFMqutuf+PralUl0YXCczPsDZNzshzieDCJ6Ixr0wHuOSW3soz/a4tCb01fXMvoEpCr0hFxogklPSLW2K5a+ipfTqHrfEqVz+ZKtW4tDSkhjWDWi4Cz8CvcYuBorsWpmIuLcSFLugRIJS0X1BClIRLG/ydLWEx/5laYdH1eW8jDBGR2ViBlYauoxoiuYLBo4CWi8Az8Gt+E0bpTzvfmScWgzZk1ruw1fYJKV5CCb1gYosv0xlz/kt7xhZd9ZdfiZkQm18R2tHuSk6iy0pDj6j6jMdeBJ6x7hCNmGEgohEociGj1IMXE5Z97xVWEkLEVptsxpD/P6ppSH/q3memon0QVN4y2h3TZVWON8k1yYucmrVbhALxDEKdBq+IRpz8Fuh0q7U2uTnFRYrQFOqAYE9mvAimrLOy25IXDP8/rkICBjg/XuygwajyMg9VXGiXJPW7ZOS1I+VLGeA4i7Xp/CCBZ+DVsF67HOCB0UffcPJc4X4ImZWj+rKgY9oLZr+kjp987513Iz15QvmebgUEFcq8GKHVS2/X57sC16BE/anzTh2xzLX+jJfffooPQrsPSfsGXFAXUgKEklZdxdkE++v8b2kWL1XvJjEh5JiUc53xUHI2ts+5OXTXFbgGj9G+jR9oJpa51p1hxxjEIAwBA+Odvo3sSWIV19+WKvgQqp8Wy2ykXtr8FXAzy4+lMepkfJjoQqNFNRmVHLqvj3PDCwmRXI9PB11Gf1xI4Bm4NYQlGDzPBHUm+kGBt5P/9RTqhCRLdxMGyViCCZWdWduXobZTfPMNM7I2tv0pNIqWjd0xTfWFRTk3efkIVRlq0MPRdJRoufDcdDU8uEoDvatnC48N+Dk1tnl5OcebpYrxYAgUAoMyZIOG5Zey3opf8+tgPs/MbFRmOjt59edUvgKpAFlrkx8QLRd+jURvBV3AM5unez9tcCJeiPj4Jqa1X+gNT4e7u1XHlw0Z6HbmUwiVoXoJQ/NYQsKnO0xTx2zJy2m4jUeeYFAPun20U1Rwgk4inBCvRgmtzwRWLcxJ3WHnkXc9eFENfdelem0TlPI7BmXMqezvYyH9jK+apfrIWfuNl8USiCWvPRyG02BDEr1FegjU1Abv+ttwDNFy4dY8fSWfj4Imr/5Vu7sYPCeFFonF4FRuqiiBSlt2oYxfvxdc4fasTiUfTgM7KLLDNNdyUBjglOSF5EpuKGmg96JceTuFqApxbDzNyH5QT2BOr7mWxnKK1/nsmJC0zJk6tHCngVB2mx0o49cejS2FYbAGChO1ZmZVfOHzvcUsZxA2SInGwqIIFFQV7iaIhbg2n6TS+yAwHmWLpS3OaAo8uFE9pVeqaxqZkFLVESLZjAFeX4ZCpRsWkmFves3SPn41lJWW6nj5GiRk+6OrW4CiObs690YRVSGODWHFzoEYUBaUprwucThWjPBYjNiRh71FtFnIYyUJ4iMYKwPeEW2Nl+rlC/E+GFjDgqLRolHp9WxJUr+DXZ2UmN39UQS4KmxO2UF4IJ6N2vPtkWmAD6Lfl1Qfc/DKpAc5JFFybso0qQ1GUSgZeK/pyYIb9e+n6YkpH94oULTBqIpiM69acXzhz/XF3g5NXraO6+fkMdRMVIXr1cgD2dXiWYCX21LXvENTF2Jrtg72NdsqwgTY4yUR4/GZI/KJgPfLKhTuhLzroVIUDPktbNpHR163piWGOLD1IqfePSkGDrSJqhD/RsmTzykSQMHFxlKX47ouSkBoQ+mDQlk4bEVoNjPP9s4Ye97/jgJCzjtjHOoVJ8ApyqNoXZtC+sWx7QMhZAfJeL+FCgE3MYmqcF1YQM7IfhB512KlxV9LcxAHCqEExBT/9pNNveotEZAV4dLu1dRxhu9K9El9fBn18wUdY2WQt/P808XKwivGlCSqY9RQSanHqkvY6HITZKIqxDteKFRlqoNRUOo6Kz1R7BAlTVtoaQTtQ6c6tLClmnkxInK0uzJ2YIWLV0jAhLwSO+dghTyVwh4rqsh4/mFPFM8Bz4mtJLiupAEfkeBdl4gJMu7Nw/fgvLIcyIxIV+iOJ636hfWkcGNyOF23ChRVTPhLkcxDmN5FFGmlozYPXlTYXV1FVTTktSErWhf58c3OEU5+Hne14z2Equm6KP4eBQKxGK/Qk3A/nBuPfq6gCsiT8I88Mi9hre6JpfhRo4pjuwYLFI3pZdChtURbV61KqcnTJ0SjmnqiLveH/tZovsJ065yc4b06dUOEl6i6oE8HT8VLqrMTiaoQ/5BGDEc3yQTzZcOlJzSr4e8iJNZEw/BS1trnBe3k5uDx0YzK2NUKyVCoqRu/rYZaF3vr9eadCVWj0mu28Mrj+qw8s/iFcqaeav2B+Akt/os0YtsE/4ZQe54fiVwE+lu6vrN05QcMPHi5iRLjc53p3+xd+VNTWRYuQrATsrEkJqQhJiHI0iRgSCBhCauEACbEDqthMwQQtQFbAUFQpmWzVBRoGRhKQZB9sxDHZQaH1qHVctquqe6iu3qsGp3p+WWq5h9IAvMeaE+1JSEvJBEn9/sDyH3U+e537rnnfkdUccRk1dLrqWG8tq4Flt+W50FimYyUtYfOpv60TofJ7wmB6BUsY+BczMwO0ZSowkuNnI2Fi6dpkTBB7P3/w2XkYkNGnmHjxPBZ10kz5zKimRQJX/q4oamZazq14H7auDrlaGsm3QLd6nCrIWzRcR3B79PyedrBuf6y8ggSyhzldCSlXmi4TV41IlxTfCBcdiFddPhCZuPi+H1vYVeuGeNBHFE4v7TQqhlNZMZ8oCsCaunIFcKEfp8RC9kzoXHi4CvxWu4h04VT75nfKErOmY09I6Yw0UhZgCZFkHvUAAAgAElEQVRlSm+I8Eb6kHkqIFx2AgfJgoa34Y0M7BRY8OeTCKeeYl3cncXlQ/VTGiH7OgfB2PA3D/DLgxws1ZC/VjXsvmnqq8z1bnnMEe74cvyYNDrNbx+ylRDosotdIb6uOmO3h0C47EW65PyZkI2lC9rH/1JwB556auoBH0tg0iNSfVq+PaUe4OE5BgTcWreOKYFf31vwCwl0N9gGx/cQEv10JdckRWoma8uixIp2k70AsA6KcmmfMB1jRLgOqKqAcNkLmBKpEemC2TUc/nViFMOkBj+0A44SkMaPLZwTPKvjLnoiopYOg792s7uaZWnTM0f3CH5tThMC8VovWV4/oFX3jVX5pEbQofTQhDWhoR+qTxiouW/kOg0fDoTLvqQrHG8w6iGtbSg8m6nYpHcBi0bhgojlPrn9o6rK0p446KhlYqPTetjpyAe1qr8etkgl4+26hrOs9ZGgNJ2DhFyGFc9FbtaEoKsklp8WQCExCcYTREcHRebQj5fH5430XAHhsjvpWricccyohwU+6Wh3fWiaHw6Ffmd2iIWJJWcQo65eWOr+qkPr5EvG6BDiPv52R/eClR7do9tH+LV9z3rCqKumr0hv0LkGXu8pXY4f7c/1YbkxjrujNipwYAm7FG6hid3LTovGulAMQLjsTrr+05RuPGUic0WCqfqdLKIfnQkF2K8A8eq4gkFkhe6vPnFDGdnM817kIGXWKvziPn72kzQ5yjqRB52GUmMnlXVxCJdmMGDINU7ajoausfon/NROvz2419//5g9/9BH0H3CXB8h8eh8KRJt43uexgXDZWcGwM9dIt87rqIjpGVCeOtF7lS8TMxQ79uzZsQ5n5zVeecVWn+hSJYdncYsDEWsW/HAr7nlHtxQ62FnPoB6NkwSXJJjoivPW6ha9nzZHXrr74ErLEx8WkaFw3rGH3s5EoRzccaTje3b4dcqiY0v+IAjh5ecZPWVSfQumgXDZFRxxqbWCA5v1q9+PgQ4gyruTJdLYnV7Be728dq7h7Cf7q//YfbchOXL8aVG+x6criEPXAD/4EEKy5Ua36nAE7Gs/N+9DZrAfE1g8nCGqHLz7t6Xq/We99nqFsmREolsqKyU02OtJy5WH8UdF2fm0TRpAyHUJ5zuBW6FdAa2IflSQTtVvegDBc5PuVV5uuPvx9z9/AeP7j7+88c1nyZHNSdlFxcfMkay1+rt36eDoeRZjl7Xnqqw5keY0ZRTnmbNOKi0sjstujkz+LOHLL35+tXSlOrF2duzVq9/s1ggqReyaMIzOuKObnlaRXFhOAsJlZzWNztzd40dMOIBQOVCAZbOTrn2+hmtOTk5siFeBNH+dwTxq6TD4jJs5tdFikg1m+mCZClnrvzX3uGQzFqqHqEOFFKwom+30+T9/+mFZre5o+uGnf/0uiceNC6OZwM758EkvPwIINzuraew73a/kmfiQkeqPwdAw/4OrzrCiMxfUsAqt6larTOFgm8eDaNxIdGLX0efz/zB3xZCCQx9NI8f4FhV5x+WTAzk0f+oa8zZt7KpLaCGCaobdgeAX+rDNN09nWxgMHul1l+aqUiJsNqUYnluUVjabIIS917aC1TWe6aFvMFWyOT3KQhbJEQSbHSaGrTkDeFsyS28wcPBJbbtLvNwoKFueQ9DuDNb50cHS9GMGBJfcWwbGt2AyGCSF9lkxlCU23Cbbkl00PFuoGss9bcVBIxskwS4kcXR9X1sG3lO/YiN66an4gZxYMUgK7bNiKI8qvNTjYbO9HH6VqJpuSRnZR7B9+QztoEg9+VgTwsun2WorOVL3zUImDiSF9gkXv+DpNq6n3ibsyotpHBicauGLKQ7vJ97gsZZV04KQnnyMLb53lew02M+iA8cne60YMkeGHhQM22Irp5K5IvXchVAihfneLn2wKLmE3zI1qG2MsX4dx8BpPPptaJALiDK7PXa1E092Cb0xOmtrl4dvXcdc7cs0Zyb2/e4mFGLohTm1iIvA8c1MbnGbRs8GgNYMe9YunBvMLpp1M0OP+aS2hNmyzCD3954kYZnOaS9r73TU+XpYmVttDw6L3UFrhp2zK7dLWGNFdsEPfAtUY7nlDPdtcf6AXbbLZne3Jc17WJNbE3/aTwTcAuyC2DXsabBCjOkNurwwb9iaouXMCImwXUJtbT7EmKbgXA3Z1UpSzW2DuNUOuAXYBWWGBVwrbOMGg2dMRWlH32xslJiO2kYlaSxhX+eZlrH45TpuWJ7O8lcR5MamB4BbAGvsSjv5wNThO4jeROF52sE7/UOnI0iobXbb44iSd0bFzvZ1lFbEIHT92LwwGpN0aXIIcAtgnV3E1kfK59ctV5+GTnD+0FFLKJjq9ZIx9rlsw4tUNIoUUT5Uckephf2qLKjWmPlxwY9eEnDeAlhnV3unT2G8dviQpTrvDLT8CtFy/HRVtFtQ+3btrXMk4Biy4N4pQTgbf4hqoezQEMgNSajnBzBBYwbA6ziDbTTv3MzAb/k+GY5Q18B5doi6azY2RULZtZ07FLCE9iC36Kpp1USW96LniiVKozEZN7ulpxUooFsAv4BAzxy6pQrpidlq/exTj/yDzROq0cSzv42gb//9G72LQuRLl24otQfwHq5bOn3BPf/ppYJbQ2l00AgP8Cvxch/hL0xeFnlvoWy4AjGLmyVUnvpOyofyQZcPYvt2dJBLWFcvPNRMZB3EB/pvgVqe+Iy2nFr+iDtICQHeypFQcuLL2hdt1xBOUXiTDOowx4q5WeHqUzO9O8tHzJhn8B6/HAdlh9Klr5UT4xVxZIxJb4zf/n6IWrwQzdL+VGeQEgK8I0ViUjIPz2gmmrmIXAj168lg0dPxSPWpE4llURJItD6szfsjtINczNrZ+/cXg5Wi7DgyDVl+uAp9P/5AuGZmIWUEB9rgAd5Nr/aAMxe/61Mj8s+l0sh47rnw5PgXJ6rLoojwkJAPcO+G5UvC2ttS+EJVKXIahr0YTfQJWaFyoGQ4UjMj5UvkQLYANg4xeierrHYqvrL0qW8Yx19nZAuHFIuK8QiL4zr9fkKd8Kj+cCgLYhbqg925IfnCKcTlwecL5+KThePs4eJjsMPVJgzzDyz2Phei3v1YGi2RMwG1AIzv4H5u8MySr5bv3c6uiQn09Penwpejv9wDrbw2Q/I44nuQ/V/27jWoqSuBA3iTXAgh5CGBCMQ8QIEQwBC0wRiB8pLnJAozRoT4AKnDG6pdWArhoSCLKI2Iy0LLaIXi7NBtXSk+Vqivdbvq7Kp1x13conWktbPOdMeZ3f2AOHuTYFdCwIB2ZsX/79OdYbg5Oef87znnJjl34HRpZszxu+RkkC3SMCmv+JyIQaO2OLe2RzZWDJ6Mfbo346JpdrsaH3fKLfCvbViZFGsaslWIFthxBRdr1O3K5s8+GTm/f2VDwuXa4HKXsKAlHpbN1Ra9Y97GzyGhIafQGDPStyW+W1lsHrLmR98iqDwvkWuxMr9s8EBsUdKbDQnmfRpNGXvWEnIufLkh59bykcGK7hq2lIkJIdh3Bee2uKsTk4XNFYMb2mKKjPuvnm5Y35Tg4LBu+/amzlVJRX/y6xH8/ejBfd0hoSkqqaaFMq+W8TRCwtRI2d7KwNTVFzdYdhjuJN/9/6wzbRH6fszXfdua48JdpZxpHgUDYDtfYi+t2jVcGdeoj6+61ldXNzoiEPjt3DlaN1iWGhi4S+hbk6iWunPE82XIsp4hUpgayxMndpkyVucnEAjaevz8/HraBILYnaP3bpTpfWtSerVMCYFBC2bdwVgSjkIrlbWuqU5W+oaECPn8OL5QaX7oh7O7giPhEoz5fMU2PytJ4T7xVBfyvfN3BZKXFdPDKOJCIqvZInemmEtDsmCuKzAaQbAoPM4OxcQzhBRPH1dFfz161cTzyMzv3tnCXA2m2zcMBAteQhej03989N3rWQFToFMAAAAAAAAAAAAAAAAAAAAAAAAAAAAAAAAAAAAAAAAAAAAAAAAAAAAAAAAAAAAAAAAAAAAAAAAAAAAAAAAAAAAAAAAAAAAAAAAAAAAAAAAAAAAAAAAAAAD8P2AwGDSCIFgmxMwHBIugMUxQawDPRWVqtHKpSCSSqdVqmchy0DvdgUwk1To6KhRMCYtAxgBmzJb20TeBefmpjXp98269Pioqijxonv5A38gXCoVKb9dekVzDFLMQMIBpMBP/Pdxz57qhqMhIKjKZ4aDIUBRzSiD4oG6wYl9+nm+4Tu3cQiHoqEaAqestTeS9rx74XF6anl5bUlJSm54+80FteoaPQ0JC58r9RkPsgYsHm4XeEXImFcMXwJRwOQr33C8IMEtLS3vuAcnJyckj6Fz5w6UJv15WeP7ru6v5xSpnCYG6BLAKF3/PhwFjszU+PrYwwBSx9PdWra28G69coxUjXgCTwxW350OnsbkhI7YxyCWrYXN2X1XIGoxeL9QQ1lAl82Pkmmu4LAFbEBS9NOfI8Q4lW4O11xxRmRrHyTRMKqrldQ+XyROPt2oPL/9kd42MR0OVziVb2sRIIT+O/1QcXxiZokW6EK6xscfjY06bli4739+t8+KiTmePmfJD3+jOZ432/fBPJioG4bJY5JJw7OSQt1yCqeGsG0ETOfyLpu3Paqr//hsNahLhmhi9xoMW58Rs81Xz0Cdm3QjCkQcFps84ngooePBBoDMqEuH68dbGxo/eW9vfFYF0zb4RBBmTPw8JyLiOcCFck4RlXOlLZfPwfahZNkKcwGFyIzg5+CFcCNdknln1X+SpsO6a9ciFcCFclvXVDH9bknVs0FfKRc0iXGjXacK1wGlaAWkzj11L124J1+DLGggX2tVmuM5l1fo42Objk1EbHB3mSa6/H9sewdz+bBjStaBjIFxoVxvhOpdwLFswnVMxxsxjpwfSyws8njwZt5Uul8MHGnspqFuEC+06NVz+pcPfdQn5NsQJ+V2N+r1b+ioN+w/7+AfZHLo2flz6j1B3TAwRLrTrlHAtDDZ2pMgVjrZppTJ2e3JI1KE+w9Um/1xbY5fnuuzVOnzahXChXa3D9TjtobG5lUJnTINgUXkcrUwX2XztTv06l4020rXp8PFdUhZqF+FCuKxGrrQsY7z6OdFgEBJNa7j+Uvbh4NzxKaOXU0nSoRQeahfhQrisR65g41Ar9/n/SuW0hq4+eyw9aGq6ClacDJHPZdVFjox0Ov3l/1SQ8Qbd5I2fsr8yLIWf/WsgXK/Rmmtx5lCEPT8mYlA0usbhK78Kmjp01R7pcJXMtm8SVKbCtCniDg6TKaawCMZL6fE0giVhcrx2KEwn5pAn5r70HRcZdHPZzcjX4EmoLBrD/u+A0RVCW+FyR/ecf+Ea25q0l23frXRaiyqu/0pJ7hPrj7w2rbxYw7G/BzMICnOHVsT2VgpDfH2VocnFKWy11JnDo9JeJFcEpUXhKBe16qprQpWkyNCa6kR2r0ju7sV8aTvC0bhijsJS9jhT4SPDqxMjZFJ3L7LwM9QAjcXiklgsFo0q7xJctgqXz/U8OUGfshMyfoz6qoerfH+Vzs5hhyHp7er/Kvh31uHybIptFNk5LySoPI25b0aVfXlvz2hd3dkzfX/btrc5XxjarpJzJKy5DDOWtEYUK4VdUfEVNz+99/s604kvXNtSFZ/aLVQWs0VeLS+8LQGNJebIW1OSfYWNprL/xVz431w71KHvJgvfqp0+wlyOqFfVSlLLROrq77IfLpj8DZlaQ7xO6jx5J+Retcgd+wC94uHyLzykE9s7pZGo/njmzc8XjllPLZMqXO0Z/egsnrOqWpla8e4vTxmS/vrt/fvrGxpOnN58K9MYM/LFzaHAmjUiDmV2F2w6OUeTs8NNab1U13bKYCxcdfv2t50NDZ0ncjaXJhmLYnvOXipLVbarnMUvMvckKF6yxBr+vi1HN7RZyt603vQaVwszDTGVZ24M8b3ZUtubOnLdHwX+PJ60r1mvb+4Yro+2qsCs0u/35eXl50c9uxOyPu/RvyTotK9yuB5H39qWIrb7DDzX3XcG3KxXXW8tOxru9fwrP5UjS/SNv3k8NmlVZ0L61rffWeSxJDfILczF/+OSy023649UHq1qDGc7i+2/sU8zJ6tr75d1ZFrJs/qkB5e7FLgF5eaSJy5wid6aleHTdGLV+7FnbsQrdVIma27xIq8KWnZy1MELbctLTzeYy+7hZC58wUf+i2t9Bm7XL6/sL8sLV2ls/EhAEvGf4TtGiyKD8erD31qtW885lBr8rt+x2gn5ZMUjL9zmeKXD5V+6LVFsf2f2Cv+stNx66PIcqOx+3v1CBpfTG9546Hh2/QqfrW8HeQSMjT8hV2/mm4/jY2lOS9yis5pyknr6f6bUacX2jV4Mqkbl3bX33T+sNad1k5uHU8DCiX3gJk68MIA8s8vidSvqs/uqdrVLeXOYaTEoHFlKSMeFmMKcgZLoME9z2SdexjRwky8R9nnJ+pWZfp/GR0ZMjVfLf9k716AmszOOQxKHhISEhIQkmmBIgoFACISESyDcRG4qFNCABOQS0XBbQeqKilzqBZaC4IIoDqMIiiu6XIpSsSteBy/YXal22bVlVm3d2lmmdTrT/ZKEbV4Qh7zvm5DwrZP3fCTDOSeZ53ee85zzPP9T86L1XV2+oZXVbasT9UDvM+7m1z0BKSHv2Ca/8ToZCbv+3+Gy3HMZtjih2VONTHBafdmJ8TbzR45OeKF79qt1pcGd16kM/YJtGte1/KJN40f2NcqkI2f8KJYIt+E4SeGSuImHKfIM0TytphudQRWobia2d3inJ1sbe+FQtPDaqLyZXnk8r4RJNjUEmZkjyghT36+XhNOMh8BtVgx+txMQMgakjMl0PVyiCxmLNZY71pNnfyh2Q+CyJbjQpNqJMALYNKLLO8y6PzRHvKlhaOxoBi8Ia7JGDPgrnUnoPN87ckYS2rKcJ7Q3oFW/Vx2WIcphps3NmS9K+0WnY90VaRLbYyUhm61KJ8G4hEriHq2f1pTl8JcpfUtjElQB6vtxEpC0CGnjm79QrS5F9XryQ7EnApctwWWHIo6n5IPX75KbVyVmDuMx+DaP7szpUYEPfXmjwkbWFahvNSTQzLoYJ1KbpH5ALVcRmGmWSsJ5BeXflA5EnRbbW3wwb3Bb6Y8fVYedE1C3W1BWqmcRfAO2TBRR8EuWBofVEW9+9NGvAK4iMQKXTcGFEZ99mAHaF+qYxzID/R1MGqhjQtRAr6bP0tUbm6Msn4mVCE3HR2iO2+6mgS0yLoGlN18sDe6Zm9t1KEK41sKtIWatUNKc+byCwNdaSLABL+Xwnf1LlwYHf483P/KthgvL/bpIjBxo2BRcdqTaW2GRIENgxJ9k03CmQiPhxgOZub4lZCvUOXjB0lsNRFNVmDiXEI9dMU+VPXy9XmedyTK3anpfsUMtE/7AtRAfT0iDKwv1FqNhwKtQJKvaJwn9eEmF82f/9u8MrfVwTXknI3DZFlyc9I5SAdgQVsUcMWEIBgN1fSUN5vGtsixyJHf4VCrFBF32Qu8HrQcFVtj8ksAoUjl5zc/N2SK2KFFfPVdGkq0bYY4h0EgHH39cGoCXm1agC4RdhQiu2Rxczm1xJzrpkC2MiVUWh6dE3Z5U3iVba1uFPFn7fgoetlOX94ey4kvStCtoBkdH9W19pUhCW8LW/nYZr9D6IciRyuffPg5f62DyZ7cILiSd1+bgwng2rAepWs5nx8HCBRjonSuV1ofz2jlWpWzGQBccBC6nfyqt9NLqtCtr1Mbq8XQ8bnm2sttllay5lQxRWPndt65CFAIXApdVcOGSXU9ysZZtYdAtxNQ7V/7ImrMeLp2OwZPNZMNCgGo7rj7HXLngYk5w1X7KMtXTAFszskqGbkUIz7HyJ19spDkt/OwbELgQuCzsBVIzYQouHOdSw+1cEQtqoLqlkm5eado5uN0Vlie7kU2BeakITZMM5F43J7SoM6u6SN4qGykKRS3H1g0Zbxm2TH6om/OJV+9LmF8ZVvigJyJybZNwucLABbvKOnv6DXwm4sOd6KUxc3Zs4646V1Gh5D6Z5e308dJCvRujUjbSEGIP7RgV0qSOZ8LiymCWRAsEldGEEiofayosY4iGJyQ0M5aLMWxnZ8ywtbAuMBgMrIlgUm9wj5lRIRy7j09RL0pBks10iDzPYOtwObJPWgYXJkmR19rJhEJDB1KF5InVY2v+fPjw4TVj0s/lx2Z7mNCdIUt09KofjKQvZnXt5VwBHRbXYwXD06XTw7lhwRncWUEQFkZyUTdXqNwSF246kR/nQgTOMmDY0umB2QMDKSsqGhvjV23r66Fuh3NhZF7uVQ9AXASXFPHm+TvVohZkXf5drQXakap35cjDQjYYcx2J4VoCF64lfXz9N9CbY3JQX4Y85eHefVGubEDAbcPZpgN7q3pzR6PB8lI6Pb+zNc99NXRjiLqUPfax6wWDF43Ksz6JOfnX3wwOdXd3dLx4eadr7N50cGcOC+YyTE8IuG/GdaGExbfh4i3gkvguz7AuAAMdfvv2bdea6qynwZ3RPnSo4zXMvaMGyFvBJ/z8ct3UuoU2VV2+CkwXkBW/+Plim+r65zjyJJ7NnRa6pX6yjWwBXPahDe3ne2DO2DWJDwebzyqIbskLAm5iIUXB/vTZWC6XgIVK+q6vJ0ITKnAk96HpPvJSg8+qetBcfGQD26N2U3p6QkKNIsLjbNOuEanclwClRM9SqU27LgxNcnmYBxMqalkE34KsqoHm1CNsV/YGtp+fa9SZ79ulT+MFMAeiJZquVKEz8FDrf157L7ai+pfD+dB6rrgib3B7/f6/yGOuNgYXirgvcQfkZOviETBcBgsdKO/bDrkC4h6tOnBBQRTjUZgF+TY02omDFxNrmy5vKcgHOzpddMAIG0a5zUnYkNlPnS/7WDD4wdgiAFdH/1+T1gLNBU/yF4cmBNYPqgM6g+gQF0SQDSpIpu690/dJlVA5A8PkfQPUXzZfmB8IEADx908WEms86p9dLB+F6s5RZ6U/E4GoC4VPcvzQaOL0f6jrYCqRxTRHUEOeIbc9uPCKvfIc8IIOTX/CuVBi1UpwHPUHgUZ6qzjBczMKlDeIsV8dIvn0q9bGHGPD0zHKWnfVkCAbQxy+ZuhzkZdWz+9RydVfAGQBnQKaTIuJEQ44A7WOREn9F73B1yHHCPzGmGJP+ORFVGhxZnAk9Izib5Ua6f36CMqHgT4oO9rjk8MVUc+qz/cZf1k6Nb+g6t/zcC2IRc03Oyex6xoujIaGkx1ENBKxWFuDCy5xd27PsVOB/sbG4OTmfeo8GEIs72lVsyQUD1f0gUPRKK551RpjDnTaoP6u1EvQNdzJ7UKm5nfknSqZ+tYHg4ebLto+iRh46GJBNF0Ho03Agf2ZaJKJowIy5C3NQpGsKzYiPMkePBDamRS6cfzUUd+gJQcbfME3pe2x7smQr4qoPyFwmWocSnOKCLTL0u8Me+COBwVFu4cS80GDbd8qbz9uupYEzXFTnIkp6DHunb51+IU7dAPn0JLQ3Rr/5KZ0oF4CY/BLZmKffDr26/4SqGbVNcVmuEx+TnjcFiU06cln9vnt7HRHe9hEFOek9OK9KaM5WN3H9PunMUMXEhxRFtxkINfFCFwLfSRJHkGS4rU7EmOJxmbkLExd1x9kPBT9ekFmtlGpE9R51cSuP2j8b9o9GVMNQpioy9Pvy6yszGaDL1mmuNhp9e7uXhV4h8rMqIKtl8IlRQwGEPRgv0XtnLz/mGhy8piWNo+8ewcXXDU9KL9APdDk7ubiZIfAhcBl8XFGyPFqSCSFfVKdaqythnOp+dMwz/gOV1fSHxO3TE4fxsBBii8ftIErzYPRy8atpRR3/FSUAO9LQFvZwGu5YOUPr7ITcXDaBKiQOLWKBYbLRzV5zTXETB0YmuNZ231vNGi+rKW/deSMpI3k7GCHwIXAZWlDJ0n+dQVccKLdc3DmtfF5BjqZPfN7qvHdKlPV2w1zNAHyMuLAwStbjQMequYGG8bHYEjh7zcJ8RiLloSmKciNW3R5How2gQNeMRhGAN+M8csmv2df4pidvLN4Y14Kt3DP9fjP1u1i/4oGDz0CFwKXiR44lPrqCnA88j/2rjSqySsNSxILXxISlkAUCBDZghACgZAAhSAgi+yKCIogUZBVUcFSFtk8UCwKSlVGKFVErXWjFreCVsBpzzDqcVyGHrHi1lY745k5Z/7MmRCYBND63e/LJoHTo/f5oV+OH9F7vM9973vv+z7PWKbgGjsaPZtpWw8XOAO505pucaxa/QrCsdwHokAULVOrvLbi3UmRTCkUI826Hunsrk3gmiA8dDISm8uRODllSRgFnuVrBhYfs1WjDmDEcSjKfx4uSDj+cYW1MiJCckFyKZk+1qzvBB3gdekybkooWhJbn8K+dR14j/GVY4OPeulQpHFFiZcbeltGFXT7R09r9hn5LQoOB/o159eWOWDriwi00BQusJ+VBoraFgXYqlXe0DuWc2ok+HRY5THlIjiQXJBc+OcNPH56U0HPGFa2MAd9ZaRY/kvRNQvMdfldbE0U5Ulk8YAnel+WnRTSyZmWtDNiwe8WBILaBCE4TWjR/td809D7WZmVm1dJhAbOz0gj7fGuRXyahQrVe0guSC7cPaE1f33/eSCTmih2uOxPQS3reiahKWiJqHFG6Q94Z354639A3Vp06FLcScXZTmvseible+w00C5TLAvngXr7MarvabFG1rREU06zX4xKgQ5ILkgu7A8b0mnu6f2lmGN4mdVgQp0P+tiNwr4sQJ1mj44GberaGK2RpBkSIx7I6AP0sosq6dMaO8lvdUIVerfnnLxhNcY/Qg+7K1TUIdYFaOYEgxgSjEjq/hMgud4fcqVrQC7E0IZT0fBl0/lATJXeGNXzlBiduyBk95/Qu8LRnlX9DRqY7E1FmRKgenF+7WcOFtNyASLy2i8Nok9YlhXsbsCYalLY1wSZwL63L88UL2YAABmXSURBVKOIr7PmD0iu9ytyRajZcemTCNGcCNY+R0EBA6ehfTBhawD6G0jWi7ahPahGGaJebzMNJxCRk3tpLqoM1iAxZLoyYx6LHRMNQK91jAg3EuP9U+lm0JM9fquJ3hxILggtyaW47WlpRPSVWI4TiYaERjqH5t9Z/k1TqRNWfU8mz7hOgeu6rTz02KEys/Eg3Itg3H/lHKKZ+59bUXmPcfKGpRo5gCkbiKJe9h5ALunRlANAXYminyYYsKaTzk/6oZ1HguSC0JpcHdfve/t5KHxOP8ADz5rWwm/febxtiUgiZGK7B8dcwxPqQN9XCrvIF9hbrYsvX9FoRNCztWmk0OkUSqOpDR5MKXQKvdCn/dMLfUB91Uc01Q0YCEIyspX/LP5APHi0X2sAzzmpHdb3D6+fJs33e3/KHEguCK3J1Se69LLdwcGBxWKZg2CZL25vOJB+0jJekMTNS8VXoxh65G+BXteRQu/9ta4ocllJml7yTZoDaHERFRvZbPbGlpaIqIhJREVFvX6IqmBXRorbX478IgQqgy+zlU9whCgPr2RO84qNkd4O7u7YgchH8ut/frsBLAzFWN8/CvvMh5kyqZbEhuSCwCVXquR6zYPq6up7P9dg4Wh5qT+lXhRuR83Gt1AwdvLF6ighZHPLL6zAAPkw/cCVAzvL07u+l+Puo6596zFIT++6dfzMkyef/u+/BWfRPS2t1WBPy+8ZoR4l1qeFz/pkV8ndJ1erf76HM5CaezW/PReq9f1DPLyrWzejY67BquBcaxIkF4T25JI+7fhiR2tr0o4tOEicO1h1tINhz1SmO5iWVbYLowCI8DrBxEUmlHhuSklJWbJn04kfFajfNImhV5j8WH/iw+Hh4V8+v5GK3oFahVuycMmFECjyjNA87PZ3jgm7m34cbm19hjeQLc8KbgjH1fr+IR6stnArsJCj2kGHQjGQXO8TuWTSVHs55hngwlmVDvU44/y2nS10cFkncZZucwOF+p5SJVyu3brioI7MwMBMasdyJwWCnIqnEDT5mdqXx2DM72FidAT2muMKI8b4+OeEdj88fGd4x6CkmCp0tZ+HPxJjjEITzhUfnmxcoG+3DlMuSK73ilyvKPYWEC5oSq/Eli4YLly9rcoZ5y9gKjijUN+VyWTS0Qm8cc088VE29UEDkY4Jz0dx3ZmyFN8kCZVhb8Cc+GKNFXLxyEVejJGNK87fBx57QHJBaEOut3A0MA4Mb+p24GBzfUJzWAqXKdUl8OYfsXEhv25gylrybUaAR67tR+aCt2EpYc0ESC6I2SOXTGGUk/DI3Q+na8k2rgSs45sBcpHocZ8cT/CcspYc1RG5XByBmb+sqr9hIQmSC2IWybWZKygr4VvjFanaRDwachqdYXIRzKJ2XaxP1NJaUntyOVdtWG1tCMkFMWvkSs1MHPrm4wgz3F5Fm4h9Q04zHLkIHP+SI5522VpbS2odufAqECG5IGaMXAzutwn/yKEpaQnUM9FyW6jepgecf0a8yEf9WUHTGoxm5JLnXFd8YM4FMUvkmu9UuuezUL6fMocrhfekRIsDjXGrs1Tq2Wwt/HSIMRsPetWmGUt1Ti7MgYa0OL8cnhZCzAa5RqVPg5LWhHTlxJGVCpqRrFdvSHZW75IzBXtGmoQrcTondLVS8gbop4NQVlwJ/qpPqpkZjzLnHlxyYR1cOtbcajGF5IKYBXKd5foGFykk+ZSfoBE5uSNA75RM2idJBl1yphBemiHw9TwkKg2fu2AQ/x3AT4dwrPNiBpWp1N0HBzjOPXjk8mBZhs8Daku+HaikwwoNiFnYFp7LCpmQ5FMxGRBeJ2gyJDubXL/bEbTJmfTKcWy7+OLFxZUrHR1vjozc/BveSwo/najXZRJEi8jur48aKHP3uXlkryUWa+98LlRLLn0Ph7Ike1SZ1Jhr7VVvD31ILoi3Itf45C8yRd3ERIvWqwc8r+1AwX3WQpUqEYrC3b3g+m93/cWVThd8PFbAxSUnJyc3J0fZO/+OfX2qQAioSwh3Bc9E5lHdMuKPXNu51GW7kqp4ifrIZSHuvcAAdWz2Lo6FkQviLcg1Osp8yhAKGQyGqxwMhlD+e/bUQ7YVNlPpEz34i8J0SgX0PdzbktA6ZmNOf+2KXBhLxoVZTIwZmcOz5nA4PJ6Sd97w00EsKk8LqDJ0wRYzz02w9szWCdcvMlmjfi48+RA6+7IvoBJiXJWgy7N4SK73iVw9Ts9FGaKMrAuttbWtF7KyXj+Ialu3FFBBS1JjblO6f4xK6Vl9C/7AMAPQDT1xl91InIMoA3ESSv/8jblnqNAgRJvBjjI7RIeLwsQmv7t+4XQiPzNQSy6biH354BVd8Z6DcXozSy5oLf5ukovplLH24X05enuvXu3tRT1U36sZvtED3nGd3xYWZ6pyLjRW3D7RgSala+1KVixRJ8OwiVo/tByIvnmlI+XeNFVmJx6smi3qyWXUHHb4n8vQy0lexpfTlJ5SR64Fji6xkFzvHrnGnz5f+9KcX8nni73lEItRD+0vHwiKwa1hx6H9uX4qr1VxVGuNJfE7aTpZ//UtxCdF6LMJ2Ty3wwfZsaocGeRj14RcRF47mC5K7cOPbOfMqIbGgpEcHiTXOxi5+kQPzf0K6XIUykF/86GwkBfV0JYFKhWmFn/dzSerykJInNwQUDw6zfcM30IXMwjvy6mCv3vzDNWMXRNy6Rd67wdPNJjcJaFTBpEzQy5cdVKIdyByMUT3+YWKSa8/AdQDQoqOKvFaZQ/awCV6fRRBUTEbEAv+yUN5wPqfFNzQrIvQRQj4FxgWU5O91ImfaUiuOZSKuyeoQJoZmHHqMVnD0EUyMkS0JpfbtqU6FBKA+MNELkbG/UjlGQWRzD9dDzj6yGSZopWLmlWt5bYRB/PB6sKg67f4MTqYQqZRt++cQ09/Rlavg5qEDvlAo5xLsaONBxV3e/60+//sXWlUU2caDiEI12wQwipLgDABTAiEfQ9hjSBbWRRBQEUTRQHrSCiCaEcUDquiiHAUkDY4gMuMSwGXtMpWYLTS4lJH29MzP5z2TOecmTn+CJdOLnY65bs3uQnHHxaT3wS+hPf53uU+7/OUZTVpk3Uh82QPB1uijnLWmNK/+tdKyFySpwIN7bqpPDJbIgTm3mYu+fdcNZVhVA+0qYjUKCpWuxDV/CHoYWNfA1lRVFuAx1BSfXZQtxATXBiWz4jJyV+PhWhB3oUc5d++2hkm1wQvDHBZ/fBmiff611uTuW7cjKCrJyBAZFVhmMkFVABsPFO7ijVwggxtBX0+QsArhNLdlktz1FZ115Sopr7CeM7LyzlDM8X5fW6Te9rxn3MRjOlOYyjvOzPOkVsCLZwYiA5e3x94/rAxzEM9OUyVQkFw/bQtJ/YNirfpX28LuGBux03/fRrYPdTVggtXeKBmYUBFdD1NA0+DxfgAbIyUm2X9c5PhWqELIiaF/McNM0KN9/krOgB3onb8m5/FONOMz9AgqHFtlTr7NojJeCenJic8TL1xo//FPyaz1JrJQt4xa+KBf4LoyCmxuT4+Vx64pDWHNVPniCHH2gp7wKdjIr+b9g6mGkZ6OztruKD3KW92bpJmjj8XgxxDqtMa19KwikjjfREocPFa4nBMHkjJ/ne7hdqAC0qKuBhMWQCOLkQk5MiaT25IP125te5PzGt1s6MNEeEW2LUh5O31HBz2Fw3fTaDrZ/Erryy06cABF2SeVRZ1nblU9G/euqR5h5Ot+mgjO12oFS0sTQDwz+jCCyMSmTE5NlT1Mo2Bha4kdFnIwRNogtYnVqa2j8DauCexwo+iU5cZZ7q1MctWU2VoaiuOG5cIVd+TjeyG76U4QQh25vV2fQbawtps6IxJ1s/iVx642B2HvTSTvg2TwgqaD7GBJp95PaosSz1OiPLGoXguMNNWoevx3CRDs0c4iZgkLp+bzYzPH81loOMTolcPFAIDDWHhVY3P0IwdabnZkiLQtQ8bXFCSYDCYAkrNjbgEZ8cV89VWwoYG/OLb492cxT0YM6FncNWEqjbEcpjEuBzMfji/P1zfdK08cFnX/c3LW3MuMXWzH8jnWAGVUk9hW69cbUSQkqovHMl4D2WUJ3t8uF68Wj2XAjK1DYqIfRYq+27vTOgoVpprOvgkvwd8hvaiPkR9XWjMOnH2Dpppos73jxW+P915M7gjapLRHd3lH6Rm14ZElvt3fTTM+d/b7Cjvz2Y3CILo6FawCc0NRhYyq5P0deGKA5fJ+1/F4IALYtHqD0iKQKIGTyNRgyiP7ARYSouLIbLg7DMR4WpYgIYs2xPVcRO+kgxrGAHi3KQHET2aQBmwKjmll9WTiSHHE/a3prawlVqCC7IQXMznoGQK3EUVqRfrnULoBqg/RGLxxceuplaINv9/uUwqC/S9F5lli/qCMLjBsPR61e0sYGBiSDQ312ez3zq4PrRfhXNpIi3LeWcbcM6Y6VuWqLbJNySfPtXczkaha0Qm8R08GkFzoxtQDY1/qUeNjSES0Tw5PKFxoirUU2iGKPDaucxOJKAm4NSQ+s9AEYFP617EpWBP8yAqnXH26ZSnjVJbcBGIQfXRFQGon7cq8sz/4nJuWNBqRyIJMoZ+OTbZLcW1MrvWM2AJIM3yMkuf7kJfDqYnGltKwCxK6VaULymXSQYWQeJ/rjbVR+1vHFyWq3BHDMmC70s5uhE1qG6uA/kZZhhCve0+6YMNvdVZIXxvOtmRSKUaOJLp3hYO4add4yai+s/12P3s/SVd5FmBQrvJ9s+vg1DpKVSUp9BJ6M9BQuxmB65s5MLagwuiF+9IbUdnOiWbc7/0i7Hb/oknkJOTzc3J9H3JDjSn3srBVIkLCr5So5YfGajvx5DfG10H/nKpLHSuPJHvSCUhWzcqvPJp/o0/vkrUzxBXPrgIBiG9rYFgp4BD1GAFRXaiyB2vGxLPwnUfXeyqt/SvPiimyeU0cXGCv/2u2wVtW0PPiWzgXwbhQsmBcnAgb0wPuxecBwwnNsv6FY2n+eZLOiKIqgrSLMRulseFdQCX6l7wUjWZGDvbVsyMun7fm6eOnvWKqC4+eFB17JjIhifZOcOHitB7pUyjoXJ05oJsE1DES6XyO17/s0qvRDl/1apVKryGnW24tLXl5Vo3PStq5YMLMs+K9c0E71vNRA2ILEbIHQsodxFVOyXkxXfvTj+p6HvQdSausezhg4nD41E5tZKNPTaA/VdrOaOJBDRdset4wM6V0nrGr7PLPjHEgmxgurhyqbr9vR3CnSxf280uwEodwIXcC9ndFCx1OCubnnZJ6fmhZ4pLDwoKntxVjFflTFfwhCMYcnAfP7pQjfG0giXuOr4FpWBsPSM5f3PH0bMx9vaWkWVj46mF5+7nxNIM9GG74sFFIFkIfl+LKvI0EzVIqxO+meLZoSU/EZ0mdpHsUHzNcP7unJaWdVcef10T/zlPxDQB7FZGZH5taYABGMlt54GaveheLrC5dUe9fzFD7sBPtkCqNf/Jhi87mzHtZnHABa0X7/9LhVCNQClT1O684caw3/S033BHvCePwjVTYgj/CgM/wdx7Q4iXRmx0uVxUIin9bGjNmjVDVeuCN/A+3bvdp+/NbOnoX283uAhE+a5nqsIQ1oWoQfSwHOifsVYnqGtmzQ2gcD5ub98mygvgLloAoeYfdi79fd8uLT2N1zt9U5thhQ7OLZJHVW1PKuPSemPs/5BWNjG6JzW0Ro3drGZwEUhJTl2+8QHqJLCsTNjMgO09PdtVx3aHYay0uCDd5PsBJlEZShL0+eRhCNxvDhC1b3I2MnLeuC3PxgqG2c7pjXL9wPAdAJeqyGvYGg/MBXCIGhCLlqYIlalFF+LVBSOuXfPzMLZB2PwCs+bAKyDCiPL66ArpT/Po4JRtCpw+3vIi+uTJ6D3rQjs2bUOSinIZ4CKY8gUFzUYALwUs5WClmmMrX486I7C3wFgpZ863W2O+08r9VwKmsKj2y+Imfepa+eBCCsOxKzwTnYgaUBOtfDRUZrewXAlSVYxOvwQyF8GQXnz5+CFrrDeMMCmyLRs/d0Zu/+1cExiGlcsDF4Ho4Pqk2TlguSYwdjOhc5Mh2B0Tie866EOB8f0GuX88YMnXjzTeAXCpirydCp9rVkpdiBpQE6NcEeoiXXaMyvxa01Cmy1SHtYN+Ge7oymr+17c/vFTyV8qULugALsjAw+tWat2y9OhVFR2vX5Gmdr+GxdifHs/FBxciPMJg6QP3HQAXZJ7SGH0frJRwiBoqdKWNzmYKl+eZwHbxa80Fp4VIucnI7Qyk6GQnyT2U6cKEtQcX8vjB9WF6YAZbdzl9mFtSq0hTz6I3tBBcfcTTQvs4z+eifqTxToCLYGjrtANk8OIRNZDKcPKSbyDHBp7XzUlrHlYyS2r/nIa1eALZJsa+kFDcdTA9Ovd46t8zOoELYjlUx2bnlzCVC7qd/D1h5tSdXTQN+19Ej95Pgjn4x2fHR0VqIE3qXysHXKpyzKsvP2MpgxdXUYPk6CFoyK513j6iYwYYodRNDezCXOoiUC2cKqMCtfTnWrRv3v3Vv/6+lHWEBy7E0FxcfmeqjmKtS5cI22RIfK9ahmuaREBNKY3j3dfccT0xZY8KTjfpI/ddABeBFV7/u8Ci/7Z3tzFNXWEcwC00K7VvrF0dIC1UwbXQChUoBSxFpLVlpXXCYJNOdAgqogIOUIaxIFNkiSyObbyYqQNFHaJJM8ecmMyRLPHLEl9iwhyRObPtw+Kn7Yuj2b0FtS3Q3qvEjOz/+87Tcy/nuee+nHOef6ZP1PC3sRnRR4taB5PLurI20Eitl1OrkgpuSdJmeVkSapN1n0pSUXqYI8s3Xxvp/vPA7g20kouc7J4Zf6sgqSsr5BHVcffb8iUbj+3TZ/jfTj+YGHpzTr4548dtrw+J2iGNGCu9/hfJxRTsP9FbHE5rogb5Z+39K7oH7Np3K6nWWFGkqra+4azTSaNn61mh4v1rOqoLS0IC3l1ObFua0lg/LvvtgPd+1hSSawE7Ks5RN9B7uamEWu3lkKymstLBVZ0JjACnlCfeZfwhnZyW5SfoxKNtWxv7MAVqfiSXYcbkMlBOrgW8BM3wB3tmmKhxxN+OGgvYjIXC8YaOXG0Tt4ZCycmQSpX26PotEqHYzzZKTEFR32DpyaoACTsRyS2s/nlvUULcotu7aScXOezyY7udvWXLudvyA70jDKmsumx3GvVpeYH3cuKJLUecd0zcyAk/14Waqjt/jONl/LwZuXyfohV0Ri7ixrC/db22xPcJvjz9yuf+S58ERyWYW04M9aa3nc6KedXlmv2rcsgr3C4itT7t65RH+e1WwZwMvdFp1zaVhM+SsC5Xfjj3etK14T5hO+8lw+3d3gefTSG53Iu1ihK7z5duvKQqCc+fseXuwUeh/KJLm9vRMO73kuCRXQJhxb2CpOXcmJlb78pXZrftGHpnbR6Sa14kl+TDXysVPgVR2x5IaCQXq91sLDDdD/MuvHq/66Nb/nbUmLw3lJsTu4dzcstMS8uVkeSHKJdPXinClOWbr3/9ZbJzX99+KSfQ5Z/NEBe5E9Z0Oit8g3c4d7SactVbKQXnD63IELHYasmDNq+Dr9mzg0pyka9kbEJ93XCjPf2SqlwZppheuCw/JjW76uDGZOeJlqKEKIrPSMHtGY6r35emkK1XPPL43u0i51cpibYf/ubs9hmWW8J/Mbms+l9u/l7sUxD18ICezgpzptVxw641eQc5fm7HaLw0wDtjNi8qge9obThzyr6yx0ROoajxKIIcWVO++W3TufTc1UP36mLNRGpRqObIFMktid1nco4mXSr2CjcVLcXeWHtociMmllU/cNjz4IuXnNx5VRhF7aCjxJm6CuNII9lyn4aHhadmq0za6uSxYaLdchH1cYa85dQfGszJTfqx6bXvlDFTV6wwZeVXqiXEmVh29ogjrh25NT9wzH+PjvmUMx0bfWjm0AkSFDd+cWxaVdTRLeN/BV4ewYwWSNc6KuprP5uc/Pc0RwuP96zM3ZkzNNKwXbMrbaGIR61QKpsnShA6WvcNjq0mwh0vfFJn+aA72rCxQpdmnXwa5Jgf+hz82KaWOKrzYt3rF4n8qu1wN/zpLxW29fx0054zsKnOIOPbRExan3zJ9cbE5WZkLPnOyp62ybNhMr1/udq+mjwTuv6IUHxCnieCbGa9ZJHBo5ypYZFEb7HRmnnNjpZ2aryiGIgoEoeQ0v0Lm8gvOV+mkbSsM440exQvvttcW78uXiMTysWcICatDhohLdLFbq+/0Hx38eJPTi1zl0RuHjES0XR8OefxA1CQzeJ58ESbY2VpHBrjDJORJ+frNPF7iV+67dnwCzfqK1ZYPrZxGPRfmrMZAqlQJ1lzcfjKsccRhwY2GVfF6tbK84LwuDWPsotjnVbR1KMgKtW7mXarelqYiPZQ6unAUU8uuHrS2YmurpHxpTYrWRmSdgdlRnOsj8O1xLd4RGMwWbMevFotiKbZeYmWW70bTlxWYl/vzJRHiIKCn22QIZJWYOu36DSJEon7REg0DkumVMyJZmLUmmfPXf4Koj5PFDbdAORSYbVnV3dXXH3mw5oK5y6gPFs0nxaz2M/zSx45Kgpisp7nn8IKDo0mYk4FVb9HBmQjs2DuMn1uw724hrPm5LfYLNbcBgQAAAAAAAAAAAAAAAAAAAAAAAAAAAAAAAAAAAAAAAAAAAAAAAAAAAAAAAAAAAAAAAAAAAAAAAAAAAAAAAAAAIAX5F+d3YuptAGUwAAAAABJRU5ErkJggg==;" parent="1" vertex="1">
          <mxGeometry x="940" y="243.74" width="93.18" height="88.52" as="geometry" />
        </mxCell>
        <mxCell id="_kBkWf4S2Q3xh-xKyiKY-123" value="" style="group" parent="1" vertex="1" connectable="0">
          <mxGeometry x="1103.73" y="130" width="121.86000000000001" height="109.25999999999999" as="geometry" />
        </mxCell>
        <mxCell id="_kBkWf4S2Q3xh-xKyiKY-113" style="rounded=0;orthogonalLoop=1;jettySize=auto;html=1;entryX=0.791;entryY=0.113;entryDx=0;entryDy=0;endArrow=none;endFill=0;entryPerimeter=0;" parent="_kBkWf4S2Q3xh-xKyiKY-123" source="_kBkWf4S2Q3xh-xKyiKY-109" target="_kBkWf4S2Q3xh-xKyiKY-111" edge="1">
          <mxGeometry relative="1" as="geometry" />
        </mxCell>
        <mxCell id="_kBkWf4S2Q3xh-xKyiKY-114" style="rounded=0;orthogonalLoop=1;jettySize=auto;html=1;entryX=0.333;entryY=0.098;entryDx=0;entryDy=0;endArrow=none;endFill=0;entryPerimeter=0;" parent="_kBkWf4S2Q3xh-xKyiKY-123" source="_kBkWf4S2Q3xh-xKyiKY-109" target="_kBkWf4S2Q3xh-xKyiKY-110" edge="1">
          <mxGeometry relative="1" as="geometry" />
        </mxCell>
        <mxCell id="_kBkWf4S2Q3xh-xKyiKY-109" value="" style="ellipse;whiteSpace=wrap;html=1;aspect=fixed;" parent="_kBkWf4S2Q3xh-xKyiKY-123" vertex="1">
          <mxGeometry x="46.860000000000014" width="30" height="30" as="geometry" />
        </mxCell>
        <mxCell id="_kBkWf4S2Q3xh-xKyiKY-120" style="rounded=0;orthogonalLoop=1;jettySize=auto;html=1;entryX=0.094;entryY=0.633;entryDx=0;entryDy=0;endArrow=none;endFill=0;exitX=0.76;exitY=0.882;exitDx=0;exitDy=0;entryPerimeter=0;exitPerimeter=0;" parent="_kBkWf4S2Q3xh-xKyiKY-123" source="_kBkWf4S2Q3xh-xKyiKY-110" target="_kBkWf4S2Q3xh-xKyiKY-118" edge="1">
          <mxGeometry relative="1" as="geometry" />
        </mxCell>
        <mxCell id="_kBkWf4S2Q3xh-xKyiKY-110" value="" style="ellipse;whiteSpace=wrap;html=1;aspect=fixed;" parent="_kBkWf4S2Q3xh-xKyiKY-123" vertex="1">
          <mxGeometry x="70" y="40" width="30" height="30" as="geometry" />
        </mxCell>
        <mxCell id="_kBkWf4S2Q3xh-xKyiKY-115" style="rounded=0;orthogonalLoop=1;jettySize=auto;html=1;entryX=0.58;entryY=0.047;entryDx=0;entryDy=0;entryPerimeter=0;endArrow=none;endFill=0;" parent="_kBkWf4S2Q3xh-xKyiKY-123" source="_kBkWf4S2Q3xh-xKyiKY-111" target="_kBkWf4S2Q3xh-xKyiKY-112" edge="1">
          <mxGeometry relative="1" as="geometry" />
        </mxCell>
        <mxCell id="_kBkWf4S2Q3xh-xKyiKY-117" style="rounded=0;orthogonalLoop=1;jettySize=auto;html=1;entryX=0.333;entryY=0.087;entryDx=0;entryDy=0;endArrow=none;endFill=0;entryPerimeter=0;" parent="_kBkWf4S2Q3xh-xKyiKY-123" source="_kBkWf4S2Q3xh-xKyiKY-111" target="_kBkWf4S2Q3xh-xKyiKY-116" edge="1">
          <mxGeometry relative="1" as="geometry" />
        </mxCell>
        <mxCell id="_kBkWf4S2Q3xh-xKyiKY-111" value="" style="ellipse;whiteSpace=wrap;html=1;aspect=fixed;" parent="_kBkWf4S2Q3xh-xKyiKY-123" vertex="1">
          <mxGeometry x="20" y="40" width="30" height="30" as="geometry" />
        </mxCell>
        <mxCell id="_kBkWf4S2Q3xh-xKyiKY-112" value="" style="ellipse;whiteSpace=wrap;html=1;aspect=fixed;" parent="_kBkWf4S2Q3xh-xKyiKY-123" vertex="1">
          <mxGeometry y="79.25999999999999" width="30" height="30" as="geometry" />
        </mxCell>
        <mxCell id="_kBkWf4S2Q3xh-xKyiKY-116" value="" style="ellipse;whiteSpace=wrap;html=1;aspect=fixed;" parent="_kBkWf4S2Q3xh-xKyiKY-123" vertex="1">
          <mxGeometry x="46.860000000000014" y="79.25999999999999" width="30" height="30" as="geometry" />
        </mxCell>
        <mxCell id="_kBkWf4S2Q3xh-xKyiKY-118" value="" style="ellipse;whiteSpace=wrap;html=1;aspect=fixed;direction=south;" parent="_kBkWf4S2Q3xh-xKyiKY-123" vertex="1">
          <mxGeometry x="91.86000000000001" y="79.25999999999999" width="30" height="30" as="geometry" />
        </mxCell>
        <mxCell id="_kBkWf4S2Q3xh-xKyiKY-124" value="" style="group;fontStyle=1" parent="1" vertex="1" connectable="0">
          <mxGeometry x="1103.73" y="280" width="121.86000000000001" height="109.25999999999999" as="geometry" />
        </mxCell>
        <mxCell id="_kBkWf4S2Q3xh-xKyiKY-125" style="rounded=0;orthogonalLoop=1;jettySize=auto;html=1;entryX=0.791;entryY=0.113;entryDx=0;entryDy=0;endArrow=none;endFill=0;entryPerimeter=0;" parent="_kBkWf4S2Q3xh-xKyiKY-124" source="_kBkWf4S2Q3xh-xKyiKY-127" target="_kBkWf4S2Q3xh-xKyiKY-132" edge="1">
          <mxGeometry relative="1" as="geometry" />
        </mxCell>
        <mxCell id="_kBkWf4S2Q3xh-xKyiKY-126" style="rounded=0;orthogonalLoop=1;jettySize=auto;html=1;entryX=0.333;entryY=0.098;entryDx=0;entryDy=0;endArrow=none;endFill=0;entryPerimeter=0;" parent="_kBkWf4S2Q3xh-xKyiKY-124" source="_kBkWf4S2Q3xh-xKyiKY-127" target="_kBkWf4S2Q3xh-xKyiKY-129" edge="1">
          <mxGeometry relative="1" as="geometry" />
        </mxCell>
        <mxCell id="_kBkWf4S2Q3xh-xKyiKY-127" value="" style="ellipse;whiteSpace=wrap;html=1;aspect=fixed;" parent="_kBkWf4S2Q3xh-xKyiKY-124" vertex="1">
          <mxGeometry x="46.860000000000014" width="30" height="30" as="geometry" />
        </mxCell>
        <mxCell id="_kBkWf4S2Q3xh-xKyiKY-128" style="rounded=0;orthogonalLoop=1;jettySize=auto;html=1;entryX=0.094;entryY=0.633;entryDx=0;entryDy=0;endArrow=none;endFill=0;exitX=0.76;exitY=0.882;exitDx=0;exitDy=0;entryPerimeter=0;exitPerimeter=0;" parent="_kBkWf4S2Q3xh-xKyiKY-124" source="_kBkWf4S2Q3xh-xKyiKY-129" target="_kBkWf4S2Q3xh-xKyiKY-135" edge="1">
          <mxGeometry relative="1" as="geometry" />
        </mxCell>
        <mxCell id="_kBkWf4S2Q3xh-xKyiKY-129" value="" style="ellipse;whiteSpace=wrap;html=1;aspect=fixed;" parent="_kBkWf4S2Q3xh-xKyiKY-124" vertex="1">
          <mxGeometry x="70" y="40" width="30" height="30" as="geometry" />
        </mxCell>
        <mxCell id="_kBkWf4S2Q3xh-xKyiKY-130" style="rounded=0;orthogonalLoop=1;jettySize=auto;html=1;entryX=0.58;entryY=0.047;entryDx=0;entryDy=0;entryPerimeter=0;endArrow=none;endFill=0;" parent="_kBkWf4S2Q3xh-xKyiKY-124" source="_kBkWf4S2Q3xh-xKyiKY-132" target="_kBkWf4S2Q3xh-xKyiKY-133" edge="1">
          <mxGeometry relative="1" as="geometry" />
        </mxCell>
        <mxCell id="_kBkWf4S2Q3xh-xKyiKY-131" style="rounded=0;orthogonalLoop=1;jettySize=auto;html=1;entryX=0.333;entryY=0.087;entryDx=0;entryDy=0;endArrow=none;endFill=0;entryPerimeter=0;" parent="_kBkWf4S2Q3xh-xKyiKY-124" source="_kBkWf4S2Q3xh-xKyiKY-132" target="_kBkWf4S2Q3xh-xKyiKY-134" edge="1">
          <mxGeometry relative="1" as="geometry" />
        </mxCell>
        <mxCell id="_kBkWf4S2Q3xh-xKyiKY-132" value="" style="ellipse;whiteSpace=wrap;html=1;aspect=fixed;" parent="_kBkWf4S2Q3xh-xKyiKY-124" vertex="1">
          <mxGeometry x="20" y="40" width="30" height="30" as="geometry" />
        </mxCell>
        <mxCell id="_kBkWf4S2Q3xh-xKyiKY-133" value="" style="ellipse;whiteSpace=wrap;html=1;aspect=fixed;fillColor=#F85200;" parent="_kBkWf4S2Q3xh-xKyiKY-124" vertex="1">
          <mxGeometry y="79.25999999999999" width="30" height="30" as="geometry" />
        </mxCell>
        <mxCell id="_kBkWf4S2Q3xh-xKyiKY-134" value="" style="ellipse;whiteSpace=wrap;html=1;aspect=fixed;fillColor=#F85200;" parent="_kBkWf4S2Q3xh-xKyiKY-124" vertex="1">
          <mxGeometry x="46.860000000000014" y="79.25999999999999" width="30" height="30" as="geometry" />
        </mxCell>
        <mxCell id="_kBkWf4S2Q3xh-xKyiKY-135" value="" style="ellipse;whiteSpace=wrap;html=1;aspect=fixed;direction=south;" parent="_kBkWf4S2Q3xh-xKyiKY-124" vertex="1">
          <mxGeometry x="91.86000000000001" y="79.25999999999999" width="30" height="30" as="geometry" />
        </mxCell>
        <mxCell id="_kBkWf4S2Q3xh-xKyiKY-136" value="" style="group" parent="1" vertex="1" connectable="0">
          <mxGeometry x="1320.73" y="237.74" width="121.86000000000001" height="109.25999999999999" as="geometry" />
        </mxCell>
        <mxCell id="_kBkWf4S2Q3xh-xKyiKY-137" style="rounded=0;orthogonalLoop=1;jettySize=auto;html=1;entryX=0.791;entryY=0.113;entryDx=0;entryDy=0;endArrow=none;endFill=0;entryPerimeter=0;" parent="_kBkWf4S2Q3xh-xKyiKY-136" source="_kBkWf4S2Q3xh-xKyiKY-139" target="_kBkWf4S2Q3xh-xKyiKY-144" edge="1">
          <mxGeometry relative="1" as="geometry" />
        </mxCell>
        <mxCell id="_kBkWf4S2Q3xh-xKyiKY-138" style="rounded=0;orthogonalLoop=1;jettySize=auto;html=1;entryX=0.333;entryY=0.098;entryDx=0;entryDy=0;endArrow=none;endFill=0;entryPerimeter=0;" parent="_kBkWf4S2Q3xh-xKyiKY-136" source="_kBkWf4S2Q3xh-xKyiKY-139" target="_kBkWf4S2Q3xh-xKyiKY-141" edge="1">
          <mxGeometry relative="1" as="geometry" />
        </mxCell>
        <mxCell id="_kBkWf4S2Q3xh-xKyiKY-139" value="" style="ellipse;whiteSpace=wrap;html=1;aspect=fixed;" parent="_kBkWf4S2Q3xh-xKyiKY-136" vertex="1">
          <mxGeometry x="46.860000000000014" width="30" height="30" as="geometry" />
        </mxCell>
        <mxCell id="_kBkWf4S2Q3xh-xKyiKY-140" style="rounded=0;orthogonalLoop=1;jettySize=auto;html=1;entryX=0.094;entryY=0.633;entryDx=0;entryDy=0;endArrow=none;endFill=0;exitX=0.76;exitY=0.882;exitDx=0;exitDy=0;entryPerimeter=0;exitPerimeter=0;" parent="_kBkWf4S2Q3xh-xKyiKY-136" source="_kBkWf4S2Q3xh-xKyiKY-141" target="_kBkWf4S2Q3xh-xKyiKY-147" edge="1">
          <mxGeometry relative="1" as="geometry" />
        </mxCell>
        <mxCell id="_kBkWf4S2Q3xh-xKyiKY-141" value="" style="ellipse;whiteSpace=wrap;html=1;aspect=fixed;" parent="_kBkWf4S2Q3xh-xKyiKY-136" vertex="1">
          <mxGeometry x="70" y="40" width="30" height="30" as="geometry" />
        </mxCell>
        <mxCell id="_kBkWf4S2Q3xh-xKyiKY-142" style="rounded=0;orthogonalLoop=1;jettySize=auto;html=1;entryX=0.58;entryY=0.047;entryDx=0;entryDy=0;entryPerimeter=0;endArrow=none;endFill=0;" parent="_kBkWf4S2Q3xh-xKyiKY-136" source="_kBkWf4S2Q3xh-xKyiKY-144" target="_kBkWf4S2Q3xh-xKyiKY-145" edge="1">
          <mxGeometry relative="1" as="geometry" />
        </mxCell>
        <mxCell id="_kBkWf4S2Q3xh-xKyiKY-143" style="rounded=0;orthogonalLoop=1;jettySize=auto;html=1;entryX=0.333;entryY=0.087;entryDx=0;entryDy=0;endArrow=none;endFill=0;entryPerimeter=0;" parent="_kBkWf4S2Q3xh-xKyiKY-136" source="_kBkWf4S2Q3xh-xKyiKY-144" target="_kBkWf4S2Q3xh-xKyiKY-146" edge="1">
          <mxGeometry relative="1" as="geometry" />
        </mxCell>
        <mxCell id="_kBkWf4S2Q3xh-xKyiKY-144" value="" style="ellipse;whiteSpace=wrap;html=1;aspect=fixed;" parent="_kBkWf4S2Q3xh-xKyiKY-136" vertex="1">
          <mxGeometry x="20" y="40" width="30" height="30" as="geometry" />
        </mxCell>
        <mxCell id="_kBkWf4S2Q3xh-xKyiKY-145" value="" style="ellipse;whiteSpace=wrap;html=1;aspect=fixed;fillColor=#5066DD;" parent="_kBkWf4S2Q3xh-xKyiKY-136" vertex="1">
          <mxGeometry y="79.25999999999999" width="30" height="30" as="geometry" />
        </mxCell>
        <mxCell id="_kBkWf4S2Q3xh-xKyiKY-146" value="" style="ellipse;whiteSpace=wrap;html=1;aspect=fixed;fillColor=#5066DD;" parent="_kBkWf4S2Q3xh-xKyiKY-136" vertex="1">
          <mxGeometry x="46.860000000000014" y="79.25999999999999" width="30" height="30" as="geometry" />
        </mxCell>
        <mxCell id="_kBkWf4S2Q3xh-xKyiKY-147" value="" style="ellipse;whiteSpace=wrap;html=1;aspect=fixed;direction=south;" parent="_kBkWf4S2Q3xh-xKyiKY-136" vertex="1">
          <mxGeometry x="91.86000000000001" y="79.25999999999999" width="30" height="30" as="geometry" />
        </mxCell>
        <mxCell id="_kBkWf4S2Q3xh-xKyiKY-158" value="" style="group" parent="1" vertex="1" connectable="0">
          <mxGeometry x="1204.5852780025957" y="238.48878828333216" width="96.07472199740425" height="99.03093371407215" as="geometry" />
        </mxCell>
        <mxCell id="_kBkWf4S2Q3xh-xKyiKY-150" value="" style="ellipse;whiteSpace=wrap;html=1;align=center;aspect=fixed;fillColor=none;strokeColor=none;resizable=0;perimeter=centerPerimeter;rotatable=0;allowArrows=0;points=[];outlineConnect=1;" parent="_kBkWf4S2Q3xh-xKyiKY-158" vertex="1">
          <mxGeometry x="26.074721997404254" y="34.88121171666785" width="10" height="10" as="geometry" />
        </mxCell>
        <mxCell id="_kBkWf4S2Q3xh-xKyiKY-154" value="" style="line;strokeWidth=2;html=1;rotation=45;" parent="_kBkWf4S2Q3xh-xKyiKY-158" vertex="1">
          <mxGeometry x="17.26472199740431" y="3.651211716667831" width="35.18" height="60" as="geometry" />
        </mxCell>
        <mxCell id="_kBkWf4S2Q3xh-xKyiKY-155" value="" style="line;strokeWidth=2;html=1;rotation=315;" parent="_kBkWf4S2Q3xh-xKyiKY-158" vertex="1">
          <mxGeometry x="15.85472199740434" y="34.88121171666785" width="36.59" height="60" as="geometry" />
        </mxCell>
        <mxCell id="_kBkWf4S2Q3xh-xKyiKY-157" style="rounded=0;orthogonalLoop=1;jettySize=auto;html=1;endArrow=classicThin;endFill=1;strokeWidth=2;" parent="_kBkWf4S2Q3xh-xKyiKY-158" source="_kBkWf4S2Q3xh-xKyiKY-156" edge="1">
          <mxGeometry relative="1" as="geometry">
            <mxPoint x="96.07472199740425" y="49.88121171666785" as="targetPoint" />
          </mxGeometry>
        </mxCell>
        <mxCell id="_kBkWf4S2Q3xh-xKyiKY-156" value="" style="ellipse;whiteSpace=wrap;html=1;aspect=fixed;strokeColor=none;fillColor=#000000;" parent="_kBkWf4S2Q3xh-xKyiKY-158" vertex="1">
          <mxGeometry x="39.44472199740426" y="41.88121171666785" width="15" height="15" as="geometry" />
        </mxCell>
        <mxCell id="_kBkWf4S2Q3xh-xKyiKY-164" value="patch" style="text;html=1;align=center;verticalAlign=middle;resizable=0;points=[];autosize=1;strokeColor=none;fillColor=none;fontStyle=2" parent="_kBkWf4S2Q3xh-xKyiKY-158" vertex="1">
          <mxGeometry x="46.074721997404254" y="56.511211716667844" width="50" height="30" as="geometry" />
        </mxCell>
        <mxCell id="_kBkWf4S2Q3xh-xKyiKY-163" value="" style="group" parent="1" vertex="1" connectable="0">
          <mxGeometry x="1043.73" y="278" width="60" height="16.25999999999999" as="geometry" />
        </mxCell>
        <mxCell id="_kBkWf4S2Q3xh-xKyiKY-160" style="rounded=0;orthogonalLoop=1;jettySize=auto;html=1;startArrow=classicThin;startFill=1;endArrow=none;endFill=0;strokeWidth=2;" parent="_kBkWf4S2Q3xh-xKyiKY-163" edge="1">
          <mxGeometry relative="1" as="geometry">
            <mxPoint x="60" y="16" as="targetPoint" />
            <mxPoint y="16.25999999999999" as="sourcePoint" />
          </mxGeometry>
        </mxCell>
        <mxCell id="_kBkWf4S2Q3xh-xKyiKY-161" style="rounded=0;orthogonalLoop=1;jettySize=auto;html=1;startArrow=none;startFill=0;endArrow=classicThin;endFill=1;strokeWidth=2;" parent="_kBkWf4S2Q3xh-xKyiKY-163" edge="1">
          <mxGeometry relative="1" as="geometry">
            <mxPoint x="60" as="targetPoint" />
            <mxPoint y="0.2599999999999909" as="sourcePoint" />
          </mxGeometry>
        </mxCell>
        <mxCell id="_kBkWf4S2Q3xh-xKyiKY-165" value="VIrtual DOM" style="text;html=1;align=center;verticalAlign=middle;resizable=0;points=[];autosize=1;strokeColor=none;fillColor=none;" parent="1" vertex="1">
          <mxGeometry x="1119.66" y="88.47" width="90" height="30" as="geometry" />
        </mxCell>
        <mxCell id="_kBkWf4S2Q3xh-xKyiKY-166" value="Real DOM" style="text;html=1;align=center;verticalAlign=middle;resizable=0;points=[];autosize=1;strokeColor=none;fillColor=none;" parent="1" vertex="1">
          <mxGeometry x="1341.66" y="190" width="80" height="30" as="geometry" />
        </mxCell>
        <mxCell id="_kBkWf4S2Q3xh-xKyiKY-195" style="rounded=0;orthogonalLoop=1;jettySize=auto;html=1;entryX=-0.003;entryY=0.15;entryDx=0;entryDy=0;entryPerimeter=0;exitX=0.998;exitY=0.149;exitDx=0;exitDy=0;exitPerimeter=0;endArrow=open;endFill=0;" parent="1" source="_kBkWf4S2Q3xh-xKyiKY-170" target="_kBkWf4S2Q3xh-xKyiKY-178" edge="1">
          <mxGeometry relative="1" as="geometry">
            <mxPoint x="1120" y="500" as="sourcePoint" />
          </mxGeometry>
        </mxCell>
        <mxCell id="_kBkWf4S2Q3xh-xKyiKY-170" value="" style="whiteSpace=wrap;html=1;labelPosition=center;verticalLabelPosition=middle;align=center;verticalAlign=middle;fillColor=none;swimlaneLine=1;" parent="1" vertex="1">
          <mxGeometry x="959.66" y="470" width="160" height="210" as="geometry" />
        </mxCell>
        <mxCell id="_kBkWf4S2Q3xh-xKyiKY-173" value="Browser" style="text;html=1;align=center;verticalAlign=middle;resizable=0;points=[];autosize=1;strokeColor=none;fillColor=none;" parent="1" vertex="1">
          <mxGeometry x="1004.66" y="479" width="70" height="30" as="geometry" />
        </mxCell>
        <mxCell id="_kBkWf4S2Q3xh-xKyiKY-174" value="" style="whiteSpace=wrap;html=1;labelPosition=center;verticalLabelPosition=middle;align=center;verticalAlign=middle;fillColor=none;swimlaneLine=1;" parent="1" vertex="1">
          <mxGeometry x="979.66" y="509" width="120" height="70" as="geometry" />
        </mxCell>
        <mxCell id="_kBkWf4S2Q3xh-xKyiKY-175" value="HTML/CSS&lt;div&gt;Javascript&lt;/div&gt;&lt;div&gt;(React App)&lt;/div&gt;" style="text;html=1;align=center;verticalAlign=middle;resizable=0;points=[];autosize=1;strokeColor=none;fillColor=none;" parent="1" vertex="1">
          <mxGeometry x="994.66" y="514" width="90" height="60" as="geometry" />
        </mxCell>
        <mxCell id="_kBkWf4S2Q3xh-xKyiKY-176" value="Desktop" style="whiteSpace=wrap;html=1;labelPosition=center;verticalLabelPosition=middle;align=center;verticalAlign=middle;fillColor=none;swimlaneLine=1;" parent="1" vertex="1">
          <mxGeometry x="969.66" y="594" width="90" height="65" as="geometry" />
        </mxCell>
        <mxCell id="_kBkWf4S2Q3xh-xKyiKY-177" value="Mobile" style="whiteSpace=wrap;html=1;labelPosition=center;verticalLabelPosition=middle;align=center;verticalAlign=middle;fillColor=none;swimlaneLine=1;" parent="1" vertex="1">
          <mxGeometry x="1069.66" y="594" width="40" height="65" as="geometry" />
        </mxCell>
        <mxCell id="_kBkWf4S2Q3xh-xKyiKY-199" style="rounded=0;orthogonalLoop=1;jettySize=auto;html=1;entryX=1;entryY=0.75;entryDx=0;entryDy=0;edgeStyle=orthogonalEdgeStyle;exitX=0;exitY=0.75;exitDx=0;exitDy=0;endArrow=open;endFill=0;" parent="1" source="_kBkWf4S2Q3xh-xKyiKY-178" target="_kBkWf4S2Q3xh-xKyiKY-170" edge="1">
          <mxGeometry relative="1" as="geometry" />
        </mxCell>
        <mxCell id="_kBkWf4S2Q3xh-xKyiKY-178" value="" style="whiteSpace=wrap;html=1;labelPosition=center;verticalLabelPosition=middle;align=center;verticalAlign=middle;fillColor=none;swimlaneLine=1;" parent="1" vertex="1">
          <mxGeometry x="1200" y="470" width="160" height="210" as="geometry" />
        </mxCell>
        <mxCell id="_kBkWf4S2Q3xh-xKyiKY-180" value="" style="whiteSpace=wrap;html=1;labelPosition=center;verticalLabelPosition=middle;align=center;verticalAlign=middle;fillColor=none;swimlaneLine=1;" parent="1" vertex="1">
          <mxGeometry x="1220" y="489" width="120" height="120" as="geometry" />
        </mxCell>
        <mxCell id="_kBkWf4S2Q3xh-xKyiKY-181" value="Express&lt;div&gt;&amp;nbsp;Application&lt;/div&gt;" style="text;html=1;align=center;verticalAlign=middle;resizable=0;points=[];autosize=1;strokeColor=none;fillColor=none;" parent="1" vertex="1">
          <mxGeometry x="1235" y="524" width="90" height="40" as="geometry" />
        </mxCell>
        <mxCell id="_kBkWf4S2Q3xh-xKyiKY-182" value="Application Server" style="whiteSpace=wrap;html=1;labelPosition=center;verticalLabelPosition=middle;align=center;verticalAlign=middle;fillColor=none;swimlaneLine=1;" parent="1" vertex="1">
          <mxGeometry x="1200" y="650" width="160" height="30" as="geometry" />
        </mxCell>
        <mxCell id="_kBkWf4S2Q3xh-xKyiKY-184" value="Node Server" style="text;html=1;align=center;verticalAlign=middle;resizable=0;points=[];autosize=1;strokeColor=none;fillColor=none;" parent="1" vertex="1">
          <mxGeometry x="1235" y="611.5" width="90" height="30" as="geometry" />
        </mxCell>
        <mxCell id="_kBkWf4S2Q3xh-xKyiKY-188" value="MongoDB&lt;div&gt;Database&lt;/div&gt;" style="text;html=1;align=center;verticalAlign=middle;resizable=0;points=[];autosize=1;strokeColor=none;fillColor=none;" parent="1" vertex="1">
          <mxGeometry x="1480" y="542" width="80" height="40" as="geometry" />
        </mxCell>
        <mxCell id="_kBkWf4S2Q3xh-xKyiKY-189" value="Database Server" style="whiteSpace=wrap;html=1;labelPosition=center;verticalLabelPosition=middle;align=center;verticalAlign=middle;fillColor=none;swimlaneLine=1;" parent="1" vertex="1">
          <mxGeometry x="1440" y="650" width="160" height="30" as="geometry" />
        </mxCell>
        <mxCell id="_kBkWf4S2Q3xh-xKyiKY-192" value="Client Layer" style="whiteSpace=wrap;html=1;labelPosition=center;verticalLabelPosition=middle;align=center;verticalAlign=middle;fillColor=none;swimlaneLine=1;" parent="1" vertex="1">
          <mxGeometry x="959.66" y="440" width="160" height="30" as="geometry" />
        </mxCell>
        <mxCell id="_kBkWf4S2Q3xh-xKyiKY-193" value="Business Logic Layer" style="whiteSpace=wrap;html=1;labelPosition=center;verticalLabelPosition=middle;align=center;verticalAlign=middle;fillColor=none;swimlaneLine=1;" parent="1" vertex="1">
          <mxGeometry x="1200" y="440" width="160" height="30" as="geometry" />
        </mxCell>
        <mxCell id="_kBkWf4S2Q3xh-xKyiKY-194" value="Database Layer" style="whiteSpace=wrap;html=1;labelPosition=center;verticalLabelPosition=middle;align=center;verticalAlign=middle;fillColor=none;swimlaneLine=1;" parent="1" vertex="1">
          <mxGeometry x="1440" y="440" width="160" height="30" as="geometry" />
        </mxCell>
        <mxCell id="_kBkWf4S2Q3xh-xKyiKY-197" value="http" style="text;html=1;align=center;verticalAlign=middle;resizable=0;points=[];autosize=1;strokeColor=none;fillColor=none;" parent="1" vertex="1">
          <mxGeometry x="1140" y="476" width="40" height="30" as="geometry" />
        </mxCell>
        <mxCell id="_kBkWf4S2Q3xh-xKyiKY-198" value="request" style="text;html=1;align=center;verticalAlign=middle;resizable=0;points=[];autosize=1;strokeColor=none;fillColor=none;" parent="1" vertex="1">
          <mxGeometry x="1130" y="494" width="60" height="30" as="geometry" />
        </mxCell>
        <mxCell id="_kBkWf4S2Q3xh-xKyiKY-200" value="http" style="text;html=1;align=center;verticalAlign=middle;resizable=0;points=[];autosize=1;strokeColor=none;fillColor=none;" parent="1" vertex="1">
          <mxGeometry x="1140" y="602" width="40" height="30" as="geometry" />
        </mxCell>
        <mxCell id="_kBkWf4S2Q3xh-xKyiKY-201" value="response" style="text;html=1;align=center;verticalAlign=middle;resizable=0;points=[];autosize=1;strokeColor=none;fillColor=none;" parent="1" vertex="1">
          <mxGeometry x="1125" y="620" width="70" height="30" as="geometry" />
        </mxCell>
        <mxCell id="_kBkWf4S2Q3xh-xKyiKY-202" style="edgeStyle=orthogonalEdgeStyle;rounded=0;orthogonalLoop=1;jettySize=auto;html=1;entryX=0.01;entryY=0.15;entryDx=0;entryDy=0;entryPerimeter=0;endArrow=open;endFill=0;" parent="1" source="_kBkWf4S2Q3xh-xKyiKY-178" target="_kBkWf4S2Q3xh-xKyiKY-186" edge="1">
          <mxGeometry relative="1" as="geometry">
            <Array as="points">
              <mxPoint x="1400" y="502" />
            </Array>
          </mxGeometry>
        </mxCell>
        <mxCell id="_kBkWf4S2Q3xh-xKyiKY-203" value="data" style="text;html=1;align=center;verticalAlign=middle;resizable=0;points=[];autosize=1;strokeColor=none;fillColor=none;" parent="1" vertex="1">
          <mxGeometry x="1375" y="476" width="50" height="30" as="geometry" />
        </mxCell>
        <mxCell id="_kBkWf4S2Q3xh-xKyiKY-204" value="request" style="text;html=1;align=center;verticalAlign=middle;resizable=0;points=[];autosize=1;strokeColor=none;fillColor=none;" parent="1" vertex="1">
          <mxGeometry x="1370" y="494" width="60" height="30" as="geometry" />
        </mxCell>
        <mxCell id="_kBkWf4S2Q3xh-xKyiKY-208" value="data" style="text;html=1;align=center;verticalAlign=middle;resizable=0;points=[];autosize=1;strokeColor=none;fillColor=none;" parent="1" vertex="1">
          <mxGeometry x="1375" y="602" width="50" height="30" as="geometry" />
        </mxCell>
        <mxCell id="_kBkWf4S2Q3xh-xKyiKY-209" value="response" style="text;html=1;align=center;verticalAlign=middle;resizable=0;points=[];autosize=1;strokeColor=none;fillColor=none;" parent="1" vertex="1">
          <mxGeometry x="1365" y="620" width="70" height="30" as="geometry" />
        </mxCell>
        <mxCell id="CDQig7xl8AM6q7Vo0ds6-2" style="edgeStyle=none;html=1;" parent="1" source="_kBkWf4S2Q3xh-xKyiKY-210" target="_kBkWf4S2Q3xh-xKyiKY-211" edge="1">
          <mxGeometry relative="1" as="geometry" />
        </mxCell>
        <mxCell id="_kBkWf4S2Q3xh-xKyiKY-210" value="Start" style="ellipse;whiteSpace=wrap;html=1;aspect=fixed;" parent="1" vertex="1">
          <mxGeometry x="860" y="840" width="80" height="80" as="geometry" />
        </mxCell>
        <mxCell id="CDQig7xl8AM6q7Vo0ds6-3" style="edgeStyle=none;html=1;entryX=0.5;entryY=0;entryDx=0;entryDy=0;" parent="1" source="_kBkWf4S2Q3xh-xKyiKY-211" target="_kBkWf4S2Q3xh-xKyiKY-212" edge="1">
          <mxGeometry relative="1" as="geometry" />
        </mxCell>
        <mxCell id="_kBkWf4S2Q3xh-xKyiKY-211" value="Login Page" style="rounded=1;whiteSpace=wrap;html=1;" parent="1" vertex="1">
          <mxGeometry x="1005.0000000000001" y="860" width="120" height="40" as="geometry" />
        </mxCell>
        <mxCell id="CDQig7xl8AM6q7Vo0ds6-4" style="edgeStyle=orthogonalEdgeStyle;html=1;entryX=0.5;entryY=0;entryDx=0;entryDy=0;rounded=0;startArrow=classicThin;startFill=1;endArrow=classicThin;endFill=1;" parent="1" source="_kBkWf4S2Q3xh-xKyiKY-214" target="_kBkWf4S2Q3xh-xKyiKY-213" edge="1">
          <mxGeometry relative="1" as="geometry">
            <mxPoint x="970" y="1086.98" as="targetPoint" />
            <Array as="points">
              <mxPoint x="1040" y="1076.98" />
              <mxPoint x="900" y="1076.98" />
            </Array>
          </mxGeometry>
        </mxCell>
        <mxCell id="CDQig7xl8AM6q7Vo0ds6-6" style="edgeStyle=orthogonalEdgeStyle;html=1;exitX=0.5;exitY=1;exitDx=0;exitDy=0;rounded=0;startArrow=classicThin;startFill=1;endArrow=classicThin;endFill=1;" parent="1" source="_kBkWf4S2Q3xh-xKyiKY-212" target="_kBkWf4S2Q3xh-xKyiKY-214" edge="1">
          <mxGeometry relative="1" as="geometry">
            <Array as="points">
              <mxPoint x="1065" y="1070" />
              <mxPoint x="1140" y="1070" />
              <mxPoint x="1140" y="1127" />
            </Array>
          </mxGeometry>
        </mxCell>
        <mxCell id="CDQig7xl8AM6q7Vo0ds6-7" style="edgeStyle=orthogonalEdgeStyle;rounded=0;html=1;startArrow=none;startFill=0;endArrow=classicThin;endFill=1;" parent="1" source="_kBkWf4S2Q3xh-xKyiKY-212" edge="1">
          <mxGeometry relative="1" as="geometry">
            <mxPoint x="970" y="1080" as="targetPoint" />
          </mxGeometry>
        </mxCell>
        <mxCell id="CDQig7xl8AM6q7Vo0ds6-10" style="edgeStyle=orthogonalEdgeStyle;rounded=0;html=1;startArrow=none;startFill=0;endArrow=classicThin;endFill=1;" parent="1" source="_kBkWf4S2Q3xh-xKyiKY-212" target="_kBkWf4S2Q3xh-xKyiKY-221" edge="1">
          <mxGeometry relative="1" as="geometry" />
        </mxCell>
        <mxCell id="_kBkWf4S2Q3xh-xKyiKY-212" value="&lt;div style=&quot;&quot;&gt;&lt;span style=&quot;background-color: initial;&quot;&gt;Valid&amp;nbsp;&lt;/span&gt;&lt;/div&gt;&lt;div style=&quot;&quot;&gt;User&lt;/div&gt;&lt;div style=&quot;&quot;&gt;&amp;nbsp;details ?&amp;nbsp;&lt;/div&gt;" style="rhombus;whiteSpace=wrap;html=1;align=center;" parent="1" vertex="1">
          <mxGeometry x="1009.6600000000001" y="925" width="110" height="110" as="geometry" />
        </mxCell>
        <mxCell id="_kBkWf4S2Q3xh-xKyiKY-213" value="Try Again" style="rounded=1;whiteSpace=wrap;html=1;" parent="1" vertex="1">
          <mxGeometry x="840" y="1106.98" width="120" height="40" as="geometry" />
        </mxCell>
        <mxCell id="_kBkWf4S2Q3xh-xKyiKY-214" value="Sign Up Page" style="rounded=1;whiteSpace=wrap;html=1;" parent="1" vertex="1">
          <mxGeometry x="979.66" y="1106.98" width="120" height="40" as="geometry" />
        </mxCell>
        <mxCell id="_kBkWf4S2Q3xh-xKyiKY-215" value="Create Post Page&amp;nbsp;" style="rounded=1;whiteSpace=wrap;html=1;" parent="1" vertex="1">
          <mxGeometry x="1320" y="1022" width="120" height="40" as="geometry" />
        </mxCell>
        <mxCell id="_kBkWf4S2Q3xh-xKyiKY-216" value="Notification Page" style="rounded=1;whiteSpace=wrap;html=1;" parent="1" vertex="1">
          <mxGeometry x="1320" y="900" width="120" height="40" as="geometry" />
        </mxCell>
        <mxCell id="CDQig7xl8AM6q7Vo0ds6-14" style="edgeStyle=orthogonalEdgeStyle;rounded=0;html=1;entryX=0;entryY=0.5;entryDx=0;entryDy=0;startArrow=none;startFill=0;endArrow=classicThin;endFill=1;" parent="1" source="_kBkWf4S2Q3xh-xKyiKY-217" target="_kBkWf4S2Q3xh-xKyiKY-218" edge="1">
          <mxGeometry relative="1" as="geometry" />
        </mxCell>
        <mxCell id="CDQig7xl8AM6q7Vo0ds6-15" style="edgeStyle=orthogonalEdgeStyle;rounded=0;html=1;startArrow=none;startFill=0;endArrow=classicThin;endFill=1;" parent="1" source="_kBkWf4S2Q3xh-xKyiKY-217" edge="1">
          <mxGeometry relative="1" as="geometry">
            <mxPoint x="1380" y="940" as="targetPoint" />
          </mxGeometry>
        </mxCell>
        <mxCell id="CDQig7xl8AM6q7Vo0ds6-16" style="edgeStyle=orthogonalEdgeStyle;rounded=0;html=1;startArrow=none;startFill=0;endArrow=classicThin;endFill=1;" parent="1" source="_kBkWf4S2Q3xh-xKyiKY-217" target="_kBkWf4S2Q3xh-xKyiKY-215" edge="1">
          <mxGeometry relative="1" as="geometry">
            <Array as="points">
              <mxPoint x="1380" y="1020" />
              <mxPoint x="1380" y="1020" />
            </Array>
          </mxGeometry>
        </mxCell>
        <mxCell id="_kBkWf4S2Q3xh-xKyiKY-217" value="Profile Page" style="rounded=1;whiteSpace=wrap;html=1;" parent="1" vertex="1">
          <mxGeometry x="1320" y="960" width="120" height="40" as="geometry" />
        </mxCell>
        <mxCell id="CDQig7xl8AM6q7Vo0ds6-17" style="edgeStyle=orthogonalEdgeStyle;rounded=0;html=1;entryX=0.5;entryY=0;entryDx=0;entryDy=0;startArrow=none;startFill=0;endArrow=none;endFill=0;" parent="1" target="_kBkWf4S2Q3xh-xKyiKY-211" edge="1">
          <mxGeometry relative="1" as="geometry">
            <mxPoint x="1360" y="880" as="sourcePoint" />
            <Array as="points">
              <mxPoint x="1360" y="840" />
              <mxPoint x="1065" y="840" />
            </Array>
          </mxGeometry>
        </mxCell>
        <mxCell id="_kBkWf4S2Q3xh-xKyiKY-218" value="Edit profile model Page" style="rounded=1;whiteSpace=wrap;html=1;" parent="1" vertex="1">
          <mxGeometry x="1480" y="960" width="120" height="40" as="geometry" />
        </mxCell>
        <mxCell id="CDQig7xl8AM6q7Vo0ds6-11" style="edgeStyle=orthogonalEdgeStyle;rounded=0;html=1;entryX=0;entryY=0.5;entryDx=0;entryDy=0;startArrow=classicThin;startFill=1;endArrow=classicThin;endFill=1;" parent="1" source="_kBkWf4S2Q3xh-xKyiKY-221" target="_kBkWf4S2Q3xh-xKyiKY-217" edge="1">
          <mxGeometry relative="1" as="geometry" />
        </mxCell>
        <mxCell id="CDQig7xl8AM6q7Vo0ds6-12" style="edgeStyle=orthogonalEdgeStyle;rounded=0;html=1;startArrow=classicThin;startFill=1;endArrow=classicThin;endFill=1;entryX=0;entryY=0.5;entryDx=0;entryDy=0;" parent="1" source="_kBkWf4S2Q3xh-xKyiKY-221" target="_kBkWf4S2Q3xh-xKyiKY-216" edge="1">
          <mxGeometry relative="1" as="geometry">
            <mxPoint x="1280" y="930" as="targetPoint" />
            <Array as="points">
              <mxPoint x="1220" y="920" />
            </Array>
          </mxGeometry>
        </mxCell>
        <mxCell id="CDQig7xl8AM6q7Vo0ds6-13" style="edgeStyle=orthogonalEdgeStyle;rounded=0;html=1;startArrow=classicThin;startFill=1;endArrow=classicThin;endFill=1;exitX=0.5;exitY=1;exitDx=0;exitDy=0;" parent="1" source="_kBkWf4S2Q3xh-xKyiKY-221" edge="1">
          <mxGeometry relative="1" as="geometry">
            <mxPoint x="1220" y="990" as="sourcePoint" />
            <mxPoint x="1320" y="1042" as="targetPoint" />
            <Array as="points">
              <mxPoint x="1220" y="1042" />
            </Array>
          </mxGeometry>
        </mxCell>
        <mxCell id="CDQig7xl8AM6q7Vo0ds6-18" style="edgeStyle=orthogonalEdgeStyle;rounded=0;html=1;entryX=0.5;entryY=0;entryDx=0;entryDy=0;startArrow=none;startFill=0;endArrow=classicThin;endFill=1;exitX=0.25;exitY=0;exitDx=0;exitDy=0;" parent="1" source="_kBkWf4S2Q3xh-xKyiKY-221" target="_kBkWf4S2Q3xh-xKyiKY-218" edge="1">
          <mxGeometry relative="1" as="geometry">
            <Array as="points">
              <mxPoint x="1190" y="880" />
              <mxPoint x="1540" y="880" />
            </Array>
          </mxGeometry>
        </mxCell>
        <mxCell id="_kBkWf4S2Q3xh-xKyiKY-221" value="Home Page" style="rounded=1;whiteSpace=wrap;html=1;" parent="1" vertex="1">
          <mxGeometry x="1160" y="960" width="120" height="40" as="geometry" />
        </mxCell>
        <mxCell id="CDQig7xl8AM6q7Vo0ds6-8" value="No" style="text;html=1;align=center;verticalAlign=middle;resizable=0;points=[];autosize=1;strokeColor=none;fillColor=none;" parent="1" vertex="1">
          <mxGeometry x="969.66" y="950" width="40" height="30" as="geometry" />
        </mxCell>
        <mxCell id="CDQig7xl8AM6q7Vo0ds6-19" value="Yes" style="text;html=1;align=center;verticalAlign=middle;resizable=0;points=[];autosize=1;strokeColor=none;fillColor=none;" parent="1" vertex="1">
          <mxGeometry x="1116.6599999999999" y="950" width="40" height="30" as="geometry" />
        </mxCell>
        <mxCell id="CDQig7xl8AM6q7Vo0ds6-20" value="logout" style="text;html=1;align=center;verticalAlign=middle;resizable=0;points=[];autosize=1;strokeColor=none;fillColor=none;fontStyle=2" parent="1" vertex="1">
          <mxGeometry x="1175.59" y="810" width="60" height="30" as="geometry" />
        </mxCell>
        <mxCell id="Z8T4W5CYKs4SdmQJ_7oJ-3" style="edgeStyle=orthogonalEdgeStyle;rounded=0;orthogonalLoop=1;jettySize=auto;html=1;endArrow=none;endFill=0;" edge="1" parent="1" source="X-PVMxrkOUQSqLb8IUHX-1">
          <mxGeometry relative="1" as="geometry">
            <mxPoint x="1780" y="470" as="targetPoint" />
            <Array as="points">
              <mxPoint x="1780" y="470" />
            </Array>
          </mxGeometry>
        </mxCell>
        <mxCell id="X-PVMxrkOUQSqLb8IUHX-1" value="Browser" style="rounded=0;whiteSpace=wrap;html=1;" parent="1" vertex="1">
          <mxGeometry x="1720" y="98.64" width="120" height="60" as="geometry" />
        </mxCell>
        <mxCell id="Z8T4W5CYKs4SdmQJ_7oJ-4" style="edgeStyle=orthogonalEdgeStyle;rounded=0;orthogonalLoop=1;jettySize=auto;html=1;exitX=0.5;exitY=1;exitDx=0;exitDy=0;endArrow=none;endFill=0;" edge="1" parent="1" source="X-PVMxrkOUQSqLb8IUHX-2">
          <mxGeometry relative="1" as="geometry">
            <mxPoint x="2140" y="470" as="targetPoint" />
            <Array as="points">
              <mxPoint x="2140" y="470" />
            </Array>
          </mxGeometry>
        </mxCell>
        <mxCell id="X-PVMxrkOUQSqLb8IUHX-2" value="Server" style="rounded=0;whiteSpace=wrap;html=1;" parent="1" vertex="1">
          <mxGeometry x="2080" y="98.64" width="120" height="60" as="geometry" />
        </mxCell>
        <mxCell id="Z8T4W5CYKs4SdmQJ_7oJ-5" style="edgeStyle=orthogonalEdgeStyle;rounded=0;orthogonalLoop=1;jettySize=auto;html=1;entryX=0.5;entryY=0;entryDx=0;entryDy=0;" edge="1" parent="1" source="Z8T4W5CYKs4SdmQJ_7oJ-1" target="Z8T4W5CYKs4SdmQJ_7oJ-2">
          <mxGeometry relative="1" as="geometry" />
        </mxCell>
        <mxCell id="Z8T4W5CYKs4SdmQJ_7oJ-1" value="Password" style="rounded=1;whiteSpace=wrap;html=1;" vertex="1" parent="1">
          <mxGeometry x="2280" y="95.48" width="120" height="60" as="geometry" />
        </mxCell>
        <mxCell id="Z8T4W5CYKs4SdmQJ_7oJ-11" style="edgeStyle=orthogonalEdgeStyle;rounded=0;orthogonalLoop=1;jettySize=auto;html=1;endArrow=open;endFill=0;" edge="1" parent="1" source="Z8T4W5CYKs4SdmQJ_7oJ-2">
          <mxGeometry relative="1" as="geometry">
            <mxPoint x="2220.0000000000005" y="255.01" as="targetPoint" />
          </mxGeometry>
        </mxCell>
        <mxCell id="Z8T4W5CYKs4SdmQJ_7oJ-2" value="Secret Key = Hash Password + &quot;0&quot;" style="rounded=1;whiteSpace=wrap;html=1;" vertex="1" parent="1">
          <mxGeometry x="2280" y="225.01" width="120" height="60" as="geometry" />
        </mxCell>
        <mxCell id="Z8T4W5CYKs4SdmQJ_7oJ-6" value="" style="endArrow=classic;html=1;rounded=0;" edge="1" parent="1">
          <mxGeometry width="50" height="50" relative="1" as="geometry">
            <mxPoint x="1780" y="219" as="sourcePoint" />
            <mxPoint x="2120" y="219" as="targetPoint" />
          </mxGeometry>
        </mxCell>
        <mxCell id="Z8T4W5CYKs4SdmQJ_7oJ-7" value="1. Post/ method user/login with username and password" style="text;html=1;align=center;verticalAlign=middle;resizable=0;points=[];autosize=1;strokeColor=none;fillColor=none;" vertex="1" parent="1">
          <mxGeometry x="1790" y="183.98" width="320" height="30" as="geometry" />
        </mxCell>
        <mxCell id="Z8T4W5CYKs4SdmQJ_7oJ-8" value="" style="endArrow=classic;html=1;rounded=0;edgeStyle=orthogonalEdgeStyle;strokeWidth=6;" edge="1" parent="1">
          <mxGeometry width="50" height="50" relative="1" as="geometry">
            <mxPoint x="2150" y="230" as="sourcePoint" />
            <mxPoint x="2150" y="280" as="targetPoint" />
            <Array as="points">
              <mxPoint x="2150" y="230" />
              <mxPoint x="2220" y="230" />
              <mxPoint x="2220" y="280" />
            </Array>
          </mxGeometry>
        </mxCell>
        <mxCell id="Z8T4W5CYKs4SdmQJ_7oJ-9" value="" style="endArrow=none;html=1;rounded=0;endFill=0;startArrow=open;startFill=0;" edge="1" parent="1">
          <mxGeometry width="50" height="50" relative="1" as="geometry">
            <mxPoint x="1800" y="280" as="sourcePoint" />
            <mxPoint x="2140" y="280" as="targetPoint" />
          </mxGeometry>
        </mxCell>
        <mxCell id="Z8T4W5CYKs4SdmQJ_7oJ-10" value="3. Return the JWT to the browser" style="text;html=1;align=center;verticalAlign=middle;resizable=0;points=[];autosize=1;strokeColor=none;fillColor=none;" vertex="1" parent="1">
          <mxGeometry x="1790" y="243.73999999999998" width="200" height="30" as="geometry" />
        </mxCell>
        <mxCell id="Z8T4W5CYKs4SdmQJ_7oJ-12" value="2. Create a JWT&amp;nbsp;&lt;div&gt;with secret&lt;/div&gt;" style="text;html=1;align=center;verticalAlign=middle;resizable=0;points=[];autosize=1;strokeColor=none;fillColor=none;" vertex="1" parent="1">
          <mxGeometry x="2140" y="185.76" width="110" height="40" as="geometry" />
        </mxCell>
        <mxCell id="Z8T4W5CYKs4SdmQJ_7oJ-13" value="" style="endArrow=classic;html=1;rounded=0;edgeStyle=orthogonalEdgeStyle;strokeWidth=6;" edge="1" parent="1">
          <mxGeometry width="50" height="50" relative="1" as="geometry">
            <mxPoint x="2150" y="367.01" as="sourcePoint" />
            <mxPoint x="2150" y="417.01" as="targetPoint" />
            <Array as="points">
              <mxPoint x="2150" y="367.01" />
              <mxPoint x="2220" y="367.01" />
              <mxPoint x="2220" y="417.01" />
            </Array>
          </mxGeometry>
        </mxCell>
        <mxCell id="Z8T4W5CYKs4SdmQJ_7oJ-14" value="" style="endArrow=classic;html=1;rounded=0;" edge="1" parent="1">
          <mxGeometry width="50" height="50" relative="1" as="geometry">
            <mxPoint x="1780" y="354.11" as="sourcePoint" />
            <mxPoint x="2120" y="354.11" as="targetPoint" />
          </mxGeometry>
        </mxCell>
        <mxCell id="Z8T4W5CYKs4SdmQJ_7oJ-15" value="4. Sends JWT on Authorization Header with RSA encrypted" style="text;html=1;align=center;verticalAlign=middle;resizable=0;points=[];autosize=1;strokeColor=none;fillColor=none;" vertex="1" parent="1">
          <mxGeometry x="1790" y="319.09" width="340" height="30" as="geometry" />
        </mxCell>
        <mxCell id="Z8T4W5CYKs4SdmQJ_7oJ-16" value="" style="endArrow=none;html=1;rounded=0;endFill=0;startArrow=open;startFill=0;" edge="1" parent="1">
          <mxGeometry width="50" height="50" relative="1" as="geometry">
            <mxPoint x="1800" y="416.26" as="sourcePoint" />
            <mxPoint x="2140" y="416.26" as="targetPoint" />
          </mxGeometry>
        </mxCell>
        <mxCell id="Z8T4W5CYKs4SdmQJ_7oJ-17" value="6. Sends response to the client" style="text;html=1;align=center;verticalAlign=middle;resizable=0;points=[];autosize=1;strokeColor=none;fillColor=none;" vertex="1" parent="1">
          <mxGeometry x="1790" y="380" width="190" height="30" as="geometry" />
        </mxCell>
        <mxCell id="Z8T4W5CYKs4SdmQJ_7oJ-18" value="5. Check JWT signature Get user&lt;div&gt;&amp;nbsp;information from JWT&lt;/div&gt;" style="text;html=1;align=center;verticalAlign=middle;resizable=0;points=[];autosize=1;strokeColor=none;fillColor=none;" vertex="1" parent="1">
          <mxGeometry x="2140" y="318.54999999999995" width="200" height="40" as="geometry" />
        </mxCell>
        <mxCell id="Z8T4W5CYKs4SdmQJ_7oJ-21" style="edgeStyle=orthogonalEdgeStyle;rounded=0;orthogonalLoop=1;jettySize=auto;html=1;entryX=0;entryY=0.343;entryDx=0;entryDy=0;entryPerimeter=0;" edge="1" parent="1" source="Z8T4W5CYKs4SdmQJ_7oJ-19" target="Z8T4W5CYKs4SdmQJ_7oJ-20">
          <mxGeometry relative="1" as="geometry">
            <Array as="points">
              <mxPoint x="1975" y="580" />
            </Array>
          </mxGeometry>
        </mxCell>
        <mxCell id="Z8T4W5CYKs4SdmQJ_7oJ-19" value="Client" style="rounded=0;whiteSpace=wrap;html=1;" vertex="1" parent="1">
          <mxGeometry x="1800" y="560" width="120" height="60" as="geometry" />
        </mxCell>
        <mxCell id="Z8T4W5CYKs4SdmQJ_7oJ-23" style="edgeStyle=orthogonalEdgeStyle;rounded=0;orthogonalLoop=1;jettySize=auto;html=1;" edge="1" parent="1" source="Z8T4W5CYKs4SdmQJ_7oJ-20">
          <mxGeometry relative="1" as="geometry">
            <mxPoint x="1920" y="600" as="targetPoint" />
            <Array as="points">
              <mxPoint x="1920" y="600" />
            </Array>
          </mxGeometry>
        </mxCell>
        <mxCell id="Z8T4W5CYKs4SdmQJ_7oJ-20" value="Server" style="rounded=0;whiteSpace=wrap;html=1;" vertex="1" parent="1">
          <mxGeometry x="2040" y="560" width="120" height="60" as="geometry" />
        </mxCell>
      </root>
    </mxGraphModel>
  </diagram>
</mxfile>
